<svg id="Capa_1" enable-background="new 0 0 513.15 513.15" height="512" viewBox="0 0 513.15 513.15" width="512" xmlns="http://www.w3.org/2000/svg"><g><g><path d="m260.593 495.113 32.096 6.196c5.064.977 10.31.076 14.756-2.537l27.425-16.112c2.247-1.32 4.719-2.215 7.29-2.639l31.171-5.138c5.061-.834 9.647-3.475 12.91-7.433l21.054-25.541c1.75-2.123 3.897-3.886 6.321-5.189l26.96-14.491c4.57-2.456 8.081-6.503 9.867-11.375l11.498-31.357c.854-2.329 2.11-4.49 3.712-6.385l20.865-24.691c3.233-3.826 5.007-8.674 5.007-13.683v-32.733c0-2.536.455-5.052 1.344-7.428l11.439-30.577c1.792-4.79 1.792-10.066 0-14.855l-11.439-30.577c-.889-2.376-1.344-4.891-1.344-7.428v-32.73c0-5.009-1.774-9.857-5.007-13.683l-20.865-24.691c-1.601-1.895-2.858-4.056-3.712-6.385l-11.498-31.357c-1.786-4.871-5.297-8.918-9.867-11.375l-26.96-14.491c-2.424-1.303-4.571-3.065-6.321-5.188l-21.054-25.541c-3.262-3.958-7.849-6.598-12.91-7.433l-31.171-5.138c-2.572-.424-5.043-1.318-7.29-2.639l-27.425-16.112c-4.446-2.612-9.693-3.514-14.756-2.537l-32.096 6.196c-2.654.512-5.382.512-8.036 0l-32.096-6.196c-5.064-.977-10.31-.076-14.756 2.537l-27.425 16.113c-2.247 1.32-4.719 2.215-7.291 2.639l-31.171 5.138c-5.061.834-9.647 3.475-12.91 7.433l-21.053 25.54c-1.75 2.123-3.897 3.886-6.321 5.188l-26.96 14.491c-4.57 2.456-8.081 6.503-9.867 11.375l-11.497 31.357c-.854 2.329-2.11 4.49-3.712 6.385l-20.865 24.691c-3.233 3.826-5.007 8.674-5.007 13.683v32.733c0 2.536-.455 5.052-1.344 7.428l-11.439 30.576c-1.792 4.79-1.792 10.066 0 14.855l11.439 30.577c.889 2.376 1.344 4.891 1.344 7.428v32.733c0 5.009 1.774 9.857 5.007 13.683l20.865 24.691c1.601 1.895 2.858 4.056 3.712 6.385l11.498 31.357c1.786 4.871 5.297 8.918 9.867 11.375l26.96 14.491c2.424 1.303 4.571 3.065 6.321 5.189l21.054 25.541c3.262 3.958 7.849 6.598 12.91 7.433l31.171 5.138c2.572.424 5.043 1.318 7.291 2.639l27.425 16.112c4.446 2.612 9.693 3.514 14.756 2.537l32.096-6.196c2.652-.514 5.38-.514 8.034-.002z" fill="#fee97d"/><g><circle cx="257.075" cy="256.575" fill="#feca9c" r="203.418"/><path d="m168.61 256.575c0-92.382 61.609-170.376 145.962-195.178-18.228-5.36-37.534-8.24-57.497-8.24-112.345 0-203.418 91.073-203.418 203.418s91.073 203.418 203.418 203.418c19.963 0 39.279-2.883 57.507-8.242-84.353-24.803-145.972-102.794-145.972-195.176z" fill="#fdb97e"/><circle cx="257.075" cy="256.575" fill="#fea95c" r="173.418"/><path d="m265.359 83.359c-2.746-.13-5.506-.202-8.284-.202-95.623 0-173.418 77.795-173.418 173.418s77.795 173.418 173.418 173.418c2.777 0 5.538-.072 8.284-.202-58.052-35.821-96.749-99.993-96.749-173.216s38.697-137.395 96.749-173.216z" fill="#fe9738"/><ellipse cx="225.146" cy="157.065" fill="#fe860a" rx="32.457" ry="28.4"/><ellipse cx="181.083" cy="233.754" fill="#fe860a" rx="19.962" ry="17.466"/><ellipse cx="305.59" cy="364.189" fill="#fe9738" rx="30.22" ry="26.443"/></g></g><g><path d="m257.075 45.657c-59.328 0-116.248 25.203-156.165 69.146-2.785 3.066-2.557 7.81.509 10.595 3.064 2.783 7.809 2.558 10.595-.509 37.079-40.82 89.952-64.231 145.062-64.231 108.029 0 195.918 87.889 195.918 195.918s-87.889 195.918-195.918 195.918-195.919-87.89-195.919-195.919c0-38.304 11.065-75.416 31.999-107.321 2.272-3.463 1.307-8.113-2.156-10.385-3.463-2.273-8.113-1.308-10.385 2.156-22.543 34.357-34.458 74.313-34.458 115.55 0 116.301 94.617 210.918 210.918 210.918s210.918-94.617 210.918-210.918-94.617-210.918-210.918-210.918z"/><path d="m257.075 422.493c-49.555 0-96.164-21.985-127.878-60.319-2.639-3.192-7.366-3.639-10.56-.998-3.191 2.64-3.638 7.368-.997 10.56 34.572 41.79 85.395 65.758 139.435 65.758 99.759 0 180.918-81.16 180.918-180.918 0-53.507-23.589-104.008-64.717-138.555-3.173-2.665-7.903-2.254-10.567.919-2.664 3.171-2.252 7.902.919 10.566 37.728 31.69 59.365 78.005 59.365 127.07 0 91.486-74.43 165.917-165.918 165.917z"/><path d="m345.79 98.949c-26.974-15.238-57.65-23.292-88.715-23.292-99.759 0-180.918 81.16-180.918 180.918 0 30.63 7.844 60.93 22.682 87.624 1.371 2.466 3.928 3.857 6.563 3.857 1.232 0 2.483-.305 3.637-.946 3.621-2.012 4.924-6.579 2.912-10.199-13.604-24.47-20.793-52.25-20.793-80.335 0-91.487 74.431-165.918 165.918-165.918 28.484 0 56.609 7.383 81.336 21.352 3.606 2.037 8.182.766 10.22-2.841 2.036-3.607.764-8.182-2.842-10.22z"/><path d="m511.331 246.52-11.438-30.577c-.576-1.54-.868-3.155-.868-4.799v-32.734c0-6.773-2.407-13.352-6.778-18.524l-20.865-24.691c-1.039-1.229-1.846-2.617-2.398-4.126l-11.498-31.357c-2.421-6.602-7.165-12.071-13.357-15.399l-26.96-14.491c-1.573-.845-2.947-1.974-4.085-3.353l-21.053-25.54c-4.417-5.36-10.624-8.934-17.478-10.063l-31.172-5.138c-1.668-.275-3.253-.849-4.711-1.705l-27.426-16.111c-6.022-3.539-13.114-4.759-19.978-3.435l-32.096 6.196c-1.723.333-3.469.333-5.191 0l-32.096-6.196c-6.861-1.324-13.954-.104-19.978 3.434l-27.425 16.113c-1.457.856-3.042 1.43-4.71 1.705l-31.172 5.138c-6.854 1.129-13.061 4.703-17.477 10.062l-21.053 25.539c-1.139 1.38-2.513 2.509-4.086 3.354l-26.959 14.49c-6.193 3.328-10.938 8.797-13.358 15.399l-11.498 31.359c-.553 1.508-1.359 2.896-2.398 4.125l-20.865 24.69c-4.371 5.172-6.778 11.751-6.778 18.524v32.733c0 1.645-.292 3.259-.868 4.799l-11.439 30.578c-2.426 6.485-2.426 13.627 0 20.112l11.438 30.577c.576 1.54.868 3.155.868 4.8v32.732c0 6.773 2.407 13.352 6.778 18.524l20.865 24.691c1.039 1.229 1.846 2.617 2.398 4.126l11.498 31.357c2.421 6.602 7.165 12.071 13.357 15.399l26.96 14.491c1.573.845 2.947 1.974 4.085 3.353l21.053 25.54c4.417 5.36 10.624 8.934 17.478 10.063l31.172 5.138c1.668.275 3.253.849 4.711 1.705l27.425 16.112c6.021 3.54 13.115 4.759 19.978 3.435l32.096-6.196c1.723-.333 3.469-.333 5.191 0l32.096 6.196c1.807.349 3.629.521 5.444.521 5.078 0 10.097-1.349 14.533-3.955l27.426-16.113c1.457-.856 3.042-1.43 4.71-1.705l31.172-5.138c6.854-1.129 13.061-4.703 17.477-10.062l21.053-25.539c1.139-1.38 2.513-2.509 4.086-3.354l26.959-14.49c6.193-3.328 10.938-8.797 13.358-15.399l11.498-31.359c.553-1.508 1.359-2.896 2.398-4.125l20.865-24.69c4.371-5.172 6.778-11.751 6.778-18.524v-32.732c0-1.645.292-3.26.868-4.8l11.438-30.577c2.428-6.487 2.428-13.629.002-20.113zm-14.049 14.855-11.438 30.577c-1.207 3.227-1.819 6.61-1.819 10.056v32.732c0 3.233-1.149 6.374-3.235 8.842l-20.865 24.69c-2.176 2.575-3.866 5.484-5.025 8.645l-11.5 31.357c-1.155 3.152-3.419 5.762-6.375 7.351l-26.96 14.49c-3.295 1.771-6.174 4.134-8.558 7.024l-21.055 25.542c-2.107 2.558-5.069 4.263-8.341 4.802l-31.172 5.138c-3.495.576-6.815 1.778-9.869 3.572l-27.425 16.112c-2.875 1.689-6.261 2.272-9.536 1.639l-32.096-6.196c-3.609-.697-7.27-.697-10.879 0l-32.096 6.196c-3.276.632-6.661.05-9.536-1.639l-27.424-16.112c-3.055-1.794-6.375-2.997-9.87-3.572l-31.172-5.139c-3.271-.539-6.233-2.244-8.342-4.803l-21.055-25.542c-2.383-2.889-5.262-5.252-8.557-7.023l-26.96-14.491c-2.956-1.588-5.22-4.198-6.375-7.35l-11.498-31.356c-1.159-3.162-2.85-6.071-5.025-8.646l-20.865-24.69c-2.086-2.469-3.235-5.609-3.235-8.842v-32.732c0-3.446-.612-6.829-1.819-10.056l-11.438-30.577c-1.158-3.095-1.158-6.504 0-9.6l11.438-30.577c1.207-3.227 1.819-6.61 1.819-10.055v-32.732c0-3.233 1.149-6.374 3.235-8.842l20.865-24.69c2.176-2.575 3.866-5.484 5.025-8.645l11.498-31.357c1.155-3.152 3.419-5.762 6.375-7.351l26.96-14.49c3.295-1.771 6.174-4.134 8.558-7.024l21.055-25.542c2.107-2.558 5.069-4.263 8.341-4.802l31.172-5.138c3.495-.576 6.815-1.778 9.869-3.572l27.425-16.112c2.875-1.688 6.262-2.27 9.536-1.639l32.096 6.195c3.609.697 7.27.697 10.879 0l32.096-6.196c3.273-.633 6.66-.05 9.536 1.639l27.424 16.112c3.055 1.794 6.375 2.997 9.87 3.572l31.172 5.139c3.271.539 6.233 2.244 8.342 4.803l21.055 25.542c2.383 2.889 5.262 5.252 8.557 7.023l26.96 14.491c2.956 1.588 5.22 4.198 6.375 7.35l11.498 31.356c1.159 3.162 2.85 6.071 5.025 8.646l20.865 24.69c2.086 2.469 3.235 5.609 3.235 8.842v32.733c0 3.445.612 6.829 1.819 10.055l11.438 30.577c1.16 3.096 1.16 6.505.002 9.6z"/><path d="m265.103 157.065c0-19.795-17.925-35.9-39.957-35.9s-39.956 16.104-39.956 35.9c0 19.795 17.924 35.899 39.956 35.899s39.957-16.104 39.957-35.899zm-64.914 0c0-11.524 11.195-20.9 24.956-20.9 13.762 0 24.957 9.375 24.957 20.9 0 11.524-11.195 20.899-24.957 20.899-13.76.001-24.956-9.375-24.956-20.899z"/><path d="m153.621 233.754c0 13.767 12.319 24.967 27.462 24.967s27.462-11.2 27.462-24.967-12.319-24.966-27.462-24.966-27.462 11.199-27.462 24.966zm39.924 0c0 5.496-5.591 9.967-12.462 9.967s-12.462-4.471-12.462-9.967 5.591-9.966 12.462-9.966 12.462 4.47 12.462 9.966z"/><path d="m343.311 364.189c0-18.716-16.922-33.942-37.721-33.942s-37.72 15.227-37.72 33.942c0 18.716 16.921 33.943 37.72 33.943s37.721-15.227 37.721-33.943zm-60.441 0c0-10.445 10.192-18.942 22.72-18.942s22.721 8.498 22.721 18.942c0 10.445-10.192 18.943-22.721 18.943-12.527 0-22.72-8.498-22.72-18.943z"/></g></g></svg>