<?xml version="1.0" standalone="no"?>
<!DOCTYPE svg PUBLIC "-//W3C//DTD SVG 20010904//EN"
 "http://www.w3.org/TR/2001/REC-SVG-20010904/DTD/svg10.dtd">
<svg version="1.0" xmlns="http://www.w3.org/2000/svg"
 width="1828.000000pt" height="1030.000000pt" viewBox="0 0 1828.000000 1030.000000"
 preserveAspectRatio="xMidYMid meet">
<metadata>
Created by potrace 1.16, written by Peter Selinger 2001-2019
</metadata>
<g transform="translate(0.000000,1030.000000) scale(0.100000,-0.100000)"
fill="#000000" stroke="none">
<path d="M0 5150 l0 -5150 9140 0 9140 0 0 5150 0 5150 -9140 0 -9140 0 0
-5150z m9488 3352 c35 -3 52 -1 52 7 0 6 18 11 45 11 31 0 45 -4 45 -14 0 -20
79 -31 94 -13 14 18 86 11 86 -8 0 -16 32 -25 93 -25 27 0 63 -6 80 -14 18 -8
100 -33 182 -55 173 -46 337 -102 408 -137 27 -14 87 -36 133 -50 189 -54 393
-181 583 -360 59 -55 70 -62 81 -49 18 22 26 19 75 -26 49 -45 52 -54 30 -79
-14 -15 -11 -20 27 -51 142 -113 293 -283 423 -477 51 -77 73 -101 84 -96 46
19 50 17 78 -41 l28 -57 -22 -15 c-13 -9 -23 -25 -23 -37 0 -12 -13 -35 -29
-50 l-28 -27 36 -84 c32 -74 39 -85 62 -85 42 0 81 -55 119 -164 16 -47 20
-51 47 -49 34 3 48 -18 59 -86 6 -35 4 -39 -20 -45 -18 -4 -26 -13 -26 -27 0
-15 -5 -19 -16 -15 -8 3 -13 2 -10 -3 3 -4 -6 -13 -19 -19 -29 -14 -29 -7 -10
-105 13 -68 45 -310 45 -343 0 -7 15 -15 34 -18 19 -4 36 -13 39 -21 3 -7 18
-15 33 -17 20 -2 30 -11 37 -31 11 -33 0 -108 -13 -87 -12 20 -40 -12 -47 -54
l-5 -34 133 6 c131 5 133 6 175 37 74 57 137 54 201 -7 33 -32 33 -32 248 -52
28 -2 70 -9 95 -15 25 -5 77 -15 115 -21 39 -6 108 -22 155 -35 47 -13 137
-38 200 -55 63 -18 119 -36 125 -41 5 -5 14 -9 21 -9 37 0 367 -161 414 -202
8 -7 20 -12 27 -10 6 1 17 -7 23 -18 6 -12 17 -19 23 -17 7 2 28 -8 47 -23 19
-15 45 -32 58 -39 12 -6 22 -18 22 -26 0 -9 9 -15 21 -15 12 0 23 -8 26 -20 3
-11 9 -20 14 -20 4 0 23 -13 41 -29 18 -15 92 -68 163 -116 159 -107 214 -159
259 -244 134 -258 122 -629 -32 -936 -47 -95 -82 -144 -146 -205 -104 -99
-170 -131 -276 -133 -46 -1 -78 4 -110 19 -59 27 -139 97 -169 148 -14 23 -28
43 -33 44 -4 2 -8 8 -8 13 0 24 -44 100 -55 95 -7 -2 -16 5 -19 17 -5 18 -8
19 -15 8 -5 -8 -7 -20 -4 -28 7 -18 -8 -16 -36 6 -13 10 -32 16 -42 14 -24 -7
-25 -23 -1 -23 24 -1 73 -29 50 -30 -9 0 -20 5 -23 11 -5 6 -13 3 -22 -10 -8
-12 -21 -21 -30 -21 -13 0 -13 3 -3 15 11 13 10 18 -6 30 -27 21 -41 18 -40
-7 1 -19 -5 -23 -34 -25 -31 -1 -33 0 -17 11 25 19 21 23 -18 22 -19 -1 -35
-6 -35 -11 0 -6 -9 -11 -20 -11 -13 0 -20 7 -20 21 0 17 -2 17 -10 5 -8 -12
-12 -12 -18 -2 -8 12 -50 18 -77 12 -23 -5 -34 1 -29 18 5 16 5 16 -9 0 -13
-17 -15 -17 -37 2 -23 20 -54 14 -62 -12 -3 -7 -10 -8 -17 -4 -10 7 -10 10 -1
16 8 5 9 10 1 14 -6 4 -18 -2 -28 -14 -22 -26 -29 -25 -37 2 -4 17 -8 20 -17
11 -9 -9 -15 -8 -27 3 -11 11 -12 18 -3 27 8 8 11 7 11 -4 0 -11 2 -11 8 -1
10 16 45 4 35 -12 -4 -6 0 -5 9 2 21 16 12 46 -10 37 -9 -3 -13 -3 -10 1 4 3
0 13 -8 21 -13 13 -17 13 -34 -7 -11 -13 -20 -31 -20 -42 0 -10 -4 -18 -9 -18
-5 0 -11 -9 -14 -20 -3 -12 -14 -20 -27 -20 -16 0 -20 4 -16 15 3 8 1 15 -3
15 -5 0 -4 11 2 24 6 13 17 22 23 19 8 -3 11 2 7 16 -5 21 -23 29 -23 11 0 -5
-7 -10 -15 -10 -8 0 -15 7 -15 15 0 17 -16 20 -25 4 -4 -6 -13 -8 -21 -5 -8 3
-14 -1 -14 -9 0 -17 -2 -17 -24 -9 -23 9 -19 21 9 28 36 9 32 30 -5 23 -18 -4
-30 -2 -30 4 0 6 5 7 12 3 7 -4 8 -3 4 4 -4 6 -14 8 -22 5 -13 -5 -15 -1 -9
17 5 16 4 20 -5 15 -7 -4 -9 -17 -6 -31 4 -14 2 -24 -5 -24 -6 0 -9 -6 -6 -12
2 -7 10 -12 16 -11 6 2 11 -3 11 -11 0 -9 -7 -12 -20 -9 -11 3 -20 12 -20 20
0 8 -4 11 -10 8 -5 -3 -10 1 -10 10 0 9 4 14 9 10 11 -6 26 33 17 42 -3 4 -6
-1 -6 -9 0 -10 -12 -17 -34 -20 -24 -3 -32 0 -29 9 3 7 9 11 13 8 13 -8 20 10
9 25 -8 13 -11 12 -20 -2 -5 -10 -15 -18 -21 -18 -7 0 -7 4 1 13 6 8 8 17 5
20 -4 4 5 11 20 16 14 6 26 16 26 23 0 10 -2 10 -9 -1 -11 -17 -31 -6 -31 17
-1 16 -2 16 -14 0 -7 -10 -21 -18 -30 -18 -9 0 -16 -5 -16 -11 0 -5 -4 -7 -10
-4 -5 3 2 16 17 29 18 15 23 25 15 30 -7 4 -12 3 -12 -2 0 -6 -7 -13 -16 -16
-15 -6 -15 -4 0 18 20 31 20 28 -4 56 -16 19 -22 21 -35 10 -12 -10 -18 -10
-29 -1 -15 12 -87 11 -96 -1 -3 -4 -12 -3 -19 1 -10 7 -8 10 8 16 15 4 20 12
17 22 -3 8 -6 21 -6 29 0 20 -18 17 -23 -3 -3 -13 -5 -11 -6 6 -1 16 -5 21
-16 17 -9 -3 -15 0 -15 10 0 12 -4 13 -21 3 -17 -9 -20 -8 -17 3 2 7 17 19 31
26 16 8 27 21 27 33 0 11 -4 18 -9 15 -5 -4 -11 -1 -13 6 -3 7 -9 8 -18 3 -10
-6 -9 -11 5 -21 22 -16 20 -19 -18 -28 -26 -6 -28 -5 -22 16 6 18 5 20 -5 11
-7 -6 -19 -9 -26 -6 -22 8 -16 -13 9 -30 19 -14 19 -16 4 -16 -10 -1 -20 6
-23 14 -4 8 -12 15 -20 15 -8 0 -14 3 -14 8 1 17 16 30 34 29 30 -3 43 27 26
59 -14 26 -15 26 -18 6 -3 -18 -8 -21 -27 -16 -16 4 -24 1 -27 -10 -2 -10 -8
-13 -17 -7 -11 7 -9 13 8 30 11 11 26 21 33 21 6 0 8 3 5 6 -6 6 -17 8 -66 13
-11 1 -11 4 -1 16 7 9 10 18 6 22 -3 3 -6 1 -6 -5 0 -7 -7 -12 -15 -12 -8 0
-15 -6 -15 -12 0 -10 -2 -10 -8 0 -5 7 -16 10 -25 7 -11 -5 -14 -2 -11 12 3
11 -5 28 -20 42 -26 24 -26 24 -26 3 0 -28 -15 -35 -31 -15 -11 13 -11 15 -1
9 10 -6 11 -1 6 20 -6 25 -5 27 20 22 29 -6 32 -3 13 17 -9 8 -19 10 -27 5 -9
-6 -22 -1 -38 16 -14 13 -29 21 -34 18 -6 -4 -14 0 -19 7 -12 19 -11 32 1 24
6 -3 10 1 10 9 0 9 -7 16 -17 16 -14 0 -14 2 2 20 10 12 26 18 34 15 12 -4 12
-2 -1 9 -20 15 -25 78 -7 73 6 -1 14 4 17 12 3 11 -1 12 -19 8 -13 -4 -30 -7
-36 -7 -7 0 -13 -5 -13 -11 0 -5 5 -7 10 -4 6 3 10 1 10 -5 0 -8 -9 -10 -25
-6 -14 4 -25 2 -25 -4 0 -16 -26 -12 -41 6 -12 15 -11 16 10 9 17 -5 21 -4 16
5 -5 7 -1 11 11 10 33 -3 64 12 62 29 -3 19 -29 41 -40 35 -9 -6 -11 10 -2 19
4 3 13 0 21 -8 19 -19 37 -19 30 -1 -6 16 19 15 150 -4 81 -13 119 -1 141 42
21 42 53 130 48 135 -6 6 -49 -17 -58 -31 -6 -8 -11 -6 -17 4 -9 12 -11 12
-17 -4 -6 -17 -8 -17 -16 -2 -8 14 -12 15 -25 4 -14 -11 -16 -10 -10 14 4 15
3 30 -3 33 -5 3 -10 2 -10 -3 0 -6 -9 -8 -21 -5 -12 3 -18 11 -15 19 4 9 -2
14 -16 14 -25 0 -58 27 -58 47 0 11 -6 11 -34 -1 -31 -13 -36 -13 -47 1 -10
12 -10 16 0 22 8 5 1 8 -18 7 -17 -1 -31 -4 -31 -8 0 -4 -20 -6 -44 -3 -33 3
-48 0 -60 -14 -9 -10 -30 -74 -46 -142 -26 -107 -93 -323 -120 -384 -5 -11
-20 -46 -34 -79 -31 -70 -31 -71 -6 -103 11 -14 20 -36 20 -49 0 -14 8 -25 20
-29 27 -9 25 -33 -6 -79 -22 -32 -29 -37 -38 -25 -17 23 -42 12 -70 -31 -14
-22 -26 -42 -26 -45 0 -3 -34 -58 -77 -123 -119 -182 -282 -373 -433 -507 -75
-66 -148 -125 -155 -125 -4 0 -20 -11 -37 -25 -16 -14 -39 -25 -50 -25 -12 0
-18 -3 -14 -7 6 -6 -26 -26 -134 -80 -19 -10 -36 -21 -38 -25 -2 -4 -10 -4
-18 -1 -8 3 -14 1 -14 -5 0 -5 -12 -13 -27 -16 -38 -9 -123 -49 -123 -58 0 -4
-7 -5 -15 -2 -20 8 -19 -5 1 -28 14 -14 19 -15 28 -5 6 7 40 26 76 42 36 17
95 47 133 67 89 48 76 31 -30 -40 -162 -109 -190 -125 -203 -117 -5 3 -33 -4
-62 -15 -29 -11 -54 -20 -54 -20 -10 0 -12 55 -3 66 7 9 8 14 1 14 -6 0 -14
-5 -17 -10 -4 -7 -14 -5 -27 4 -11 8 -28 12 -37 9 -9 -4 -13 -3 -9 2 4 4 3 14
-3 21 -7 9 -2 17 20 30 51 30 45 41 -18 32 -204 -29 -387 -20 -585 28 -55 13
-101 22 -104 20 -2 -3 -6 -23 -9 -45 -6 -42 -20 -62 -32 -44 -10 17 -51 35
-51 23 0 -5 4 -10 9 -10 10 0 20 -23 27 -58 4 -22 2 -23 -33 -16 -21 4 -40 8
-42 10 -2 2 -13 -2 -25 -8 -34 -19 -44 -17 -51 9 -4 16 0 31 10 42 8 10 15 23
15 30 0 8 6 11 15 7 8 -3 15 -1 15 5 0 5 -13 12 -29 15 -20 4 -28 11 -24 20 3
9 -2 14 -15 14 -11 0 -25 7 -33 16 -8 9 -21 13 -35 10 -19 -5 -22 -3 -17 11 4
11 3 14 -5 9 -7 -4 -15 0 -18 9 -5 12 -9 13 -14 4 -6 -8 -11 -6 -19 9 -7 14
-17 19 -29 16 -14 -5 -14 -4 -2 5 8 5 12 11 10 13 -19 13 -88 42 -102 43 -9 0
-20 4 -25 8 -4 5 -3 8 2 7 22 -5 26 1 11 15 -19 19 -24 19 -29 -2 -3 -10 -6
-2 -7 17 l-2 35 -8 -30 c-6 -25 -8 -26 -9 -7 0 13 -5 20 -11 17 -5 -3 -10 1
-10 10 0 9 -4 13 -10 10 -5 -3 -10 -1 -10 4 0 6 -10 11 -22 11 -15 0 -19 3
-11 8 19 12 5 82 -15 75 -8 -4 -13 -2 -10 3 3 5 -4 17 -17 26 -22 17 -23 16
-18 0 2 -10 0 -30 -6 -45 -8 -20 -17 -27 -38 -27 -21 0 -24 -3 -14 -9 10 -6
-1 -8 -30 -4 -45 6 -92 33 -56 33 10 0 15 5 12 11 -4 6 -13 8 -21 5 -10 -4
-14 4 -14 32 -1 33 -2 35 -14 20 -23 -32 -46 -16 -46 32 0 25 -20 30 -52 14
-23 -12 -29 -12 -42 1 -21 22 -28 19 -24 -12 2 -20 8 -28 21 -27 9 1 17 -4 17
-12 0 -10 -6 -11 -25 -4 -14 5 -32 7 -42 3 -13 -5 -15 -2 -10 11 4 10 3 15 -3
11 -6 -3 -10 1 -10 9 0 9 5 16 10 16 6 0 10 8 10 18 0 12 -8 18 -25 20 -28 2
-43 -20 -47 -66 -1 -17 -6 -28 -10 -26 -4 3 -8 -7 -7 -23 0 -25 1 -26 9 -8 7
17 9 17 9 3 1 -10 7 -18 14 -18 9 0 9 -2 -1 -8 -16 -10 -5 -42 14 -42 8 0 14
-4 14 -10 0 -5 8 -7 18 -4 13 5 14 4 3 -4 -16 -11 -7 -32 15 -32 13 0 18 -12
15 -32 0 -4 7 -4 16 -1 12 5 15 2 10 -10 -3 -9 -3 -17 1 -17 5 0 27 -18 50
-40 22 -22 49 -40 59 -41 16 0 16 -1 -2 -9 -19 -8 -19 -9 3 -9 12 -1 22 -5 22
-11 0 -5 15 -16 33 -24 19 -9 25 -15 15 -15 -10 -1 -18 -6 -18 -12 0 -6 6 -9
13 -6 14 5 68 -22 80 -40 4 -7 14 -13 20 -13 12 0 30 -33 48 -88 6 -19 4 -22
-17 -22 -14 0 -27 6 -30 14 -3 8 -12 12 -20 9 -13 -5 -20 14 -15 40 1 5 -3 6
-8 2 -15 -9 -62 6 -54 18 3 6 1 7 -5 3 -7 -4 -21 2 -33 13 -20 18 -20 20 -2
31 17 11 17 11 -2 5 -11 -4 -22 -7 -25 -8 -3 -1 -22 8 -43 21 -31 18 -37 26
-32 45 5 17 4 19 -5 7 -9 -13 -13 -12 -29 8 -11 12 -26 22 -34 22 -17 0 -40
24 -31 33 3 3 -4 8 -15 12 -12 3 -21 13 -21 21 0 8 -5 14 -10 14 -14 0 -120
107 -113 113 2 3 -5 8 -16 12 -12 3 -21 12 -21 20 0 7 -12 18 -27 23 -20 8
-23 11 -9 11 15 1 11 8 -20 36 -21 19 -43 35 -48 35 -6 0 -2 7 8 15 19 15 19
15 -2 15 -12 0 -22 5 -22 10 0 6 -9 10 -20 10 -10 0 -24 8 -29 18 -6 9 -11 14
-11 10 0 -4 -12 -3 -27 3 -19 7 -28 7 -34 -3 -4 -7 -11 -9 -16 -5 -4 5 -2 12
5 16 10 6 10 10 -2 20 -14 12 -32 -1 -23 -16 3 -5 -6 -8 -19 -8 -13 0 -24 4
-24 9 0 4 -6 6 -13 3 -8 -3 -20 -1 -28 4 -10 6 -10 9 -1 9 6 0 12 4 12 9 0 5
-17 8 -37 6 -31 -3 -34 -2 -15 5 20 8 21 12 10 32 -21 37 -51 58 -65 46 -7 -6
-13 -16 -13 -22 0 -7 3 -7 8 -1 12 16 32 16 32 0 0 -8 -5 -15 -11 -15 -5 0 -7
-4 -4 -10 3 -5 -1 -10 -9 -10 -8 0 -18 10 -22 22 -3 12 -12 28 -20 35 -14 15
-38 18 -30 4 3 -5 3 -23 0 -40 -5 -25 -9 -29 -20 -20 -8 6 -14 8 -14 3 0 -5
-7 -1 -14 9 -9 12 -16 14 -21 8 -3 -6 -14 -11 -23 -11 -12 0 -9 7 13 24 17 13
27 28 23 32 -5 4 -8 2 -8 -4 0 -6 -7 -9 -15 -6 -12 5 -13 10 -4 20 6 8 9 14 6
14 -3 0 -12 3 -20 6 -10 3 -17 -2 -20 -13 -3 -12 -5 -9 -6 9 -1 20 -6 26 -21
25 -11 -1 -20 -5 -20 -10 0 -13 -30 -40 -37 -33 -4 3 2 13 13 22 18 15 18 15
-3 11 -13 -3 -23 -1 -23 4 0 14 -30 11 -31 -3 0 -10 -2 -10 -6 0 -6 14 -33 16
-33 2 0 -13 -36 -13 -61 0 -13 7 -19 7 -19 0 0 -13 -27 -13 -32 0 -1 5 -39 12
-83 15 -44 3 -82 10 -83 16 -3 6 -10 5 -19 -2 -9 -8 -17 -9 -21 -3 -8 10 -28
14 -79 15 -18 1 -33 5 -33 11 0 5 -4 7 -9 4 -11 -7 -23 22 -15 35 3 5 0 9 -5
9 -6 0 -11 7 -11 15 0 12 -4 13 -25 3 -26 -12 -31 -23 -16 -33 6 -3 14 3 20
12 9 16 10 14 11 -9 0 -33 2 -32 -40 -14 -21 8 -28 16 -21 21 7 4 10 13 7 21
-5 13 6 19 28 15 4 -1 14 6 21 16 13 17 14 17 20 0 5 -13 11 -15 20 -7 9 7 21
7 39 0 31 -11 86 -2 86 15 0 11 25 27 61 38 9 3 19 15 22 26 3 12 1 19 -4 15
-5 -3 -9 2 -9 11 0 8 -7 18 -15 21 -8 4 -12 11 -8 18 3 7 1 6 -7 -1 -12 -11
-11 -16 6 -29 13 -11 15 -17 6 -20 -6 -3 -10 -10 -7 -14 3 -5 0 -12 -6 -16 -9
-5 -10 0 -6 16 3 13 0 28 -9 37 -10 10 -12 27 -9 56 3 22 2 38 -1 34 -4 -3 -8
-17 -9 -29 -1 -13 -3 -27 -4 -33 -2 -13 -41 46 -41 63 0 6 4 12 10 12 5 0 9
-3 9 -7 -3 -17 1 -46 6 -42 2 3 7 23 10 45 3 21 2 35 -2 29 -14 -18 -56 -11
-64 10 -13 35 -10 63 9 68 11 3 7 5 -10 6 -14 0 -28 -4 -30 -11 -3 -7 -12 -9
-24 -4 -18 7 -18 8 6 27 l25 20 -27 -7 c-15 -3 -35 -1 -45 6 -16 10 -16 11 5
6 18 -3 22 -1 18 11 -3 8 -6 22 -6 30 0 9 -3 13 -6 10 -7 -7 -44 30 -44 45 0
4 11 6 25 2 15 -4 25 -2 25 4 0 6 -13 13 -30 17 -16 4 -32 11 -35 16 -4 5 -15
9 -26 9 -10 0 -19 4 -19 8 0 5 32 5 71 1 41 -5 81 -4 96 2 13 5 29 7 34 4 14
-9 79 -12 79 -3 0 4 7 5 15 2 8 -4 15 -1 15 5 0 8 -14 9 -42 5 -29 -5 -39 -4
-34 4 4 7 -3 14 -19 18 -17 4 -24 11 -21 21 5 11 1 13 -16 7 -20 -6 -21 -5 -9
10 7 9 11 26 9 39 -4 21 -1 24 29 24 18 0 33 -5 33 -10 0 -5 6 -4 14 2 8 7 16
8 19 4 3 -4 38 -6 79 -3 85 6 84 5 60 120 -7 36 -24 144 -38 240 -22 159 -38
217 -51 182 -3 -6 -9 -10 -14 -6 -5 3 -9 0 -9 -6 0 -6 -7 -18 -15 -26 -8 -9
-15 -28 -15 -44 0 -20 -6 -31 -21 -35 -11 -4 -18 -9 -15 -13 8 -8 -24 -42 -41
-42 -7 0 -13 -5 -13 -10 0 -6 -15 -19 -32 -30 -18 -11 -29 -20 -25 -20 5 0 1
-7 -7 -16 -9 -8 -20 -12 -26 -9 -6 4 -10 3 -9 -2 3 -19 -2 -34 -9 -29 -5 3
-15 -6 -22 -19 -15 -27 -30 -31 -48 -13 -9 9 -12 7 -12 -10 0 -19 -4 -21 -26
-16 -19 5 -25 4 -20 -5 4 -6 2 -11 -3 -11 -6 0 -11 6 -11 12 0 7 -7 2 -16 -10
-15 -22 -34 -22 -34 1 0 7 4 6 10 -3 8 -12 10 -10 10 8 0 13 -4 21 -9 17 -5
-3 -10 7 -9 22 0 16 -7 44 -16 63 -12 29 -15 31 -16 12 0 -12 -6 -32 -12 -44
-19 -33 -119 -128 -134 -128 -5 0 -26 -16 -46 -35 -20 -19 -41 -35 -47 -35 -6
0 -11 -5 -11 -10 0 -6 -10 -15 -22 -21 -28 -12 -75 -46 -108 -79 -26 -25 -61
-53 -101 -80 -12 -8 -49 -36 -83 -62 l-61 -47 -1 -87 -1 -87 -44 -38 c-24 -21
-56 -44 -71 -51 -15 -7 -25 -15 -22 -19 2 -4 -5 -10 -16 -14 -11 -3 -20 -11
-20 -17 0 -6 49 -61 108 -122 98 -101 197 -231 247 -328 10 -20 22 -35 26 -32
12 7 32 -25 25 -41 -6 -18 3 -47 14 -40 4 2 18 -7 31 -21 19 -20 21 -28 12
-43 -14 -22 -2 -44 19 -36 20 8 32 -23 16 -42 -10 -13 -8 -19 10 -33 12 -10
22 -29 22 -44 0 -16 6 -26 15 -26 14 0 20 -17 16 -47 -1 -7 5 -13 13 -13 9 0
18 -12 22 -27 3 -16 23 -66 44 -113 118 -259 131 -538 39 -826 -110 -345 -385
-650 -683 -759 -39 -15 -82 -31 -96 -37 -38 -17 -102 -23 -240 -22 -157 0
-251 24 -377 96 -90 52 -215 158 -242 205 -9 17 -11 17 -25 -2 -14 -17 -17
-18 -26 -5 -13 19 -13 33 0 25 6 -3 10 -1 10 4 0 6 -4 11 -8 11 -15 0 -30 -22
-25 -36 4 -10 0 -12 -11 -8 -11 4 -16 1 -16 -11 0 -12 -5 -15 -16 -11 -9 3
-19 6 -24 6 -5 0 -12 9 -15 21 -7 21 -7 21 -32 -3 -13 -12 -28 -22 -31 -22 -4
1 -6 -3 -4 -9 2 -6 -4 -5 -12 3 -9 7 -16 20 -16 28 0 13 -3 13 -12 4 -10 -10
-10 -15 1 -21 8 -5 11 -16 8 -25 -9 -22 -30 -20 -23 2 4 13 1 19 -9 19 -8 0
-15 -4 -15 -8 0 -5 -8 -5 -17 -2 -15 6 -14 7 3 14 18 7 18 7 0 14 -11 5 -21 3
-25 -4 -4 -6 -20 -14 -34 -17 -23 -4 -27 -1 -27 18 -1 21 -2 21 -11 6 -5 -10
-14 -18 -19 -18 -5 0 -10 8 -13 18 -3 14 -4 13 -4 -3 -1 -39 -3 -45 -14 -45
-6 0 -9 7 -6 15 10 24 -9 26 -33 2 -19 -16 -22 -18 -17 -4 3 9 2 17 -3 17 -6
0 -10 -4 -10 -10 0 -5 -10 -10 -22 -9 -13 0 -17 3 -10 6 21 8 13 23 -13 23
-18 0 -25 -5 -25 -20 0 -11 5 -20 10 -20 22 0 8 -16 -16 -18 -25 -2 -26 0 -20
36 3 20 3 31 -1 23 -5 -11 -7 -11 -14 0 -7 11 -9 10 -9 -4 0 -11 -5 -15 -11
-11 -6 3 -15 1 -19 -6 -5 -8 -9 -5 -13 9 -4 16 0 21 14 21 10 0 19 4 19 9 0
11 -14 9 -52 -7 -31 -13 -38 -32 -12 -32 13 0 14 -3 4 -15 -7 -8 -16 -12 -21
-9 -5 3 -9 -3 -10 -13 0 -10 -3 -13 -6 -5 -2 6 -11 12 -19 12 -9 0 -13 4 -10
9 11 18 -5 41 -22 32 -10 -6 -21 -4 -31 6 -12 12 -16 13 -19 3 -5 -15 27 -42
39 -34 5 3 9 1 9 -5 0 -21 -23 -22 -45 -1 -14 13 -31 20 -39 17 -11 -4 -16 0
-16 12 0 12 -9 20 -25 23 -27 6 -30 1 -16 -21 5 -8 14 -10 22 -5 9 5 7 -2 -4
-20 -20 -29 -14 -52 6 -26 15 20 48 14 40 -6 -4 -11 -9 -12 -19 -3 -9 7 -14 7
-14 1 0 -5 -8 -12 -19 -15 -14 -3 -22 4 -32 29 -13 35 -23 42 -35 23 -3 -6 0
-15 7 -20 8 -5 9 -9 4 -9 -23 0 -32 22 -24 58 4 20 5 41 1 46 -4 6 -9 -2 -12
-19 -4 -25 -10 -30 -35 -30 -20 0 -30 5 -30 15 0 9 -9 14 -23 13 -14 -2 -22 3
-22 12 0 8 -7 15 -15 15 -13 0 -14 -4 -5 -20 9 -16 8 -22 -5 -26 -21 -9 -28
-1 -30 38 -2 38 -14 70 -24 64 -4 -3 -13 -1 -21 4 -11 7 -11 11 -1 24 15 18 1
22 -16 5 -12 -12 -6 -49 8 -49 5 0 10 -8 10 -17 1 -17 2 -17 6 0 2 9 9 15 14
12 10 -7 13 -55 3 -55 -8 0 -34 27 -34 35 0 4 -7 13 -15 21 -13 14 -15 13 -15
-5 0 -12 5 -21 11 -21 5 0 8 -4 5 -9 -3 -5 -18 -9 -33 -9 -24 0 -25 2 -10 13
27 19 20 25 -25 20 -46 -4 -114 27 -102 47 4 7 2 8 -4 4 -7 -4 -12 0 -13 11 0
11 -3 13 -6 5 -3 -7 3 -25 13 -40 13 -20 13 -24 2 -15 -8 7 -19 9 -23 5 -5 -4
-6 -2 -2 3 3 6 1 26 -4 45 l-8 35 3 -33 c1 -18 -1 -35 -6 -38 -7 -5 -12 10 -9
29 1 5 -3 6 -8 3 -5 -3 -20 7 -33 23 -15 17 -46 35 -79 46 -30 10 -58 21 -64
26 -5 5 -17 9 -27 9 -11 0 -33 8 -51 17 -18 9 -36 16 -41 15 -4 -2 -14 2 -20
8 -7 5 -16 7 -19 3 -4 -3 -7 -1 -7 6 0 7 -3 10 -7 8 -5 -3 -24 4 -43 15 l-35
20 30 -6 c22 -5 26 -4 15 4 -11 7 -11 10 -2 10 7 0 10 5 6 11 -4 7 -9 7 -13 2
-10 -16 -51 -22 -64 -10 -6 7 -34 23 -61 37 -33 16 -52 34 -58 52 -10 27 -28
39 -28 18 0 -7 -7 -7 -20 0 -11 6 -17 16 -14 22 4 7 3 8 -4 4 -7 -4 -17 -4
-24 0 -8 5 -6 10 8 15 15 7 12 8 -11 6 -18 -1 -30 3 -30 11 0 6 -2 11 -5 10
-3 -2 -19 10 -37 26 -27 24 -30 32 -22 54 7 18 6 28 -2 36 -9 8 -11 7 -7 -4 3
-8 2 -24 -3 -35 -7 -18 -8 -17 -8 7 -1 15 -6 30 -13 34 -8 5 -9 2 -5 -9 3 -10
2 -17 -2 -17 -13 0 -21 27 -15 45 4 9 0 15 -10 15 -9 0 -16 5 -16 12 0 9 -3 9
-11 1 -15 -15 1 -40 77 -122 124 -134 330 -259 574 -346 109 -40 171 -76 189
-110 21 -40 36 -59 104 -135 15 -17 27 -37 27 -45 0 -8 8 -15 17 -15 13 0 14
-3 5 -12 -7 -7 -12 -18 -12 -25 0 -11 5 -11 21 -2 17 8 24 8 34 -3 11 -11 9
-16 -11 -31 -17 -13 -22 -14 -18 -4 3 9 -4 17 -19 21 -16 4 -27 16 -31 32 -6
21 -11 25 -31 20 -17 -4 -25 -1 -29 11 -8 26 -52 74 -60 66 -3 -3 -6 0 -6 8
-1 17 -55 77 -92 101 -23 15 -27 15 -32 2 -3 -9 -11 -12 -18 -8 -9 6 -9 9 0
12 18 6 -5 32 -27 32 -9 0 -29 7 -45 15 -15 8 -37 15 -47 15 -10 0 -20 4 -23
9 -4 5 -29 15 -56 22 -28 7 -50 16 -50 21 0 4 -7 8 -15 8 -8 0 -15 3 -15 8 0
4 -21 18 -48 32 -26 13 -73 41 -104 62 -31 21 -62 38 -67 38 -6 0 -11 4 -11 8
0 5 -18 21 -40 38 -90 66 -220 258 -220 324 0 29 4 40 15 40 8 0 15 5 15 10 0
6 -7 10 -16 10 -8 0 -13 4 -10 9 3 4 -4 26 -15 47 -13 26 -18 31 -14 14 4 -19
1 -17 -13 10 -26 47 -37 84 -23 76 7 -4 9 -1 5 8 -3 9 -11 14 -17 13 -5 -1
-14 12 -18 28 -4 17 -24 76 -43 132 -48 139 -66 249 -73 437 -5 147 -8 161
-28 180 -12 12 -25 29 -28 39 -4 11 -16 21 -27 24 -11 3 -20 8 -20 12 0 3 -14
20 -30 38 -17 18 -30 38 -30 45 0 10 -2 10 -9 -1 -5 -8 -16 -11 -26 -8 -9 4
-14 11 -10 16 3 5 1 13 -5 16 -8 5 -7 11 1 21 9 11 6 16 -15 24 -14 5 -26 15
-26 22 0 9 -3 9 -11 -2 -8 -11 -12 -12 -16 -2 -2 6 -17 13 -31 13 -17 1 -21 3
-9 6 22 6 12 23 -14 23 -11 0 -19 7 -19 16 0 11 -6 14 -20 9 -14 -5 -20 -2
-20 10 0 10 -5 13 -12 9 -8 -5 -9 -2 -5 10 5 14 3 17 -8 12 -8 -3 -15 -1 -15
5 0 6 -5 7 -10 4 -5 -3 -10 2 -10 12 0 15 -2 16 -10 3 -8 -12 -11 -11 -16 8
-5 18 -9 21 -16 10 -7 -10 -11 -10 -15 0 -2 6 -17 12 -31 13 -24 0 -25 1 -7 9
15 7 16 9 4 9 -9 1 -22 7 -28 15 -7 8 -26 18 -42 21 -16 4 -29 13 -29 21 0 17
-20 19 -20 2 0 -7 -5 -5 -11 5 -5 9 -18 17 -28 17 -11 0 -22 8 -25 17 -5 12
-9 14 -18 5 -17 -17 -31 -15 -24 3 3 9 0 15 -8 15 -8 0 -17 6 -19 13 -4 9 -8
8 -16 -3 -8 -12 -11 -12 -11 -1 0 8 -6 11 -15 7 -11 -4 -17 3 -22 24 -3 17 -9
30 -14 30 -5 0 -6 -6 -3 -13 3 -8 -2 -14 -10 -14 -8 0 -13 4 -10 9 3 4 -2 8
-11 8 -9 0 -14 4 -11 9 3 5 -1 11 -9 15 -11 4 -15 23 -15 79 0 62 5 83 30 135
54 107 163 180 284 189 66 5 80 1 339 -91 230 -82 455 -123 637 -114 l96 5 65
50 c293 230 650 366 1059 403 69 6 145 18 170 26 25 8 78 18 119 22 l74 7 30
90 c27 79 37 97 86 146 66 65 119 85 209 76 103 -9 170 -59 247 -183 l40 -65
91 -4 90 -4 45 91 c44 91 45 92 144 162 133 94 210 172 283 286 102 158 87
146 243 213 62 27 196 146 205 181 3 12 -5 47 -16 77 -28 69 -24 180 10 251
26 56 99 126 138 134 20 4 35 19 55 54 15 26 46 70 71 96 43 49 57 76 62 124
2 14 4 32 5 40 5 36 -2 58 -21 63 -19 5 -19 8 11 89 25 70 28 86 17 106 -11
20 -1 44 89 225 93 185 193 346 263 422 15 17 44 56 65 88 29 44 42 56 56 52
14 -5 51 27 156 132 200 200 455 400 578 453 61 26 181 60 213 60 30 0 282
112 347 154 92 59 203 104 335 135 116 28 342 59 478 67 61 4 112 11 112 15 0
10 41 18 60 11 8 -2 39 -7 68 -10z m-8971 -3084 c13 -12 23 -26 23 -32 0 -5
-67 -77 -150 -161 l-150 -151 141 -139 c77 -77 145 -148 151 -158 7 -15 5 -24
-13 -43 -12 -13 -27 -24 -34 -24 -13 0 -365 352 -365 365 0 12 352 365 364
365 5 0 20 -10 33 -22z m6870 -1900 c6 -5 12 -5 15 1 1 5 55 -8 118 -29 100
-34 117 -37 130 -24 10 10 11 14 2 14 -23 0 -12 16 14 18 14 1 23 -2 20 -6 -3
-5 4 -16 15 -25 18 -16 19 -16 19 3 0 11 7 20 15 20 8 0 15 -7 15 -15 0 -8 6
-15 14 -15 8 0 17 -8 21 -17 6 -17 7 -17 20 1 13 17 15 18 21 2 6 -15 7 -15
20 1 12 17 13 17 10 -1 -4 -27 33 -66 61 -66 14 0 21 -4 18 -10 -3 -5 2 -10
12 -10 15 0 16 -2 3 -10 -8 -5 -10 -10 -4 -10 5 0 24 -13 41 -30 17 -16 46
-36 64 -45 19 -8 29 -14 22 -15 -7 0 -10 -6 -7 -14 3 -7 -1 -20 -10 -28 -9
-10 -11 -20 -5 -29 7 -12 11 -11 26 4 11 11 13 17 5 17 -7 0 -10 5 -6 11 9 16
25 -11 18 -33 -5 -16 10 -35 114 -145 44 -47 49 -58 32 -68 -6 -4 -7 -11 -4
-17 5 -7 12 -4 21 7 14 20 18 9 5 -13 -5 -7 -16 -10 -24 -7 -9 4 -19 2 -23 -4
-3 -6 -2 -11 3 -11 17 0 20 -25 5 -39 -12 -11 -14 -10 -11 5 2 13 -4 20 -19
22 -13 2 -23 -2 -23 -8 0 -7 8 -9 23 -5 17 6 19 5 10 -5 -6 -7 -9 -19 -6 -28
4 -10 1 -13 -8 -10 -11 4 -49 -26 -49 -38 0 -2 8 -1 18 2 14 5 14 3 -3 -11
-13 -10 -16 -18 -9 -23 6 -4 14 -18 18 -32 3 -14 3 -19 0 -12 -3 6 -10 12 -15
12 -6 0 -7 -5 -3 -12 5 -7 3 -8 -5 -3 -7 4 -11 16 -8 26 3 11 1 19 -4 19 -4 0
-6 7 -3 15 4 8 1 15 -5 15 -8 0 -10 -17 -6 -50 l5 -50 -25 16 c-14 9 -28 14
-32 10 -3 -3 -1 -6 5 -6 7 0 11 -6 9 -12 -1 -7 4 -12 11 -11 6 2 12 -1 12 -6
0 -6 -9 -9 -20 -8 -11 1 -20 5 -20 9 0 4 -11 18 -24 31 -14 14 -22 28 -19 31
4 3 -1 6 -10 6 -8 0 -17 3 -19 8 -4 9 -120 109 -173 147 -160 119 -396 253
-509 289 -11 4 -16 12 -12 21 3 9 -1 15 -10 15 -10 0 -14 -6 -10 -15 10 -27
-2 -16 -18 16 -12 24 -13 34 -3 50 6 10 15 19 19 19 5 0 8 5 8 11 0 6 -8 8
-17 5 -16 -5 -15 -4 1 9 10 8 23 16 28 17 6 2 10 20 10 41 0 39 14 59 24 33
11 -30 25 -16 20 19 -4 20 -2 35 4 35 6 0 10 8 9 18 0 10 -3 12 -6 5 -2 -7
-12 -13 -21 -13 -14 0 -14 2 -3 9 7 5 11 13 7 19 -7 12 33 4 51 -10z m155
-521 c-2 -12 4 -17 20 -16 17 1 19 2 5 6 -9 2 -15 9 -12 14 11 17 60 -4 95
-41 19 -21 41 -35 49 -32 9 3 11 0 6 -8 -6 -10 -4 -12 8 -7 10 3 17 2 17 -4 0
-5 10 -14 23 -19 20 -8 20 -9 2 -10 -16 -1 -14 -4 10 -15 17 -7 25 -14 18 -14
-13 -1 -5 -41 8 -41 5 0 9 -6 9 -14 0 -8 9 -18 20 -21 21 -7 28 -25 10 -25 -5
0 -10 5 -10 11 0 6 -10 9 -22 7 -15 -2 -22 -9 -20 -19 1 -9 -5 -19 -14 -23
-14 -5 -14 -7 0 -22 20 -19 21 -38 2 -31 -8 3 -17 1 -20 -6 -2 -7 -5 -1 -5 13
-1 20 -3 22 -11 10 -9 -13 -10 -13 -10 0 0 8 -21 28 -48 44 -26 17 -65 44 -87
62 -22 17 -64 44 -92 59 -29 16 -53 32 -53 37 0 4 -9 8 -19 8 -11 0 -23 5 -26
10 -3 6 -16 10 -28 11 -12 0 -16 3 -9 6 6 2 12 11 12 19 0 9 4 13 9 10 11 -7
34 20 27 33 -8 13 20 21 32 9 14 -14 85 -1 76 13 -4 7 1 9 12 7 11 -2 18 -11
16 -21z m3125 -145 c11 -13 8 -18 -20 -30 -17 -8 -36 -15 -42 -16 -5 -1 -16
-5 -22 -9 -46 -29 -243 -83 -358 -98 -113 -14 -313 -19 -385 -9 -87 13 -142
21 -185 29 -22 4 -66 6 -97 5 -32 -1 -58 2 -58 7 0 5 -12 6 -27 3 -21 -6 -25
-4 -20 8 3 9 1 20 -5 26 -6 6 0 8 19 6 15 -2 20 -1 11 2 -24 7 -22 19 5 31 25
12 43 12 40 1 -2 -5 1 -8 6 -8 5 0 11 8 13 17 3 15 4 15 21 -1 12 -13 17 -14
17 -4 0 10 11 12 40 10 22 -2 43 -8 45 -13 3 -4 16 -4 30 1 15 6 25 5 27 -1 2
-6 28 -13 58 -16 96 -9 400 -11 406 -2 3 5 10 7 15 3 5 -3 15 -2 22 3 7 4 35
8 62 8 28 0 53 5 57 10 4 6 29 10 55 11 26 0 55 3 63 6 60 23 64 24 97 32 15
3 27 -1 34 -12 9 -15 10 -14 6 5 -4 20 -2 22 27 16 17 -3 37 -13 43 -21z"/>
<path d="M10500 7689 c-399 -48 -794 -286 -1089 -654 -132 -165 -211 -288
-305 -478 -153 -308 -259 -671 -297 -1017 -21 -189 -16 -547 10 -725 105 -717
422 -1254 911 -1543 110 -66 293 -132 430 -157 79 -14 300 -17 381 -6 522 75
967 412 1321 1001 203 337 329 723 378 1160 14 121 14 446 0 570 -15 137 -47
309 -80 430 -155 568 -419 969 -807 1222 -244 159 -562 233 -853 197z"/>
<path d="M6820 6108 c-21 -9 -22 -12 -7 -15 23 -6 22 -23 -3 -23 -11 0 -20 -6
-20 -14 0 -15 -27 -25 -75 -27 -22 -2 -18 -4 15 -8 l45 -6 -3 -45 -4 -45 44
46 c24 25 59 51 78 58 19 7 58 22 85 33 73 28 133 33 216 15 41 -8 115 -23
164 -32 50 -9 107 -20 129 -25 21 -5 45 -6 52 -3 10 4 12 0 8 -11 -4 -11 2
-19 20 -26 28 -10 31 -17 17 -39 -7 -11 -30 -13 -114 -8 -74 4 -108 2 -116 -6
-9 -9 -11 -9 -6 3 4 11 -2 15 -22 16 -16 1 -22 -1 -15 -3 18 -7 15 -31 -4 -29
-9 0 -19 -4 -21 -10 -4 -12 38 -11 58 2 8 4 9 3 5 -5 -5 -7 -9 -49 -11 -94 -2
-45 -8 -124 -15 -175 -6 -51 -9 -100 -6 -108 10 -25 59 -15 111 22 88 62 97
68 139 99 l40 31 18 122 c10 72 14 132 9 145 -5 12 -4 29 2 38 28 45 -3 55
-278 94 -310 44 -485 55 -535 33z"/>
<path d="M4898 4890 c-73 -13 -112 -58 -142 -164 -18 -62 -16 -86 8 -86 8 0
19 -6 23 -14 7 -12 219 -56 269 -56 7 0 20 15 29 34 9 19 25 42 36 52 10 9 19
22 19 28 0 20 -98 164 -123 181 -36 23 -77 32 -119 25z"/>
<path d="M14595 4751 c-16 -4 -46 -16 -65 -27 l-35 -19 70 -5 c77 -6 120 -22
192 -71 127 -86 196 -232 207 -434 5 -98 -14 -265 -38 -330 -20 -54 -21 -71
-1 -51 8 8 15 24 15 35 0 11 5 23 10 26 6 3 10 17 10 31 0 13 5 24 10 24 6 0
10 5 10 11 0 5 -6 7 -12 3 -10 -6 -10 -4 -2 7 10 12 20 69 29 163 2 16 9 33
17 37 8 5 9 9 2 9 -13 0 -25 61 -15 73 9 9 1 67 -9 67 -4 0 -6 23 -4 50 1 29
-1 50 -7 50 -6 0 -7 5 -4 10 3 6 0 10 -7 10 -8 1 -6 6 6 15 18 13 15 20 -6 16
-5 0 -8 3 -8 9 0 6 4 10 9 10 5 0 4 11 -2 24 -7 14 -15 20 -18 14 -4 -6 -10
-2 -14 11 -3 11 -4 24 -1 29 6 10 -39 84 -47 75 -4 -3 -7 1 -7 10 0 20 -55 71
-104 98 -41 22 -135 32 -181 20z"/>
<path d="M14580 4591 c-35 -11 -81 -36 -107 -58 -12 -10 -34 -27 -49 -38 -88
-64 -179 -294 -191 -484 -7 -114 17 -270 49 -314 21 -29 81 -33 127 -9 21 11
42 18 45 15 3 -4 6 1 6 10 0 9 7 17 16 17 8 0 13 4 9 9 -3 5 6 18 20 29 14 11
25 28 25 38 0 14 3 16 9 6 5 -9 15 -2 33 25 23 36 72 153 64 153 -2 0 2 21 10
47 18 60 18 212 0 278 -7 29 -15 43 -19 35 -3 -8 -3 0 0 18 4 25 2 32 -11 32
-9 0 -16 5 -16 10 0 6 7 10 15 10 8 0 15 7 15 15 0 9 6 12 15 9 8 -4 15 -12
15 -20 0 -8 4 -14 8 -14 5 0 9 -6 9 -14 0 -8 -8 -11 -19 -8 -10 2 -18 0 -18
-5 0 -5 12 -9 27 -8 26 0 28 3 28 42 0 42 -8 56 -18 31 -3 -8 -8 -6 -13 7 -4
11 -12 24 -18 28 -6 5 -2 6 9 2 11 -4 30 -7 43 -6 18 1 22 -4 22 -29 0 -17 5
-30 10 -30 6 0 10 16 10 35 0 23 6 39 19 47 49 30 -43 100 -129 97 -14 0 -36
-4 -50 -8z"/>
<path d="M14728 3526 c-10 -7 -15 -15 -12 -18 3 -4 -1 -6 -8 -5 -7 1 -40 -12
-73 -28 -71 -34 -170 -43 -217 -19 -34 17 -58 9 -31 -11 10 -7 15 -17 10 -21
-4 -4 -7 -2 -7 5 0 8 -7 10 -20 6 -12 -4 -20 -2 -20 5 0 7 -7 10 -15 6 -8 -3
-15 -1 -15 4 0 6 -7 10 -15 10 -13 0 -13 -3 -3 -20 20 -33 84 -72 140 -86 50
-13 53 -13 115 18 34 17 63 35 63 39 0 5 6 9 13 9 17 0 63 39 60 50 -2 5 6 11
16 15 10 3 23 17 29 30 13 29 13 29 -10 11z"/>
<path d="M6091 3336 c-96 -19 -161 -40 -244 -82 -94 -47 -218 -137 -206 -149
4 -3 13 1 22 9 8 8 17 12 21 9 3 -4 6 2 6 13 0 14 3 15 8 6 6 -9 15 -4 32 18
16 20 30 30 42 27 9 -3 22 0 27 7 5 6 42 22 83 35 40 13 80 26 88 29 8 3 24 4
35 3 17 -2 17 0 5 8 -8 6 -10 11 -4 11 5 0 14 -4 20 -10 6 -6 19 -4 38 5 25
13 27 13 22 0 -3 -8 -1 -15 4 -15 6 0 10 7 10 15 0 12 4 13 19 6 10 -6 47 -11
82 -13 35 -1 66 -5 69 -9 3 -3 27 -9 54 -12 27 -4 54 -11 60 -17 5 -5 18 -10
28 -10 10 0 18 -4 18 -10 0 -5 6 -10 14 -10 8 0 22 -7 30 -16 9 -8 16 -13 16
-9 0 10 61 -34 109 -79 95 -90 184 -239 227 -381 24 -79 27 -108 28 -230 1
-287 -92 -521 -289 -720 -49 -50 -106 -103 -126 -118 -99 -71 -263 -135 -389
-151 -19 -2 -35 -5 -35 -6 0 -1 -19 -3 -43 -5 -23 -2 -40 0 -38 4 3 4 -5 8
-17 8 -15 2 -18 0 -8 -6 9 -6 5 -10 -14 -13 -17 -4 -28 -1 -32 8 -3 8 -12 14
-20 14 -8 0 -12 -4 -9 -9 8 -12 -71 -4 -106 10 -16 7 -25 16 -21 23 4 7 2 7
-7 -1 -8 -8 -19 -8 -31 -2 -11 5 -28 14 -39 19 -11 6 -27 10 -35 10 -8 0 -15
4 -15 9 0 5 -15 15 -34 21 -19 6 -37 18 -40 27 -4 9 -9 13 -12 10 -10 -9 -45
33 -38 45 4 6 3 8 -4 4 -6 -3 -14 0 -19 7 -4 8 -18 19 -30 26 -13 6 -23 17
-23 23 0 7 -10 23 -23 37 -35 39 -49 78 -31 85 8 3 14 11 14 18 0 8 -3 9 -8 3
-10 -14 -32 -17 -32 -4 0 5 -4 7 -10 4 -9 -5 -14 16 -13 52 1 7 -3 10 -8 8 -4
-3 -13 9 -19 27 -9 32 -10 31 -5 -10 11 -91 97 -258 182 -352 24 -27 74 -71
112 -99 209 -155 443 -175 687 -60 38 18 74 33 80 34 6 0 19 8 28 18 10 9 22
14 28 11 7 -4 8 -2 4 4 -4 7 3 14 19 18 15 4 37 16 50 28 41 37 54 46 69 46
18 0 32 20 14 20 -7 1 -1 8 15 16 15 8 27 17 27 20 0 3 -5 2 -12 -2 -7 -4 -8
-3 -4 4 4 7 14 12 22 12 8 0 14 5 14 10 0 6 5 10 11 10 6 0 17 6 24 13 45 40
52 48 83 99 13 20 35 46 50 57 22 17 24 22 13 30 -12 8 -9 11 12 16 22 6 25
10 16 21 -8 10 -8 14 0 14 6 0 11 9 11 21 0 12 8 23 20 26 11 3 20 14 20 24 0
10 9 34 21 53 11 19 18 39 15 44 -3 5 3 19 14 32 10 12 16 28 14 35 -3 7 -1
16 5 19 6 4 8 13 4 21 -3 8 -1 15 4 15 5 0 10 6 11 13 4 50 15 92 25 99 9 6 9
12 -1 29 -11 16 -11 23 -2 29 13 8 24 170 12 170 -4 0 -8 30 -9 68 -2 70 -5
93 -17 127 -5 11 -12 32 -18 47 -6 15 -8 34 -5 43 4 8 2 17 -4 20 -5 4 -18 24
-28 46 -11 21 -15 37 -10 34 5 -4 6 1 3 9 -3 9 -10 16 -14 16 -5 0 -12 9 -15
21 -8 24 -15 33 -101 133 -74 87 -161 142 -288 185 -115 38 -252 48 -365 27z"/>
<path d="M6127 3122 c-20 -2 -35 -7 -32 -12 3 -4 -4 -6 -14 -3 -20 5 -119 -23
-135 -38 -6 -5 -16 -9 -23 -9 -22 0 -113 -61 -113 -76 0 -8 -5 -14 -11 -14 -5
0 -7 6 -4 13 4 6 -5 0 -19 -16 -14 -15 -29 -27 -33 -26 -4 0 -9 -5 -11 -13 -3
-10 -1 -10 5 -1 6 8 14 9 23 3 12 -8 11 -10 -5 -11 -11 -1 -28 -1 -37 0 -10 1
-19 -3 -19 -8 -1 -6 -2 -14 -3 -18 -1 -5 -22 -30 -48 -56 -162 -165 -241 -418
-197 -629 44 -211 225 -367 424 -368 53 0 152 21 195 42 74 36 220 153 220
176 0 5 11 17 25 26 14 9 23 21 19 27 -3 6 4 18 15 28 12 10 21 23 21 29 0 6
4 12 8 14 15 6 69 143 77 193 28 182 -1 337 -85 456 -16 21 -16 26 -4 35 10 7
11 13 3 24 -8 11 -12 12 -16 3 -5 -15 -23 -17 -23 -4 0 5 7 17 16 25 8 9 11
16 5 16 -5 0 -17 -10 -25 -22 -9 -12 -16 -17 -16 -10 0 7 -4 11 -8 8 -5 -3
-16 4 -25 15 -9 10 -13 19 -7 19 5 0 14 -8 20 -17 9 -15 10 -14 4 5 -5 21 -3
23 16 17 15 -5 20 -3 16 3 -7 12 29 26 44 17 5 -3 10 -1 10 5 0 6 3 9 8 6 4
-2 7 16 7 40 0 37 3 44 20 44 31 0 5 17 -61 38 -33 11 -76 18 -95 17 -19 -2
-38 0 -44 4 -11 8 -29 9 -88 3z"/>
</g>
</svg>
