<?xml version="1.0" standalone="no"?>
<!DOCTYPE svg PUBLIC "-//W3C//DTD SVG 20010904//EN"
 "http://www.w3.org/TR/2001/REC-SVG-20010904/DTD/svg10.dtd">
<svg version="1.0" xmlns="http://www.w3.org/2000/svg"
 width="1006.000000pt" height="1004.000000pt" viewBox="0 0 1006.000000 1004.000000"
 preserveAspectRatio="xMidYMid meet">
<metadata>
Created by potrace 1.16, written by Peter Selinger 2001-2019
</metadata>
<g transform="translate(0.000000,1004.000000) scale(0.100000,-0.100000)"
fill="#000000" stroke="none">
<path d="M1441 9979 c-44 -54 -148 -130 -166 -122 -10 3 -15 -1 -15 -12 0 -14
-6 -16 -27 -11 -21 5 -24 4 -13 -4 12 -8 11 -10 -7 -10 -13 0 -23 -4 -23 -9 0
-5 -28 -12 -62 -15 -35 -4 -79 -9 -98 -12 l-35 -5 -1 -138 c-1 -137 -3 -149
-51 -296 -18 -57 -63 -157 -73 -165 -4 -3 -12 -15 -19 -28 -7 -12 -17 -20 -23
-16 -7 4 -8 2 -4 -5 5 -7 -4 -27 -19 -47 -20 -26 -32 -34 -48 -30 -12 3 -16 3
-9 0 19 -9 15 -20 -27 -63 -42 -44 -61 -52 -56 -23 1 9 0 11 -2 5 -3 -7 -10
-13 -16 -13 -7 0 -6 -4 3 -10 13 -9 12 -12 -5 -26 -11 -8 -30 -24 -43 -34 -12
-11 -26 -20 -31 -20 -5 0 -16 -6 -23 -13 -13 -12 -121 -67 -133 -67 -4 0 -21
-6 -38 -13 -63 -27 -174 -47 -264 -48 l-93 -1 0 -2389 0 -2389 55 0 c30 0 55
-4 55 -9 0 -4 19 -11 43 -14 37 -5 124 -43 162 -69 80 -57 204 -206 190 -228
-3 -6 -1 -10 4 -10 6 0 11 -9 11 -20 0 -11 4 -20 9 -20 5 0 17 -42 26 -93 17
-88 17 -99 1 -191 -9 -53 -16 -102 -16 -107 0 -13 -18 -11 -23 3 -2 7 -2 3 0
-10 5 -33 -61 -151 -95 -168 -12 -6 -19 -13 -16 -17 6 -5 -31 -47 -41 -47 -3
0 -16 -9 -28 -21 -12 -12 -41 -30 -64 -40 -24 -10 -43 -25 -43 -32 0 -8 16
-31 36 -52 19 -21 31 -41 26 -44 -4 -3 -12 -15 -15 -25 -7 -16 -5 -17 9 -6 13
12 17 11 24 -1 15 -23 32 -119 26 -144 -8 -32 16 -48 72 -46 49 1 155 -22 209
-45 17 -8 34 -14 38 -14 10 0 92 -58 132 -93 25 -22 31 -32 21 -38 -27 -18 13
-9 52 11 76 39 227 20 310 -38 42 -30 111 -118 123 -160 5 -15 12 -40 16 -57
6 -25 13 -31 46 -37 22 -4 65 -7 95 -7 44 -1 58 -5 68 -21 7 -11 20 -20 30
-19 14 0 14 2 -3 9 -37 16 19 12 72 -6 77 -25 207 -84 186 -84 -7 0 -13 -4
-13 -9 0 -5 9 -7 20 -4 16 4 19 2 14 -13 -5 -15 -4 -16 4 -5 9 12 21 7 68 -30
90 -68 194 -179 194 -206 0 -7 5 -13 10 -13 6 0 10 -9 10 -21 0 -11 4 -18 9
-14 13 7 34 -32 25 -47 -5 -7 -2 -9 8 -5 11 4 18 -1 21 -16 3 -12 22 -67 41
-122 27 -74 39 -125 45 -200 9 -108 4 -224 -10 -239 -12 -13 -11 -53 1 -61 5
-3 7 0 5 8 -5 11 14 14 91 16 127 2 264 -25 248 -50 -3 -5 2 -6 10 -3 21 8
136 -68 188 -125 24 -28 56 -72 69 -98 13 -26 27 -49 32 -51 12 -6 8 -40 -5
-45 -7 -3 -2 -6 11 -6 19 -1 23 -5 19 -26 -3 -14 -1 -28 3 -31 5 -3 9 -20 9
-37 0 -18 4 -38 8 -44 5 -7 5 -46 0 -85 -4 -40 -4 -76 0 -80 4 -3 39 -9 77
-12 105 -8 159 -17 170 -27 5 -5 20 -9 35 -10 23 0 23 -1 5 -9 -13 -6 -5 -7
24 -3 30 4 42 3 37 -5 -4 -6 10 -13 35 -17 33 -6 40 -11 36 -25 -2 -10 -1 -24
4 -31 6 -10 9 -8 9 9 0 12 5 22 10 22 6 0 10 -5 10 -12 0 -6 11 -1 24 11 15
14 26 38 30 64 11 86 43 259 53 287 3 8 7 26 8 40 9 77 18 140 22 140 7 0 52
-55 53 -64 0 -5 8 -16 19 -25 27 -23 37 -61 16 -61 -20 0 -36 -16 -52 -52 -10
-22 -9 -34 2 -61 20 -48 33 -56 103 -58 58 -2 62 -4 62 -26 0 -12 5 -23 11
-23 5 0 8 -4 5 -8 -2 -4 4 -8 14 -8 10 0 18 3 18 6 0 3 0 17 1 33 1 25 4 27
40 27 22 0 43 5 46 10 4 7 12 7 25 0 10 -5 37 -10 59 -10 30 0 44 6 55 22 l16
22 0 -22 c0 -22 14 -27 43 -16 10 3 13 13 9 27 -5 21 -5 21 12 5 20 -21 60
-33 81 -24 10 3 15 -1 15 -11 0 -13 -8 -15 -50 -10 -56 7 -70 -11 -25 -31 35
-16 61 -15 90 4 23 15 25 22 25 104 l0 88 -45 6 c-25 4 -53 3 -64 -3 -11 -6
-27 -11 -35 -11 -19 0 -21 17 -3 22 10 2 11 11 4 38 -5 19 -12 29 -14 23 -3
-7 -13 -13 -24 -13 -17 0 -19 -8 -19 -77 0 -42 -3 -73 -7 -69 -4 4 -7 26 -8
49 l0 42 -50 3 c-38 3 -52 -1 -63 -15 -12 -17 -14 -17 -23 -1 -6 10 -21 18
-34 18 -22 0 -25 4 -25 38 0 21 3 42 7 46 4 3 8 30 9 59 3 74 14 179 21 197 3
8 7 29 9 45 4 50 23 205 35 285 6 41 13 93 15 115 2 22 10 96 19 165 9 69 20
157 25 195 5 39 16 126 25 195 8 69 20 181 25 250 6 69 15 147 20 173 6 26 10
65 10 87 0 37 -3 41 -80 94 -89 63 -90 65 -66 164 8 31 22 95 31 142 8 47 20
108 25 135 5 28 16 86 24 130 8 44 24 131 36 194 21 109 22 117 6 172 -27 99
-17 246 18 272 6 4 113 5 239 1 136 -4 227 -2 227 3 0 5 -9 29 -21 52 -11 24
-24 62 -27 84 l-8 42 -196 5 c-108 3 -200 8 -204 12 -4 4 7 39 25 78 20 45 31
86 31 115 l0 46 177 -1 c139 -1 179 1 185 12 4 7 22 43 39 81 18 37 56 94 86
126 29 33 53 62 53 66 0 3 -11 18 -25 33 -14 15 -25 33 -25 41 0 7 -5 31 -12
52 l-11 39 -544 0 c-506 0 -544 1 -550 17 -8 21 39 205 67 266 14 29 46 63
102 109 111 89 248 227 317 317 136 181 157 210 216 305 88 144 169 295 215
401 12 28 27 64 35 80 37 83 68 168 114 305 50 149 51 158 61 528 5 196 14
375 19 397 20 82 43 160 50 168 4 4 95 1 203 -8 175 -14 209 -14 333 0 76 9
142 12 147 7 4 -4 15 -35 24 -68 9 -32 20 -75 26 -94 5 -19 14 -199 19 -400
l10 -365 41 -130 c137 -434 324 -797 574 -1111 89 -112 242 -265 337 -339 36
-27 74 -66 86 -86 37 -64 90 -264 74 -280 -5 -5 -243 -10 -553 -11 l-545 -3
-9 -50 c-4 -27 -19 -65 -33 -83 l-24 -33 36 -36 c49 -49 91 -112 125 -187 23
-50 35 -65 56 -70 15 -4 93 -6 173 -5 l146 2 6 -54 c3 -30 18 -80 33 -112 16
-32 25 -61 21 -65 -4 -4 -92 -9 -197 -12 l-190 -5 -29 -85 c-16 -47 -29 -89
-29 -93 0 -4 101 -6 225 -4 124 2 229 1 233 -2 32 -22 43 -183 17 -267 -16
-52 -16 -46 60 -444 86 -444 83 -425 54 -456 -13 -15 -47 -42 -76 -60 -28 -19
-55 -38 -58 -44 -4 -6 1 -70 10 -143 8 -72 20 -177 26 -232 6 -55 17 -145 24
-200 7 -55 18 -138 24 -185 6 -47 18 -138 26 -202 8 -65 22 -171 30 -235 8
-65 20 -147 25 -183 11 -69 29 -268 33 -360 1 -30 5 -57 8 -60 3 -3 8 -26 11
-51 l5 -46 -26 12 c-29 14 -141 9 -141 -6 0 -11 -41 11 -57 31 -10 13 -12 13
-18 -2 -4 -10 -16 -18 -27 -18 -12 0 -24 -12 -33 -32 -8 -18 -14 -28 -15 -21
-1 38 -80 69 -108 41 -8 -8 -15 -8 -25 0 -7 6 -36 11 -63 10 -76 -1 -96 1 -89
12 3 6 15 10 26 10 30 0 25 38 -7 46 -38 10 -74 -10 -74 -41 0 -15 -6 -25 -14
-25 -8 0 -16 -6 -19 -12 -7 -21 4 -48 20 -48 12 0 14 -12 11 -58 -3 -59 -3
-59 22 -52 22 6 26 13 30 61 4 47 8 54 28 57 21 3 22 0 22 -52 0 -53 1 -56 25
-56 23 0 25 3 25 49 0 35 4 51 16 55 24 9 24 9 24 -27 0 -60 58 -99 114 -77
23 9 27 14 22 35 -9 37 16 31 34 -8 14 -31 17 -32 73 -32 l57 1 0 -32 c0 -18
8 -38 20 -49 18 -17 20 -17 20 -1 0 9 6 16 13 15 28 -3 33 2 29 31 -4 28 -2
30 26 30 21 0 37 8 51 26 19 24 21 24 21 7 0 -25 34 -39 83 -35 24 2 37 8 37
18 0 8 5 14 10 14 6 0 10 -7 10 -15 0 -11 12 -15 44 -15 40 0 44 2 42 24 -1
16 -6 22 -15 18 -10 -4 -13 -1 -8 12 4 9 3 15 -2 12 -5 -3 -14 1 -21 9 -10 13
-9 19 5 35 10 11 27 18 39 16 12 -2 15 -1 9 1 -18 6 -16 13 8 34 20 17 19 18
-38 12 -35 -4 -63 -12 -70 -22 -10 -13 -12 -9 -12 24 0 48 28 88 56 79 13 -4
15 -3 4 4 -17 12 -5 35 42 80 l35 34 6 -29 c3 -15 12 -80 21 -143 9 -63 20
-124 25 -135 5 -11 13 -54 19 -95 15 -110 29 -190 41 -230 5 -19 10 -48 10
-63 0 -55 10 -57 233 -57 l204 0 -5 28 c-3 15 -9 29 -13 32 -13 9 -30 180 -24
239 16 142 36 196 108 298 55 77 165 156 270 192 21 7 72 18 114 24 l75 12 3
130 c3 149 26 255 80 373 96 208 271 380 476 469 131 57 216 74 370 74 75 1
146 -2 159 -6 26 -8 26 -4 -9 125 -49 180 0 377 130 523 97 109 258 187 385
187 74 0 222 -27 244 -45 12 -9 20 -9 38 0 15 8 19 14 11 17 -14 5 -14 115 0
133 5 5 12 24 16 42 4 21 11 30 20 27 9 -4 12 0 9 13 -4 13 9 32 39 60 55 52
129 89 192 98 79 10 77 9 56 57 -58 132 -64 232 -23 388 12 48 61 148 86 178
48 57 121 123 143 128 l23 6 0 2488 0 2487 -71 5 c-39 3 -76 11 -82 17 -6 6
-17 11 -24 11 -18 0 -97 59 -113 83 -8 13 -8 22 0 31 7 10 6 17 -5 26 -8 7
-12 16 -9 21 3 5 0 9 -5 9 -6 0 -11 -7 -11 -15 0 -8 5 -15 10 -15 6 0 10 -7
10 -15 0 -8 -4 -15 -8 -15 -10 0 -32 45 -32 65 0 8 -4 15 -10 15 -5 0 -10 15
-10 34 0 18 -6 38 -13 43 -6 6 -66 16 -132 22 -66 7 -124 16 -129 21 -6 6 -19
10 -31 10 -12 0 -25 4 -31 9 -5 5 -27 14 -49 21 -37 11 -113 48 -125 60 -3 3
-30 22 -61 43 -92 61 -197 171 -247 257 -41 69 -92 181 -92 200 0 11 -5 20
-11 20 -5 0 -9 8 -8 18 1 9 -5 41 -14 71 -9 30 -17 85 -17 123 l0 68 -3612 0
-3613 0 -34 -41z m4918 -446 c56 -47 24 -133 -49 -133 -30 0 -43 6 -60 27 -39
50 -3 123 60 123 15 0 37 -8 49 -17z m-3455 -114 c32 -15 52 -69 37 -98 -14
-25 -50 -51 -73 -51 -32 0 -71 44 -71 80 0 24 7 40 27 57 31 26 44 28 80 12z
m3784 -1349 c29 -28 30 -90 2 -115 -29 -26 -89 -23 -112 5 -60 74 41 174 110
110z m-3413 -85 c29 -28 32 -61 9 -93 -48 -68 -143 -34 -144 51 0 29 45 67 80
67 19 0 40 -9 55 -25z m1735 -367 c91 -1 193 2 226 6 l62 8 16 -33 c9 -18 13
-36 9 -40 -27 -26 -425 -39 -539 -18 -71 13 -78 19 -62 50 25 47 25 47 75 37
27 -5 122 -9 213 -10z m3553 -5 c28 -26 23 -87 -10 -113 -50 -39 -123 -4 -123
59 0 68 80 101 133 54z m-7005 -90 c19 -20 22 -33 18 -57 -8 -39 -23 -54 -61
-62 -89 -17 -121 118 -35 149 24 9 53 -3 78 -30z m-459 -1253 c10 -5 24 -23
31 -39 10 -26 10 -35 -7 -63 -16 -28 -26 -33 -60 -36 -34 -3 -44 1 -62 24 -28
35 -27 69 4 99 25 26 63 32 94 15z m6691 -59 c27 -51 -10 -111 -68 -111 -93 0
-115 124 -25 149 33 9 77 -9 93 -38z m1294 -192 c47 -22 53 -94 12 -129 -49
-40 -134 11 -122 74 11 56 57 79 110 55z m-6504 -699 c30 -57 -4 -120 -65
-120 -59 0 -92 55 -69 115 18 45 111 48 134 5z m4815 -355 c61 -60 -6 -158
-85 -125 -17 7 -35 21 -40 31 -28 52 12 119 70 119 19 0 40 -9 55 -25z m-6283
-85 c24 -25 29 -36 23 -58 -13 -53 -56 -79 -102 -61 -56 21 -71 82 -28 124 33
34 70 32 107 -5z m7762 -611 c20 -16 26 -29 26 -59 0 -71 -76 -104 -125 -55
-40 39 -31 96 20 123 30 17 49 14 79 -9z m-5827 -131 c30 -28 31 -77 1 -105
-38 -35 -79 -34 -113 3 -30 33 -32 63 -4 98 27 34 82 36 116 4z"/>
<path d="M4905 7343 c-84 -30 -147 -94 -169 -172 -14 -48 -14 -57 0 -83 28
-53 77 -56 159 -7 33 20 54 24 115 24 66 0 84 -4 142 -34 54 -27 74 -32 102
-27 72 14 83 99 26 189 -54 86 -140 128 -260 126 -41 -1 -93 -8 -115 -16z
m194 -38 c33 -11 61 -38 50 -49 -3 -3 -29 1 -59 9 -39 10 -58 11 -67 3 -7 -5
-11 -14 -8 -18 6 -10 -19 -20 -53 -20 -15 0 -51 -14 -81 -30 -61 -33 -107 -40
-97 -14 3 9 6 19 6 23 0 15 55 63 95 84 73 37 131 41 214 12z"/>
<path d="M3816 4905 c-41 -21 -55 -44 -56 -86 0 -51 37 -89 87 -89 57 0 79 9
92 36 41 91 -40 183 -123 139z"/>
<path d="M4882 4383 c3 -16 -8 -18 -102 -21 l-106 -3 -12 -31 c-6 -17 -9 -35
-6 -39 3 -5 54 -9 115 -9 122 0 124 -1 94 -73 l-14 -34 159 -8 c87 -4 163 -4
169 -1 6 4 5 21 -5 48 -24 70 -26 68 97 68 l112 0 -7 32 c-11 53 -20 58 -117
58 -72 0 -89 3 -89 15 0 13 -23 15 -145 15 -133 0 -146 -2 -143 -17z"/>
<path d="M5302 673 c-6 -3 -9 -9 -6 -15 4 -6 1 -14 -5 -18 -7 -4 -13 -14 -15
-23 -2 -19 -66 -85 -66 -69 0 7 5 12 10 12 6 0 10 7 10 15 0 8 -4 15 -10 15
-5 0 -10 -5 -10 -10 0 -6 -8 -10 -17 -8 -12 2 -17 -2 -14 -12 2 -8 4 -21 4
-28 0 -7 6 -11 14 -8 9 4 13 -4 13 -24 0 -16 5 -32 10 -35 6 -3 10 -15 10 -25
0 -25 59 -60 101 -60 56 0 140 66 109 85 -6 4 0 15 15 27 14 10 25 25 24 31 0
8 -2 7 -6 -1 -4 -10 -9 -7 -20 8 -8 12 -12 24 -9 27 3 4 6 1 6 -5 0 -7 9 -12
21 -12 14 0 19 5 16 14 -3 7 -2 29 2 48 8 32 6 35 -11 30 -11 -2 -22 -11 -25
-18 -2 -7 -11 -10 -19 -7 -8 3 -21 0 -28 -6 -10 -8 -16 -9 -21 -1 -3 5 -25 11
-48 12 -37 1 -38 2 -9 5 32 4 46 23 17 23 -8 0 -15 6 -15 14 0 18 -11 25 -28
19z"/>
<path d="M4680 561 c0 -25 -3 -28 -25 -23 -28 5 -82 -14 -88 -31 -3 -7 -3 2
-1 18 3 23 1 26 -6 15 -8 -12 -12 -12 -18 -2 -5 7 -26 13 -47 14 -67 2 -104
-69 -68 -132 17 -28 28 -36 56 -38 52 -5 77 12 78 51 0 29 1 30 9 10 15 -37
52 -55 99 -47 l41 7 0 93 c0 77 -3 94 -15 94 -10 0 -15 -10 -15 -29z"/>
<path d="M4810 497 l0 -94 43 -6 c51 -7 82 10 90 49 11 61 -25 103 -78 90 -20
-5 -24 -2 -27 21 -2 14 -9 28 -15 31 -10 3 -13 -20 -13 -91z"/>
</g>
</svg>
