<?xml version="1.0" standalone="no"?>
<!DOCTYPE svg PUBLIC "-//W3C//DTD SVG 20010904//EN"
 "http://www.w3.org/TR/2001/REC-SVG-20010904/DTD/svg10.dtd">
<svg version="1.0" xmlns="http://www.w3.org/2000/svg"
 width="1114.000000pt" height="1102.000000pt" viewBox="0 0 1114.000000 1102.000000"
 preserveAspectRatio="xMidYMid meet">
<metadata>
Created by potrace 1.16, written by Peter Selinger 2001-2019
</metadata>
<g transform="translate(0.000000,1102.000000) scale(0.100000,-0.100000)"
fill="#000000" stroke="none">
<path d="M5454 10663 c-99 -131 -148 -211 -224 -368 -103 -211 -190 -515 -190
-660 0 -53 0 -54 -32 -59 -329 -51 -508 -91 -758 -171 -403 -130 -827 -346
-1166 -595 -333 -245 -673 -584 -910 -910 -545 -747 -828 -1653 -801 -2565 13
-442 79 -820 216 -1233 68 -205 70 -208 126 -215 61 -9 119 -40 180 -98 l51
-48 61 24 c33 14 94 30 135 36 138 22 290 -27 400 -130 l58 -53 61 56 c103 95
195 131 339 129 149 -1 251 -45 351 -150 68 -71 117 -163 133 -252 7 -36 14
-65 17 -65 2 1 34 5 71 9 83 9 198 -13 277 -52 32 -16 85 -56 122 -94 100
-100 149 -218 149 -358 l0 -58 52 13 c66 18 78 17 156 -2 35 -9 65 -14 67 -12
7 6 26 171 38 328 l12 155 220 0 220 0 3 -50 c10 -203 51 -544 93 -770 25
-136 27 -145 42 -145 29 0 126 -55 164 -92 l41 -41 69 46 c97 64 178 90 283
89 47 0 99 -5 115 -10 28 -8 35 -4 90 45 71 64 162 110 248 125 34 6 65 14 69
17 12 10 56 337 73 536 9 105 19 205 21 223 l5 32 217 -2 217 -3 12 -155 c12
-157 31 -322 38 -328 2 -2 34 4 71 13 76 19 134 15 203 -16 24 -10 44 -19 45
-19 0 0 1 37 1 83 1 96 28 167 90 235 82 91 229 126 350 83 32 -12 61 -21 62
-21 2 0 0 24 -3 53 -13 116 48 284 135 373 183 186 442 210 656 60 l60 -42 70
47 c94 65 172 89 284 89 l88 0 6 54 c11 104 92 212 195 259 67 30 189 30 254
0 l46 -21 12 29 c7 16 28 42 46 59 31 26 54 35 123 42 29 4 43 39 101 263 88
338 124 635 124 1035 0 315 -10 442 -60 735 -103 603 -363 1211 -738 1725
-237 325 -577 665 -909 909 -341 251 -762 465 -1167 596 -250 80 -429 120
-757 171 -32 5 -33 6 -33 58 0 230 -151 648 -334 921 -51 77 -157 215 -165
215 -4 0 -43 -48 -87 -107z m-746 -1256 c9 -11 111 -285 213 -573 l39 -112 -2
-223 -3 -224 -290 0 -290 0 -3 229 -2 229 96 266 c53 146 105 293 116 326 12
33 28 68 36 78 18 20 75 23 90 4z m1756 -9 c8 -13 45 -106 81 -208 37 -102 89
-247 116 -322 l49 -137 -2 -228 -3 -228 -290 0 -290 0 -3 226 -2 226 69 194
c127 355 170 471 182 485 19 23 76 18 93 -8z m-2712 -808 c31 -8 59 -18 62
-21 3 -3 -17 -11 -46 -18 -67 -15 -75 -22 -89 -86 -14 -62 -24 -63 -33 -4 -10
64 -20 74 -80 88 -31 7 -56 16 -56 20 0 4 27 12 59 19 52 11 60 16 66 40 3 15
11 45 17 67 l11 40 17 -65 16 -65 56 -15z m1836 -18 c99 -99 193 -362 262
-730 l30 -164 0 -514 0 -514 68 0 69 0 6 -137 c15 -334 103 -625 265 -870 89
-135 199 -251 415 -441 105 -93 211 -193 234 -223 50 -64 88 -147 97 -206 l6
-43 -516 0 c-486 0 -515 -1 -510 -17 2 -10 8 -43 12 -73 7 -47 8 -51 13 -25
l6 30 239 3 c140 1 244 -2 249 -7 5 -5 10 -53 11 -107 1 -88 -1 -97 -19 -105
-16 -6 -451 -69 -479 -69 -3 0 -6 -67 -6 -150 l0 -150 -72 0 c-55 0 -69 3 -58
11 20 14 -92 5 -117 -10 -16 -9 -14 -11 13 -17 30 -6 32 -10 48 -80 21 -96 21
-111 1 -94 -13 11 -15 -6 -15 -143 0 -227 -29 -407 -110 -677 l-22 -75 -28 91
c-16 51 -37 126 -47 168 -10 42 -20 76 -23 76 -3 0 -19 -43 -34 -95 -16 -52
-32 -95 -35 -95 -4 0 -20 41 -36 90 -16 50 -32 90 -35 90 -4 0 -17 -39 -29
-88 -12 -48 -32 -121 -45 -162 l-23 -75 -23 75 c-80 265 -110 450 -110 677 0
137 -2 154 -15 143 -13 -11 -15 -8 -14 16 1 16 8 58 17 93 16 59 19 65 47 68
42 6 42 10 -2 22 -49 14 -116 14 -108 1 4 -6 -18 -10 -59 -10 l-66 0 0 145 c0
110 -3 147 -13 151 -7 2 -121 19 -252 37 l-240 33 0 110 0 109 253 3 c189 2
252 -1 252 -9 0 -25 13 2 20 41 l7 40 -511 2 -511 3 2 44 c3 56 24 108 72 180
43 63 96 114 321 313 228 201 352 355 450 555 100 203 170 522 170 769 l0 64
70 0 70 0 0 529 0 529 40 202 c45 226 92 381 155 516 42 90 114 184 141 184 8
0 31 -17 52 -38z m-633 -544 l0 -207 -290 -3 -290 -3 -3 200 c-1 110 0 205 3
212 3 11 64 13 292 11 l288 -3 0 -207z m1753 1 l2 -206 -172 -4 c-95 -2 -227
-2 -293 1 l-120 5 -3 193 c-2 106 -1 199 2 208 5 12 47 14 293 12 l288 -3 3
-206z m-1751 -690 l3 -436 -243 -5 c-133 -3 -264 -5 -292 -4 l-50 1 -3 443 -2
442 292 -2 293 -3 2 -436z m1748 1 l0 -435 -288 0 -288 0 0 420 c1 231 1 428
1 438 0 16 18 17 288 15 l287 -3 0 -435z m-1748 -755 l1 -270 -34 -111 c-18
-61 -43 -136 -54 -168 l-21 -56 -240 0 -239 0 0 440 0 440 293 -2 292 -3 2
-270z m1745 259 c4 -3 6 -197 5 -432 l-2 -427 -236 -3 -236 -2 -31 87 c-38
107 -70 219 -73 253 -1 14 -1 141 -1 284 l2 259 283 -8 c155 -4 285 -9 289
-11z m1821 -396 c6 -24 15 -28 124 -53 129 -30 151 -40 107 -51 -16 -4 -74
-19 -128 -33 l-99 -26 -29 -122 c-17 -68 -33 -123 -38 -123 -4 0 -17 39 -29
88 -45 179 -29 157 -129 181 -152 38 -165 42 -156 51 5 4 62 20 126 35 l118
26 9 37 c6 20 19 75 31 122 12 46 24 89 28 94 3 6 18 -37 32 -94 15 -58 30
-117 33 -132z m-3743 -605 c-61 -115 -109 -186 -182 -270 -53 -62 -211 -213
-222 -213 -3 0 -6 131 -6 290 l0 290 231 0 231 0 -52 -97z m1924 72 c10 -39 6
-534 -4 -540 -13 -8 -228 209 -287 289 -53 72 -153 245 -153 265 0 8 63 11
219 11 l219 0 6 -25z m-4240 -1012 c3 -10 10 -36 15 -59 10 -39 13 -41 66 -53
30 -7 57 -16 60 -20 2 -5 -22 -14 -55 -21 -39 -8 -61 -18 -64 -29 -3 -9 -10
-35 -16 -58 -6 -24 -15 -43 -20 -43 -4 0 -11 19 -15 43 -11 64 -19 72 -79 86
-31 7 -56 16 -56 20 0 4 25 13 55 20 60 14 71 25 81 90 7 43 19 53 28 24z
m1954 -355 c3 -96 2 -98 -20 -98 -13 0 -106 14 -208 30 -102 16 -188 30 -192
30 -10 0 -10 124 -1 134 4 3 99 5 212 4 l206 -3 3 -97z m80 -29 l3 -125 197
-28 c244 -35 252 -36 252 -47 0 -5 -124 -8 -287 -7 l-288 3 -3 48 -3 49 43 -4
43 -3 3 110 c3 121 6 139 25 133 8 -3 13 -40 15 -129z m2578 124 c15 -6 20
-118 6 -127 -9 -5 -385 -66 -409 -66 -10 0 -13 22 -13 94 0 90 1 95 23 99 31
6 377 6 393 0z m-456 -124 l0 -120 42 3 42 3 1 -45 0 -45 -287 -3 c-174 -1
-288 1 -288 7 0 12 20 16 249 46 107 14 198 28 203 31 4 3 8 59 8 125 0 99 3
119 15 119 13 0 15 -20 15 -121z m-1670 -288 l0 -38 -279 -8 c-154 -4 -284 -4
-290 0 -12 7 -15 68 -4 78 3 4 134 7 290 7 l283 0 0 -39z m1756 -2 l1 -36
-256 -6 c-341 -8 -326 -10 -326 33 -1 19 1 38 3 43 2 4 132 6 290 5 l287 -3 1
-36z m-1756 -129 l0 -40 -290 0 -290 0 0 38 c0 21 2 41 4 43 2 2 133 3 290 1
l286 -3 0 -39z m1748 35 c2 -2 5 -19 5 -37 l2 -33 -289 0 -290 0 -2 30 c-1 17
0 35 2 40 4 9 563 9 572 0z m-1748 -174 l0 -58 -212 -6 c-116 -4 -246 -7 -290
-7 l-78 0 0 63 c0 35 2 66 4 68 2 2 133 3 290 1 l286 -3 0 -58z m1758 -2 l3
-57 -285 -7 c-156 -4 -288 -5 -293 -2 -5 4 -8 28 -7 54 1 26 3 54 3 61 1 10
62 12 289 10 l287 -3 3 -56z m-1757 -118 c9 -9 82 -311 77 -316 -2 -3 -170 -6
-371 -9 -322 -3 -367 -1 -367 12 0 21 71 294 82 315 8 17 27 17 291 11 155 -4
285 -9 288 -13z m1753 1 c3 -5 21 -71 41 -148 20 -76 39 -147 41 -156 5 -17
-17 -18 -365 -18 -290 0 -371 3 -371 13 0 6 16 81 37 165 l37 152 288 0 c158
0 289 -4 292 -8z"/>
<path d="M5365 7820 c-64 -42 -75 -64 -66 -137 3 -30 6 -33 37 -33 29 0 34 4
34 23 0 27 77 107 103 107 13 0 17 9 17 40 0 38 -1 40 -32 40 -22 0 -54 -14
-93 -40z"/>
<path d="M5587 7853 c-4 -3 -7 -21 -7 -40 0 -25 4 -33 18 -33 23 0 112 -90
112 -113 0 -13 9 -17 40 -17 l41 0 -3 62 -3 62 -60 43 c-43 30 -70 42 -96 43
-20 0 -39 -3 -42 -7z"/>
<path d="M5500 4663 c1 -346 25 -913 40 -913 13 0 32 371 37 768 l6 412 -42 0
-41 0 0 -267z"/>
</g>
</svg>
