<?xml version="1.0" standalone="no"?>
<!DOCTYPE svg PUBLIC "-//W3C//DTD SVG 20010904//EN"
 "http://www.w3.org/TR/2001/REC-SVG-20010904/DTD/svg10.dtd">
<svg version="1.0" xmlns="http://www.w3.org/2000/svg"
 width="1438.000000pt" height="1086.000000pt" viewBox="0 0 1438.000000 1086.000000"
 preserveAspectRatio="xMidYMid meet">
<metadata>
Created by potrace 1.16, written by Peter Selinger 2001-2019
</metadata>
<g transform="translate(0.000000,1086.000000) scale(0.100000,-0.100000)"
fill="#000000" stroke="none">
<path d="M0 10563 c1 -208 5 -302 13 -312 9 -12 9 -13 0 -7 -7 4 -13 3 -13 -3
0 -5 6 -12 13 -14 10 -4 10 -6 0 -6 -10 -1 -13 -547 -13 -2693 l0 -2692 27
-24 28 -23 -28 17 -27 16 0 -1476 c0 -1171 3 -1475 13 -1470 9 6 9 5 0 -7 -10
-12 -13 -224 -13 -942 l0 -927 7190 0 7190 0 -2 3053 c-2 2304 -6 3051 -15
3050 -13 -3 -12 22 2 34 4 4 5 3 1 -4 -3 -6 -2 -14 4 -18 7 -4 10 763 10 2369
l0 2376 -7190 0 -7191 0 1 -297z m1765 -254 c28 -6 88 -17 135 -24 82 -13 157
-31 268 -62 59 -16 78 -10 47 14 -18 14 -16 15 35 9 58 -8 78 -19 89 -49 8
-21 61 -43 129 -53 23 -3 45 -10 48 -15 10 -17 26 -9 21 11 -6 24 -2 24 114 9
46 -6 88 -15 94 -20 12 -12 55 -12 55 0 0 5 -6 12 -12 14 -7 3 6 6 29 6 33 1
50 -5 76 -29 22 -19 45 -30 63 -30 28 1 28 1 10 15 -18 14 -14 15 50 15 71 0
101 10 90 28 -3 6 -2 13 2 16 5 3 9 -4 8 -16 0 -13 -11 -27 -23 -34 -42 -20
-7 -42 97 -59 52 -9 108 -19 125 -22 27 -5 29 -4 16 11 -12 14 -10 16 21 16
46 0 91 -34 82 -62 -9 -28 79 -107 119 -108 15 0 27 3 27 6 0 3 -25 30 -56 59
-31 30 -53 59 -49 65 8 13 61 13 86 0 22 -12 26 -35 4 -26 -35 13 -5 -20 40
-45 16 -9 15 -6 -4 12 -30 29 -18 33 55 20 62 -12 96 -31 55 -31 -21 0 -18 -5
26 -47 40 -39 90 -73 107 -73 2 0 7 7 10 16 4 10 -13 33 -52 69 -44 42 -52 55
-37 55 11 -1 29 -7 39 -15 29 -22 42 -18 20 7 l-19 21 38 -6 c21 -3 51 -17 68
-31 34 -29 81 -37 59 -11 -7 8 -9 15 -4 16 29 4 62 -5 80 -23 14 -12 48 -24
90 -31 79 -12 84 -15 64 -27 -16 -10 4 -32 75 -88 64 -51 75 -13 12 44 -59 54
-67 69 -33 60 18 -4 25 -3 21 4 -9 14 35 13 61 -3 12 -6 36 -20 54 -30 l32
-18 -7 22 c-7 20 -5 21 21 15 16 -4 40 -15 54 -25 14 -10 52 -21 85 -25 33 -4
72 -12 87 -17 35 -14 62 -5 28 9 -23 10 -22 11 16 11 31 1 48 -5 68 -24 28
-26 68 -34 64 -12 -5 20 45 8 63 -16 10 -11 15 -26 13 -32 -3 -6 9 -22 26 -35
16 -13 30 -27 30 -33 0 -5 -18 7 -41 28 -22 20 -44 34 -47 30 -12 -12 71 -74
98 -73 14 0 31 -1 39 -3 30 -8 20 20 -19 51 -22 18 -40 37 -40 41 0 15 37 10
51 -7 11 -13 13 -14 21 0 7 13 13 13 53 -2 25 -9 45 -22 45 -28 0 -16 98 -104
116 -104 28 0 13 29 -42 84 -36 36 -65 56 -80 56 -12 0 -25 4 -28 8 -7 12 88
4 149 -12 28 -8 88 -23 135 -36 47 -12 103 -28 125 -36 50 -17 87 -18 103 -2
9 9 12 9 12 -1 0 -18 30 -40 53 -41 16 0 16 2 1 24 -23 36 -15 69 20 81 26 9
31 6 62 -29 41 -47 42 -60 9 -90 l-25 -23 67 -57 c38 -32 79 -67 93 -80 14
-12 72 -62 130 -111 58 -50 107 -92 110 -95 3 -3 34 -30 70 -60 36 -30 73 -62
83 -72 47 -47 137 -103 302 -188 99 -51 230 -119 290 -150 61 -32 169 -88 240
-125 190 -99 246 -131 280 -160 17 -15 52 -45 79 -68 27 -23 71 -60 96 -82
122 -104 111 -96 300 -251 52 -44 106 -91 120 -106 13 -16 28 -28 32 -28 4 0
36 -20 71 -45 36 -25 67 -45 70 -45 4 0 52 -31 109 -70 l103 -70 158 0 c167 0
188 -7 126 -42 -38 -22 -53 -22 -69 -3 -10 12 -16 13 -26 4 -11 -9 -14 -8 -14
1 0 8 -3 11 -6 7 -3 -3 -1 -21 6 -41 14 -43 78 -96 145 -121 28 -11 52 -22 55
-26 3 -4 19 -10 35 -14 l30 -7 -30 21 c-16 11 -34 21 -40 21 -5 0 -21 10 -35
21 l-25 21 28 -17 c32 -19 50 -12 22 9 -25 18 -14 42 23 49 24 5 30 12 34 38
4 24 -1 36 -21 55 -14 13 -29 24 -33 24 -5 0 -8 5 -8 10 0 6 9 10 19 10 11 0
23 -4 26 -10 11 -18 266 -9 264 9 0 3 -27 28 -60 55 -32 27 -59 53 -59 59 0
15 51 -22 103 -75 l48 -49 106 3 106 3 24 43 c14 24 22 46 19 50 -3 3 -6 0 -6
-6 0 -17 -83 -15 -123 2 -18 8 -48 28 -67 45 -19 18 -54 46 -77 64 -57 43 -53
62 12 61 28 -1 102 -2 165 -3 102 -2 116 -5 136 -24 30 -31 122 -107 128 -107
3 0 6 7 6 15 0 8 -3 15 -7 15 -12 0 -109 89 -98 90 6 0 26 -15 46 -33 94 -83
92 -82 150 -80 117 6 255 25 268 38 10 10 18 11 31 3 20 -13 90 -2 90 14 0 5
7 7 15 4 9 -3 18 1 22 9 4 12 8 13 20 4 12 -11 13 -8 8 14 -6 22 -4 27 11 27
16 0 17 -2 4 -11 -11 -7 -12 -12 -3 -15 7 -3 9 -12 6 -20 -3 -8 0 -14 7 -14 6
0 9 -4 6 -8 -6 -11 1 -12 92 -18 72 -6 72 -6 72 20 0 23 2 25 26 16 14 -6 43
-10 65 -10 25 0 38 -4 37 -12 -2 -6 13 -15 32 -18 19 -3 49 -13 65 -22 97 -52
116 -58 193 -58 53 0 84 -5 99 -15 16 -11 22 -12 25 -3 3 8 15 5 36 -11 24
-17 30 -26 23 -38 -7 -13 3 -25 43 -57 28 -22 52 -43 54 -48 2 -4 8 -8 14 -8
5 0 26 -16 46 -35 20 -19 60 -52 89 -72 63 -46 72 -61 32 -55 -42 6 -48 -21
-12 -53 34 -31 68 -30 67 3 0 12 3 22 8 22 4 0 8 5 8 11 0 6 -6 9 -13 6 -8 -3
-14 3 -14 14 -1 10 3 19 9 19 19 0 48 -32 48 -53 0 -11 21 -39 46 -62 51 -45
51 -47 2 -114 -17 -23 -17 -25 1 -55 10 -17 21 -58 25 -91 4 -33 15 -78 25
-100 12 -26 21 -76 26 -140 3 -55 11 -120 16 -145 44 -195 44 -270 -3 -409
-27 -81 -40 -106 -57 -113 -13 -4 -21 -5 -19 0 19 38 29 69 46 140 16 67 17
82 6 82 -8 0 -22 -9 -32 -21 -9 -11 -29 -35 -44 -52 -15 -18 -28 -35 -28 -38
0 -4 -13 -21 -29 -40 -17 -18 -27 -36 -25 -39 5 -5 13 4 47 51 7 9 30 19 52
23 22 4 35 3 29 -1 -6 -4 -14 -17 -18 -29 -7 -22 -51 -49 -73 -45 -7 1 -13 -3
-13 -9 0 -5 8 -10 17 -10 13 0 8 -9 -17 -35 -19 -19 -44 -35 -56 -35 -46 0
-116 -41 -99 -58 3 -4 11 1 16 11 7 11 17 16 29 12 10 -3 21 -1 25 5 3 5 11
10 16 10 17 0 -17 -41 -50 -61 -18 -11 -44 -19 -59 -19 -23 1 -24 2 -9 11 23
14 23 43 0 31 -27 -14 -81 -12 -86 2 -6 15 -54 13 -69 -2 -10 -10 54 -37 115
-48 20 -3 40 -10 43 -15 13 -21 61 -8 94 26 19 19 39 35 44 35 16 0 -90 -99
-116 -109 -13 -5 -84 -12 -158 -16 -74 -3 -205 -11 -290 -16 -85 -5 -215 -12
-287 -16 -73 -3 -133 -8 -133 -11 0 -3 25 -39 56 -80 56 -74 66 -86 114 -146
14 -17 50 -65 80 -106 67 -94 233 -266 280 -290 19 -11 54 -36 77 -57 22 -21
54 -49 70 -62 15 -13 44 -38 64 -55 19 -17 57 -49 84 -71 26 -22 53 -45 60
-52 6 -6 47 -41 91 -78 43 -37 81 -71 82 -76 2 -5 8 -9 13 -9 6 0 20 -10 32
-23 19 -19 95 -85 176 -152 13 -11 31 -27 40 -36 9 -8 63 -55 121 -105 115
-97 137 -122 166 -184 4 -8 27 -50 51 -93 24 -42 55 -99 70 -125 14 -26 52
-90 84 -142 63 -105 63 -104 1 -168 -15 -16 -52 -58 -82 -93 -67 -78 -122
-140 -135 -155 -5 -6 -30 -35 -55 -65 -71 -86 -180 -189 -198 -189 -9 0 -44
-25 -77 -55 -76 -69 -112 -80 -48 -14 26 26 53 49 60 49 6 0 13 10 15 23 2 16
11 23 31 25 15 2 27 9 27 18 0 8 7 14 15 14 8 0 15 3 15 8 0 4 23 25 50 47 51
40 62 61 36 67 -10 2 0 20 33 56 46 51 48 55 40 95 -4 24 -17 49 -30 60 -32
26 -36 7 -10 -45 l21 -42 -24 -26 c-29 -32 -86 -118 -86 -131 0 -5 -4 -9 -9
-9 -5 0 -28 -18 -50 -40 -23 -23 -41 -36 -41 -30 0 5 9 19 19 29 16 16 19 28
14 58 -6 42 -17 59 -45 74 -17 9 -18 7 -12 -18 4 -15 14 -40 22 -55 15 -26 14
-28 -21 -63 -20 -20 -37 -42 -37 -48 0 -8 4 -7 9 1 5 8 17 12 26 10 21 -3 19
-6 -46 -63 -39 -34 -99 -106 -99 -117 0 -5 6 -8 14 -8 8 0 16 -7 20 -15 7 -18
4 -31 -6 -28 -4 2 -19 -2 -34 -7 -22 -9 -26 -15 -21 -39 4 -20 2 -28 -8 -28
-8 0 -12 4 -9 9 3 4 1 8 -4 8 -5 0 -12 -26 -15 -57 -6 -62 -15 -73 -135 -171
-25 -20 -59 -49 -76 -64 -17 -16 -35 -28 -41 -28 -7 0 -22 -11 -35 -25 -28
-30 -84 -34 -112 -8 -17 15 -20 15 -34 1 -14 -14 -13 -16 13 -23 15 -5 31 -8
36 -7 4 1 7 -3 7 -9 0 -6 -8 -8 -17 -5 -15 5 -14 3 2 -10 19 -15 19 -15 -9 -8
-21 5 -27 4 -21 -5 4 -8 2 -12 -6 -10 -30 4 -47 -2 -77 -28 -22 -17 -29 -29
-21 -34 8 -4 4 -9 -10 -14 -18 -5 -26 -22 -22 -47 0 -4 -6 -5 -15 -1 -10 4
-14 1 -12 -8 2 -8 0 -14 -4 -14 -4 0 -14 -10 -22 -21 -9 -12 -31 -24 -50 -27
-33 -5 -65 -31 -108 -88 -10 -13 -18 -18 -18 -12 0 22 -43 22 -74 0 l-31 -22
28 -5 29 -5 -32 -43 c-17 -23 -55 -58 -85 -77 -29 -19 -60 -43 -67 -53 -14
-18 -77 -49 -116 -57 -39 -7 -45 -16 -25 -37 18 -20 17 -21 -17 -49 -22 -19
-41 -27 -53 -23 -21 7 -57 -21 -57 -44 0 -12 5 -10 23 6 13 12 27 22 32 22 14
0 -98 -100 -131 -116 -17 -8 -54 -37 -83 -64 -29 -28 -59 -50 -67 -50 -7 0
-43 14 -80 30 -71 33 -86 32 -65 -3 13 -20 13 -21 -2 -8 -10 7 -17 10 -17 6 0
-3 -19 12 -42 35 -42 40 -137 90 -338 178 -163 72 -197 93 -274 166 -72 69
-81 74 -96 61 -23 -21 -30 -19 -73 20 -22 20 -43 32 -52 29 -11 -5 -13 -2 -9
10 6 16 -17 40 -158 172 -68 62 -70 67 -59 97 9 22 4 30 -47 78 -31 30 -87 83
-125 118 -63 61 -68 64 -91 51 -23 -12 -29 -9 -85 36 -61 50 -88 84 -51 64 35
-19 43 -10 14 16 -16 14 -53 49 -81 77 -29 28 -53 45 -53 37 0 -7 23 -35 52
-62 29 -26 48 -48 42 -48 -6 0 -52 40 -103 89 l-94 89 16 31 c8 17 11 31 6 31
-12 0 -149 137 -149 150 0 4 -27 54 -60 110 -33 56 -60 104 -60 106 0 2 -24
46 -53 97 -29 50 -56 99 -60 107 -4 8 -11 22 -17 30 -22 33 -126 217 -138 244
-11 26 -10 32 15 65 15 20 30 38 34 41 4 3 11 18 14 33 4 15 11 27 15 27 6 0
67 86 105 149 6 9 12 18 15 21 3 3 20 28 39 55 19 28 57 83 85 124 28 40 56
80 61 89 37 59 41 57 59 -25 26 -124 27 -127 37 -148 5 -11 13 -32 18 -47 6
-17 20 -30 36 -34 27 -7 36 -44 10 -44 -13 0 -125 -139 -125 -156 0 -3 -13
-23 -30 -44 -16 -21 -30 -43 -30 -49 0 -6 -3 -11 -7 -11 -5 0 -16 -14 -25 -30
-13 -24 -24 -30 -50 -30 -29 -1 -88 -37 -88 -55 0 -3 22 -38 48 -78 27 -40 62
-94 78 -120 34 -58 32 -54 157 -249 54 -84 106 -164 115 -177 16 -23 15 -23
-5 -17 -32 10 -40 -13 -13 -34 13 -10 29 -16 35 -14 13 6 95 -70 95 -88 1 -20
48 -73 57 -64 4 4 0 21 -10 38 -29 51 -11 44 55 -22 l63 -62 -37 7 c-21 3 -38
2 -38 -3 0 -12 45 -42 63 -42 20 0 107 -79 107 -97 0 -22 37 -66 45 -53 3 6
11 7 18 3 6 -3 1 8 -12 26 -13 18 -21 34 -19 37 5 5 218 -195 218 -205 0 -4
-13 -6 -30 -3 -16 2 -30 1 -30 -3 0 -13 45 -44 65 -45 22 -1 65 -32 65 -48 0
-5 7 -12 15 -16 8 -3 15 -12 15 -19 0 -8 13 -30 30 -48 32 -37 39 -26 14 23
l-16 30 31 -18 c44 -26 132 -118 106 -111 -11 4 -33 9 -50 12 l-30 6 35 -31
c19 -16 40 -28 46 -26 14 5 104 -76 104 -95 1 -21 37 -65 47 -56 4 5 0 22 -10
39 -10 17 -16 32 -14 34 2 2 19 -10 38 -26 20 -16 85 -54 145 -85 60 -32 179
-94 264 -139 217 -113 205 -109 224 -81 9 14 16 28 16 33 0 4 14 21 31 38 63
59 146 172 153 208 7 37 15 43 33 25 7 -7 25 9 62 55 28 35 56 66 61 68 9 3
-117 210 -132 216 -4 2 -8 12 -8 23 0 10 -3 19 -8 19 -4 0 -23 28 -42 63 -19
34 -39 70 -45 80 -5 9 -32 60 -59 113 -29 55 -61 103 -75 112 -15 9 -37 27
-51 39 -14 13 -36 23 -49 23 -24 0 -23 -1 12 -33 20 -18 37 -36 37 -40 0 -13
-58 22 -74 45 -13 18 -18 19 -31 8 -18 -15 -20 -36 -2 -44 6 -3 3 -4 -9 -1
-22 6 -77 -45 -94 -88 -9 -22 -9 -22 -9 -1 -1 12 20 44 48 75 65 71 79 95 61
112 -10 10 -11 9 -5 -3 4 -8 -2 -5 -14 8 -12 12 -25 22 -29 22 -7 0 -117 103
-141 133 -32 40 10 11 78 -53 41 -39 76 -69 78 -67 12 12 -23 59 -82 112 -37
33 -71 61 -76 63 -5 2 -13 -8 -19 -22 -10 -27 -34 -34 -46 -14 -4 6 4 21 20
34 l27 24 -38 35 c-20 19 -40 35 -43 35 -3 0 -23 -25 -44 -55 -22 -30 -43 -55
-47 -55 -17 0 -16 30 2 46 10 9 19 23 19 30 0 7 11 22 26 33 l25 20 -63 59
c-35 32 -83 77 -107 98 -24 21 -69 63 -100 92 -31 28 -59 52 -63 52 -23 0 0
-34 65 -92 39 -36 88 -81 108 -99 20 -19 55 -51 78 -73 27 -24 39 -42 33 -48
-6 -6 -22 3 -44 24 -19 18 -76 71 -128 118 -118 108 -120 110 -120 121 0 5
-13 9 -28 9 -15 0 -33 5 -40 12 -9 9 -12 7 -12 -9 0 -12 -8 -23 -20 -26 -12
-3 -18 -11 -15 -19 3 -8 -1 -20 -9 -27 -16 -14 -26 3 -66 118 -11 30 -27 62
-35 71 -15 17 -15 18 1 16 10 0 20 7 22 16 3 13 -1 16 -15 12 -14 -4 -15 -4
-4 4 11 8 10 13 -8 31 -11 11 -27 18 -35 15 -8 -3 -17 -1 -21 5 -4 7 1 8 12 4
16 -6 16 -5 4 11 -8 9 -20 15 -28 12 -8 -3 -11 -1 -8 4 3 6 1 10 -6 10 -7 0
-32 16 -56 36 -34 28 -47 34 -53 24 -6 -9 -10 -7 -15 9 -3 11 -11 21 -16 21
-5 0 -23 9 -39 20 -17 11 -44 29 -61 41 -23 16 -33 18 -44 9 -11 -9 -12 -7 -8
9 5 19 1 22 -22 21 -3 -1 -13 6 -21 15 -9 8 -21 15 -29 15 -7 0 -15 7 -19 15
-3 8 -12 15 -19 15 -8 0 -20 7 -27 15 -7 8 -16 12 -21 9 -5 -3 -9 1 -9 9 0 21
-38 52 -108 87 -44 22 -62 37 -60 48 2 10 7 15 12 12 5 -3 15 11 22 30 8 23
13 28 13 15 1 -16 3 -17 10 -6 15 23 44 5 35 -21 -9 -31 -12 -34 -26 -20 -7 7
-16 12 -22 12 -20 0 10 -20 44 -30 26 -7 31 -7 22 2 -7 7 -12 16 -12 20 0 14
27 9 40 -7 7 -8 18 -15 24 -15 6 0 5 4 -3 9 -17 11 -4 34 15 27 8 -3 14 -1 14
5 0 6 5 7 11 3 8 -4 8 -8 0 -13 -10 -7 -4 -51 8 -51 17 1 31 18 25 33 -4 12
-1 17 10 17 11 0 16 -10 17 -32 3 -60 7 -103 10 -118 3 -10 -3 -14 -18 -13
-38 4 -26 -11 35 -45 31 -18 75 -44 97 -57 22 -14 54 -32 70 -40 17 -9 42 -23
56 -33 15 -9 56 -35 91 -57 66 -40 133 -96 233 -192 30 -29 57 -53 60 -53 28
0 -229 259 -284 287 -20 10 -42 24 -49 31 -7 6 -19 12 -26 12 -8 0 -19 7 -26
15 -7 8 -21 15 -30 15 -10 0 -20 4 -22 8 -1 4 -42 27 -90 51 l-87 44 5 41 c4
23 10 45 15 50 5 6 4 15 -2 22 -6 7 -8 17 -5 23 7 11 46 3 46 -10 0 -5 9 -9
20 -9 11 0 20 -5 20 -11 0 -7 9 -9 24 -5 17 4 26 1 30 -11 6 -15 8 -15 16 -3
7 10 10 11 10 3 0 -7 9 -22 21 -34 11 -11 17 -24 13 -27 -3 -4 -9 -2 -11 4 -2
6 -14 9 -26 7 -14 -3 -29 2 -36 11 -8 9 -20 16 -28 16 -8 0 -28 8 -44 17 -15
9 -31 14 -35 11 -12 -13 7 -27 44 -34 20 -4 44 -12 52 -18 17 -14 53 -31 90
-45 27 -9 28 -7 31 51 1 32 19 30 34 -4 8 -18 14 -26 15 -18 0 13 1 13 10 0 9
-13 13 -11 30 10 19 25 24 22 21 -12 -2 -11 5 -18 16 -19 10 0 13 -3 6 -6 -9
-3 -10 -10 -3 -24 9 -17 7 -19 -17 -19 -16 0 -39 7 -51 16 -12 8 -28 14 -35
11 -6 -2 12 -16 41 -31 36 -18 52 -32 52 -46 0 -35 15 -22 29 25 7 25 16 45
20 45 17 -1 42 -30 35 -41 -4 -7 -3 -10 4 -5 9 5 42 -20 104 -80 9 -9 16 -21
15 -27 -1 -6 3 -11 8 -12 19 0 66 -43 63 -57 -2 -8 4 -12 14 -10 10 2 26 -2
37 -7 16 -9 18 -8 14 8 -3 12 3 26 15 37 20 16 19 18 -41 73 -33 31 -86 79
-116 107 -31 29 -75 69 -97 89 -26 23 -74 51 -125 70 -186 72 -246 97 -296
120 -29 14 -64 27 -78 31 -14 3 -28 10 -31 15 -3 5 -12 9 -20 9 -15 0 -82 27
-134 54 -14 7 -51 21 -82 31 -54 18 -57 20 -41 37 18 21 24 18 -92 48 -44 12
-93 25 -110 29 -16 5 -66 18 -110 30 -44 12 -84 26 -89 31 -10 10 70 48 119
57 17 2 39 8 50 13 11 4 51 18 89 30 60 20 73 22 103 11 19 -7 37 -11 40 -8 2
3 -5 8 -16 12 -32 10 -26 19 27 37 41 15 53 15 85 4 20 -7 50 -24 65 -38 16
-15 45 -29 70 -33 54 -9 156 -91 125 -101 -48 -15 -112 -48 -107 -56 3 -4 45
-8 94 -8 83 0 527 -58 730 -95 47 -9 111 -21 143 -26 93 -15 126 -31 225 -103
64 -47 91 -73 87 -83 -3 -10 -1 -13 9 -10 16 6 125 -61 161 -99 11 -11 45 -37
75 -57 30 -20 71 -51 91 -69 20 -18 69 -56 110 -84 133 -91 225 -131 282 -120
23 4 41 0 62 -14 43 -29 48 -25 19 17 -15 22 -22 43 -18 52 20 47 27 124 16
184 -24 127 -80 204 -288 398 -22 19 -56 55 -77 80 l-37 44 30 -55 c55 -103
71 -144 65 -168 -4 -17 -2 -22 6 -16 8 5 9 3 4 -6 -5 -8 -2 -17 7 -24 10 -8
17 -32 19 -69 4 -62 -6 -74 -24 -27 -6 17 -17 30 -24 30 -17 0 -16 -6 3 -36
18 -27 14 -40 -10 -31 -8 3 -27 45 -42 94 -15 48 -30 90 -33 93 -3 3 -6 19 -6
35 0 22 -4 30 -17 29 -25 -2 -22 13 4 19 25 7 38 1 38 -18 0 -7 3 -15 8 -17 4
-1 17 -16 30 -32 29 -38 29 -15 0 27 -13 18 -25 34 -28 37 -3 3 -16 21 -29 40
-22 34 -133 124 -168 137 -10 4 -27 16 -38 28 -11 11 -38 33 -60 48 -40 27
-88 63 -155 115 -39 31 -171 163 -605 608 -410 420 -430 441 -498 512 -57 61
-77 74 -77 50 0 -23 -44 -58 -74 -59 -31 -2 -31 -2 -3 -6 l28 -4 -23 -37 c-27
-46 -38 -54 -63 -47 -11 3 -82 12 -159 20 -76 9 -141 17 -145 19 -4 3 -60 9
-126 15 -108 10 -369 44 -547 71 -37 5 -87 10 -111 10 -31 0 -67 12 -128 43
-83 41 -103 56 -199 147 -26 25 -61 56 -77 70 -17 14 -68 59 -113 100 -45 41
-96 86 -113 100 -77 63 -83 69 -68 79 9 6 10 11 2 15 -6 4 -11 2 -11 -3 0 -20
-15 -11 -72 42 -31 28 -76 70 -100 91 -123 111 -168 157 -168 171 0 8 -3 15
-7 15 -5 0 -31 22 -59 48 -27 26 -77 71 -110 101 -32 29 -86 79 -119 110 -128
121 -246 222 -254 217 -5 -3 -51 34 -102 83 -52 49 -111 104 -133 122 -72 64
-136 129 -136 140 0 5 -4 7 -10 4 -8 -5 -52 32 -146 120 -6 5 -58 53 -114 105
-176 162 -162 145 -148 175 6 14 17 24 24 23 7 -2 50 -39 96 -83 87 -83 109
-103 236 -214 42 -36 88 -77 102 -91 15 -14 60 -56 102 -93 42 -37 93 -85 115
-105 22 -20 73 -66 113 -102 69 -60 181 -160 206 -185 13 -12 158 -142 186
-166 46 -41 195 -177 222 -204 17 -17 78 -73 136 -125 58 -52 115 -105 127
-117 12 -13 24 -23 27 -23 3 0 20 -15 39 -32 37 -37 110 -103 212 -193 38 -33
109 -98 158 -145 83 -79 127 -111 127 -91 0 4 22 6 49 3 30 -2 51 0 55 7 4 6
22 11 39 11 18 0 49 3 69 6 46 8 41 24 -22 80 -24 21 -51 46 -60 54 -9 8 -51
47 -95 85 -43 39 -94 85 -114 104 -20 18 -69 63 -110 100 -41 36 -91 82 -112
101 -20 19 -72 67 -115 105 -42 39 -82 75 -88 81 -6 5 -38 34 -71 64 -88 79
-230 207 -304 275 -88 80 -117 106 -241 216 -58 52 -123 111 -145 131 -22 20
-83 74 -135 119 -52 46 -107 94 -121 108 -15 15 -38 36 -53 49 -30 25 -189
167 -251 223 -22 21 -80 72 -130 115 -49 44 -100 89 -112 101 -12 13 -27 23
-33 23 -5 0 -10 6 -10 13 0 12 73 47 100 47 8 0 32 6 55 14 22 8 121 40 220
71 99 32 190 62 201 67 12 6 37 13 55 17 l34 7 -55 40 c-30 22 -91 65 -136 96
-108 74 -146 101 -162 116 -7 6 -23 17 -35 24 -12 6 -60 39 -107 73 -47 34
-132 94 -190 135 -121 85 -114 79 -245 229 -83 95 -110 119 -160 142 -70 33
-46 39 40 9 73 -25 79 -25 35 3 -20 12 -49 34 -65 49 -113 101 -160 134 -228
157 -38 13 -66 17 -97 12 -44 -7 -130 -55 -130 -73 0 -4 -11 -6 -24 -2 -21 5
-24 3 -19 -15 5 -18 1 -21 -25 -21 -17 0 -34 -5 -37 -10 -14 -23 21 -84 91
-157 40 -43 74 -81 74 -84 0 -3 17 -22 38 -41 20 -20 74 -80 118 -134 l82 -99
0 -73 c1 -60 -2 -72 -15 -72 -15 0 -14 -2 1 -13 20 -15 20 -16 -9 -152 -10
-44 -23 -109 -29 -145 -9 -51 -17 -67 -34 -75 -12 -5 -22 -14 -22 -20 0 -6
-30 -25 -67 -43 -65 -31 -73 -32 -183 -32 -103 0 -117 2 -133 20 -9 11 -17 24
-17 28 0 4 -10 25 -22 47 -45 83 -119 222 -149 282 -17 34 -36 60 -43 59 -6
-2 -8 -1 -3 1 10 6 9 33 -2 33 -5 0 -12 11 -15 25 -4 14 -10 25 -15 25 -5 0
-12 14 -16 30 -4 17 -10 30 -14 30 -4 0 -18 25 -32 55 -23 52 -38 64 -47 37
-2 -7 5 -12 15 -12 15 0 16 -2 3 -10 -21 -14 -30 -12 -30 5 0 8 -4 15 -10 15
-15 0 -12 -9 11 -41 11 -16 26 -29 34 -29 7 0 12 -8 10 -17 -2 -10 -4 -21 -4
-24 -1 -4 -10 -9 -21 -12 -28 -7 -25 -29 3 -25 16 2 21 -1 19 -14 -2 -14 4
-18 29 -18 31 0 32 -1 13 -15 -17 -13 -17 -14 -1 -15 9 0 17 -2 17 -4 0 -2 3
-11 6 -19 8 -22 -23 -15 -40 9 -8 10 -17 16 -21 13 -3 -4 11 -25 32 -47 39
-41 50 -77 23 -77 -8 0 -24 18 -36 40 -13 22 -27 46 -33 52 -6 7 -14 26 -17
43 -4 16 -10 30 -15 30 -5 0 -9 6 -9 13 0 7 -10 23 -23 37 -12 14 -32 44 -44
67 l-22 41 34 6 c18 4 48 14 66 23 l32 16 -75 71 c-41 39 -108 100 -149 136
-92 82 -178 159 -204 185 -12 11 -65 61 -120 110 -55 50 -106 97 -115 105 -39
37 -222 202 -266 240 -46 40 -52 42 -64 20 -7 -13 -7 -20 0 -20 5 0 10 8 10
17 0 26 11 8 15 -26 2 -17 0 -31 -5 -31 -6 0 -10 -11 -10 -25 0 -32 -7 -31
-54 10 -37 31 -39 35 -28 60 7 14 12 36 12 48 0 13 5 28 12 35 9 9 9 12 -3 12
-10 0 -21 -16 -28 -42 -7 -24 -19 -58 -27 -76 -16 -37 -19 -92 -5 -92 5 0 12
16 15 35 4 19 9 35 13 35 3 0 23 -18 45 -41 38 -39 40 -40 59 -23 18 16 20 15
59 -24 26 -26 38 -45 34 -56 -4 -11 -1 -14 15 -11 18 3 20 0 14 -27 -3 -16 -1
-33 4 -37 11 -6 133 -116 236 -212 54 -50 59 -57 48 -77 -15 -29 1 -29 40 -1
25 17 30 18 35 5 3 -8 11 -13 17 -11 13 5 77 -74 77 -95 0 -9 9 -11 30 -6 21
4 29 2 24 -5 -4 -6 -2 -14 4 -18 7 -4 13 -18 15 -31 3 -18 10 -25 26 -24 14 0
20 -5 19 -15 -2 -9 3 -15 10 -13 10 2 11 -4 6 -20 -6 -19 -4 -21 7 -11 11 9
17 7 26 -13 9 -20 8 -26 -5 -33 -9 -5 -14 -13 -10 -17 4 -4 19 1 34 11 19 12
29 14 37 6 8 -8 7 -11 -3 -11 -8 0 -5 -7 9 -19 l21 -19 -22 -7 c-23 -8 -23 -8
3 -12 21 -3 34 -18 57 -61 16 -31 49 -93 72 -137 23 -44 47 -86 53 -94 9 -10
7 -16 -6 -26 -22 -16 -11 -26 20 -19 17 5 28 1 38 -12 13 -18 14 -18 20 -2 6
15 9 15 21 3 19 -18 18 -61 -1 -69 -17 -6 -21 -36 -4 -36 18 0 48 -44 48 -70
0 -14 -6 -34 -14 -44 -8 -11 -15 -14 -15 -7 0 7 -5 9 -11 6 -13 -9 -39 18 -64
68 -11 22 -24 47 -30 58 -5 10 -13 19 -17 19 -5 0 -8 5 -8 10 0 6 -15 35 -34
64 -18 29 -37 62 -40 74 -4 12 -11 22 -16 22 -5 0 -12 10 -16 22 -7 23 -9 26
-49 71 -14 15 -25 35 -25 44 0 23 -42 93 -56 93 -6 0 -29 17 -51 38 -21 20
-85 79 -141 131 -56 52 -99 98 -95 104 4 6 1 7 -6 2 -8 -4 -26 5 -47 26 -18
18 -35 31 -37 28 -13 -18 -25 -59 -17 -59 6 0 10 -7 10 -15 0 -8 -4 -15 -9
-15 -5 0 -13 -10 -17 -22 -5 -18 -8 -20 -18 -7 -6 8 -19 13 -28 11 -13 -2 -18
3 -18 18 0 27 28 70 47 70 12 0 12 2 -1 16 -22 21 -20 27 3 14 25 -13 31 -13
31 1 0 11 -45 59 -55 59 -2 0 -11 -12 -19 -27 -8 -16 -15 -23 -16 -16 0 7 -8
17 -18 22 -15 8 -18 5 -17 -17 0 -25 -3 -27 -40 -27 -33 0 -40 3 -40 19 0 13
8 20 25 23 54 8 54 26 0 81 -28 29 -55 52 -61 52 -14 0 -29 -43 -18 -54 15
-17 10 -23 -18 -23 -26 0 -28 4 -30 39 -1 30 2 38 13 34 17 -6 18 3 4 39 -9
24 -8 26 12 20 13 -4 46 -31 74 -61 28 -30 56 -54 62 -54 6 0 19 -11 30 -25
19 -24 42 -34 42 -17 0 4 -28 32 -61 62 -34 30 -74 68 -89 83 -15 16 -57 39
-95 53 -38 13 -71 27 -74 31 -3 4 -26 19 -51 31 -242 127 -305 162 -285 162
11 0 150 -70 278 -138 87 -47 87 -47 87 -30 0 16 -40 58 -56 58 -6 0 -17 6
-23 14 -7 8 -26 18 -42 21 -16 4 -29 10 -29 15 0 4 -12 11 -27 15 -15 3 -30
10 -33 13 -6 9 -49 34 -117 69 -50 26 -53 29 -55 68 -1 38 -1 38 -5 6 -4 -31
-6 -33 -36 -27 -17 4 -50 16 -72 28 -22 12 -50 26 -62 32 -18 8 -23 20 -25 51
l-1 40 -4 -37 c-2 -20 1 -46 7 -57 7 -15 6 -31 -5 -63 -8 -24 -44 -127 -79
-229 -35 -102 -70 -195 -77 -206 -11 -18 -7 -29 29 -87 23 -36 42 -68 42 -70
0 -3 20 -36 43 -73 24 -37 47 -75 51 -83 4 -8 12 -24 19 -35 7 -11 27 -47 46
-80 19 -33 43 -70 54 -83 20 -21 20 -23 2 -36 -17 -12 -16 -13 11 -19 22 -4
39 -21 67 -66 36 -56 67 -92 67 -77 0 4 -7 22 -14 41 -8 19 -12 35 -8 35 5 0
28 -20 52 -45 39 -39 41 -45 22 -45 -31 0 -17 -26 18 -33 19 -4 36 -20 56 -52
42 -67 61 -91 68 -84 4 3 2 19 -4 34 -6 15 -9 29 -7 31 2 2 41 -32 88 -76 54
-51 78 -80 67 -80 -10 0 -18 -7 -18 -15 0 -8 8 -15 18 -15 22 0 77 -56 87 -87
3 -13 11 -23 16 -23 5 0 9 -6 9 -14 0 -13 28 -31 36 -23 2 2 -5 20 -15 40 -16
32 -16 35 -2 27 9 -4 34 -27 56 -49 l39 -41 -28 0 c-24 0 -27 -2 -16 -15 7 -8
20 -15 28 -15 18 0 72 -48 72 -64 0 -6 14 -27 31 -46 l31 -35 -5 35 -5 35 257
-127 c141 -70 259 -127 264 -128 4 0 7 8 7 18 0 9 7 26 15 36 8 11 15 32 15
47 0 15 4 30 9 34 5 3 15 22 21 43 26 80 136 322 147 322 5 0 37 -7 73 -16 35
-8 86 -17 113 -20 28 -2 53 -7 57 -9 4 -3 -1 -22 -11 -42 -10 -21 -52 -116
-93 -210 -42 -95 -85 -190 -96 -210 -11 -21 -20 -43 -20 -50 0 -7 -4 -13 -10
-13 -5 0 -10 -7 -10 -16 0 -8 -4 -13 -9 -10 -5 4 -7 -3 -4 -14 4 -15 0 -20
-13 -20 -16 0 -17 -2 -4 -10 9 -6 112 -10 240 -10 217 0 230 -1 340 -30 63
-16 133 -36 155 -43 l40 -14 -53 -12 c-29 -6 -74 -11 -100 -12 -26 0 -41 -3
-34 -6 21 -8 2 -23 -31 -23 -18 -1 -59 -8 -92 -16 -33 -9 -70 -18 -82 -21 -13
-3 -20 -9 -17 -14 3 -5 1 -9 -5 -9 -5 0 -13 5 -16 10 -3 6 -19 10 -35 10 -16
0 -44 6 -62 14 -51 22 -189 59 -195 52 -4 -3 -14 1 -24 10 -11 10 -37 17 -64
18 -25 0 -45 4 -45 8 0 7 -58 26 -142 48 -36 9 -48 17 -48 31 0 11 -7 19 -15
19 -8 0 -23 4 -33 9 -74 41 -215 86 -232 76 -5 -3 -21 -3 -35 1 -19 5 -25 12
-22 25 3 12 -4 21 -24 30 -16 6 -33 17 -37 23 -4 6 -22 24 -40 41 -24 21 -41
28 -65 27 -27 -2 -41 6 -82 48 -28 28 -42 48 -31 44 28 -11 17 6 -40 59 -48
44 -84 63 -68 35 4 -7 -11 4 -33 25 -28 27 -39 45 -36 58 4 12 -7 31 -31 55
-20 20 -36 39 -36 42 0 3 -21 26 -47 49 -37 34 -54 43 -78 41 -23 -1 -41 7
-68 32 -21 19 -36 39 -33 46 6 16 -20 51 -31 41 -4 -5 1 -15 11 -23 11 -8 15
-14 9 -14 -16 0 -36 28 -28 40 10 16 -65 82 -80 70 -16 -13 -70 43 -62 64 3 8
2 18 -3 21 -6 4 -10 14 -10 23 0 9 -21 37 -47 62 -41 38 -70 89 -191 330 -78
157 -142 291 -142 299 0 16 17 70 35 116 7 17 20 55 30 85 9 30 20 64 25 75
11 23 22 55 92 260 27 83 54 157 59 166 9 18 56 17 154 -2z m-35 -296 c0 -7
-9 -17 -20 -23 -10 -6 -23 -25 -29 -43 -13 -43 -40 -120 -75 -214 -8 -21 -20
-53 -26 -70 -8 -21 -19 -33 -31 -33 -11 0 -19 1 -19 3 0 7 52 160 80 237 17
47 35 99 40 115 16 61 19 64 51 52 16 -6 29 -17 29 -24z m90 -135 c-19 -35
-42 -79 -53 -98 -11 -19 -35 -64 -55 -100 -19 -36 -39 -71 -45 -78 -7 -9 -4
-23 9 -47 10 -19 22 -35 26 -35 5 0 8 -5 8 -10 0 -6 9 -20 20 -32 11 -12 39
-53 62 -92 23 -39 44 -73 47 -76 4 -3 19 -25 35 -49 15 -24 40 -55 56 -70 15
-14 64 -62 109 -105 l81 -79 41 33 c46 37 58 34 36 -9 -14 -27 -13 -31 4 -47
18 -16 20 -16 39 6 26 30 33 22 18 -18 -11 -28 -10 -34 6 -49 17 -17 18 -17
33 5 9 12 23 22 32 22 11 0 12 -3 4 -8 -6 -4 -14 -19 -18 -34 -6 -23 -1 -33
27 -58 33 -31 33 -31 50 -10 26 32 41 25 23 -11 -13 -24 -14 -34 -4 -45 17
-20 34 -17 52 9 21 31 32 15 14 -21 -24 -49 18 -89 43 -42 6 11 15 20 20 20
12 0 13 -33 1 -45 -4 -6 -11 -24 -14 -41 -5 -28 0 -36 56 -86 34 -31 85 -79
114 -107 28 -28 56 -51 62 -51 6 0 11 -4 11 -9 0 -5 12 -14 28 -20 29 -12 90
-47 162 -93 30 -19 37 -27 20 -22 -14 3 -32 12 -40 19 -8 6 -52 32 -97 55 -46
25 -114 72 -155 109 -156 142 -227 214 -221 224 3 5 1 7 -5 4 -5 -4 -26 8 -45
25 -19 18 -85 80 -147 138 -62 58 -148 138 -191 178 -43 41 -101 95 -129 120
-46 41 -110 123 -110 140 0 4 -11 19 -25 34 -14 15 -25 30 -25 34 0 4 -11 22
-25 40 -14 18 -25 35 -25 39 0 3 -5 11 -10 18 -62 75 -96 156 -71 171 5 3 19
25 31 48 30 59 79 146 104 188 12 19 28 47 35 62 8 16 17 26 19 23 3 -2 -10
-33 -28 -67z m296 -368 c-6 -14 -16 -31 -23 -38 -7 -7 -13 -19 -13 -25 0 -7
-16 -36 -35 -66 -19 -29 -35 -65 -35 -79 -1 -26 -2 -26 -40 18 -22 25 -40 48
-40 53 0 13 20 7 40 -13 21 -21 40 -26 40 -11 0 5 -9 11 -20 14 -11 3 -20 12
-20 21 0 10 6 13 15 10 13 -5 17 4 14 32 0 3 6 11 15 17 8 7 24 29 35 49 16
30 18 43 11 64 -14 36 -14 37 29 6 35 -25 37 -29 27 -52z m361 -234 c31 -29
31 -31 15 -56 -9 -14 -22 -34 -29 -45 -6 -11 -16 -19 -23 -17 -16 4 -33 -17
-60 -73 -13 -27 -27 -52 -30 -55 -4 -3 -10 -12 -13 -20 -4 -12 -6 -12 -6 2 -1
15 37 95 57 122 5 6 12 19 15 28 5 15 4 16 -13 5 -11 -6 -20 -19 -20 -28 0 -9
-8 -25 -17 -37 -10 -11 -22 -28 -28 -37 -8 -13 -15 -15 -38 -6 -15 6 -27 14
-26 18 3 20 -2 32 -16 35 -10 2 -12 7 -5 18 8 12 15 9 43 -18 36 -35 47 -39
47 -18 0 8 -15 27 -34 41 -24 18 -32 31 -29 46 4 15 2 18 -11 13 -12 -4 -16 0
-16 15 0 31 20 25 67 -20 41 -39 63 -44 63 -14 0 8 -6 18 -14 22 -26 16 -78
64 -74 68 2 3 22 -11 44 -30 43 -39 60 -45 45 -16 -9 16 -8 18 11 13 14 -3 19
-2 14 7 -12 18 4 53 21 47 11 -5 13 -1 8 15 -9 26 6 19 52 -25z m-15 -188 c-2
-10 0 -18 5 -18 11 0 10 -67 -1 -77 -18 -19 18 -66 120 -155 10 -9 25 -24 32
-33 7 -8 18 -13 24 -9 6 4 14 0 19 -7 8 -13 -25 -80 -43 -87 -20 -9 -4 -40 42
-83 28 -26 50 -52 50 -57 0 -26 -20 -18 -67 26 l-50 47 5 78 5 77 -26 0 c-21
0 -26 5 -29 28 -2 20 -9 28 -28 30 -32 5 -39 12 -42 44 -2 18 -7 24 -17 20 -9
-4 -12 -1 -7 7 5 7 1 20 -7 29 -8 9 -16 22 -18 29 -3 9 -9 9 -19 2 -13 -8 -13
-11 1 -22 25 -19 7 -57 -23 -49 -12 3 -17 7 -10 10 6 2 12 19 12 38 0 27 -5
37 -22 44 -13 5 -17 9 -10 9 6 1 12 8 12 16 0 13 4 12 22 -5 29 -27 46 -25 58
6 14 36 13 41 -11 47 -15 4 -20 11 -15 22 3 9 6 23 6 31 0 11 4 10 18 -3 10
-10 16 -26 14 -35z m442 -279 c31 -27 34 -33 23 -52 -7 -12 -14 -24 -17 -27
-3 -3 -16 -27 -30 -55 -26 -51 -50 -84 -50 -67 0 6 -9 8 -20 5 -24 -6 -21 -29
3 -27 9 1 15 -1 13 -5 -1 -3 -6 -14 -9 -24 -6 -17 -8 -17 -32 -1 -13 9 -31 30
-40 47 -19 38 -19 40 4 27 14 -7 22 -7 26 0 4 6 10 8 15 5 5 -3 13 7 16 22 4
15 13 33 20 38 7 6 22 27 33 47 15 28 18 44 11 67 -5 17 -7 31 -5 31 3 0 20
-14 39 -31z m1506 5 c17 -4 47 -21 66 -39 28 -27 34 -39 30 -62 -3 -15 -17
-38 -31 -50 -22 -20 -38 -23 -101 -23 -41 0 -77 -1 -81 -2 -4 -2 -11 12 -16
31 -9 38 -42 70 -72 71 -15 0 -11 6 18 26 69 46 123 60 187 48z m-1423 -1002
c-15 -27 -23 -53 -19 -57 4 -5 2 -5 -5 -1 -8 4 -15 -2 -19 -19 -5 -22 -9 -24
-22 -13 -13 11 -14 10 -4 -9 16 -29 15 -34 -5 -26 -11 5 -14 3 -8 -6 7 -13
-10 -55 -32 -79 -7 -7 -13 -20 -13 -28 0 -8 -4 -14 -8 -14 -4 0 -15 -13 -25
-29 l-17 -29 47 0 c50 0 87 13 78 28 -6 9 83 54 128 64 38 9 35 -14 -6 -38
-25 -15 -28 -20 -14 -23 9 -3 17 -11 17 -19 0 -8 8 -14 17 -14 13 0 14 3 5 12
-9 9 -2 18 27 39 30 23 53 30 111 35 63 6 73 5 68 -8 -4 -9 5 -21 27 -33 35
-18 54 -45 32 -45 -7 0 -30 9 -52 20 -44 22 -67 25 -96 10 -23 -13 -25 -30 -4
-30 8 0 15 -4 15 -9 0 -5 12 -14 28 -19 l27 -9 -35 -8 c-19 -4 -41 -12 -47
-17 -9 -7 -21 -5 -38 6 -30 20 -39 20 -32 1 4 -10 -5 -17 -31 -25 -20 -5 -43
-10 -50 -10 -7 0 -10 -4 -7 -10 3 -5 30 -10 60 -10 58 0 73 -13 47 -42 -14
-16 -13 -18 1 -18 21 0 22 -26 2 -34 -23 -8 -18 -25 9 -32 23 -5 63 -50 54
-59 -2 -2 -15 -8 -28 -14 l-25 -10 23 0 c15 -1 21 -5 16 -13 -4 -6 -11 -70
-15 -142 -8 -146 -30 -231 -80 -304 -39 -58 -39 -65 -4 -73 26 -6 23 -7 -17
-8 -27 0 -48 -5 -48 -10 0 -9 19 -14 98 -26 35 -6 41 -9 31 -21 -9 -11 0 -18
44 -39 62 -28 89 -31 109 -12 23 22 67 47 83 47 8 0 15 6 15 14 0 17 25 27 46
19 9 -3 19 -2 23 4 6 10 107 53 123 53 6 0 8 -7 4 -15 -3 -10 1 -15 14 -15 23
0 35 16 18 23 -10 4 -9 8 2 17 10 7 43 9 95 6 44 -3 85 -2 91 2 16 10 12 58
-5 54 -7 -1 -10 2 -6 7 3 6 12 8 20 4 11 -3 13 -1 10 10 -11 26 60 73 126 84
32 5 62 6 67 1 5 -5 51 -11 103 -14 93 -5 113 -5 176 -2 24 1 38 -5 53 -25 12
-15 26 -27 31 -27 14 0 139 -82 139 -92 0 -4 8 -8 18 -8 11 0 29 -9 42 -20 18
-15 20 -23 11 -34 -13 -15 -1 -29 34 -40 11 -3 45 -42 74 -86 30 -44 58 -80
62 -80 18 0 34 -83 20 -108 -6 -11 -3 -33 10 -67 23 -62 24 -113 2 -137 -15
-17 -14 -18 25 -18 23 0 42 -2 42 -3 0 -2 -7 -18 -15 -34 -17 -35 -54 -47
-170 -59 -121 -12 -120 -12 -123 19 -3 20 -8 27 -20 25 -20 -4 -26 -36 -17
-95 5 -38 11 -46 47 -64 30 -15 37 -24 29 -32 -6 -6 -11 -17 -11 -25 0 -8 -14
-32 -31 -53 -17 -22 -32 -50 -33 -63 0 -14 -5 -24 -10 -23 -6 1 -12 -6 -14
-17 -2 -11 0 -16 6 -12 6 4 15 -1 20 -10 5 -9 12 -15 15 -15 30 4 24 -3 -13
-14 -24 -8 -45 -13 -47 -12 -1 2 2 32 7 67 12 80 13 160 2 160 -4 0 -12 -4
-17 -9 -6 -5 -51 -12 -102 -16 -90 -7 -91 -7 -96 17 -4 21 -4 21 -6 -4 l-1
-28 89 0 88 0 7 -37 c7 -48 -6 -59 -74 -62 -38 -1 -50 2 -50 14 0 9 -6 12 -15
9 -20 -8 -20 -54 1 -54 8 0 12 5 8 11 -4 8 -1 8 13 1 24 -13 81 -9 113 8 21
11 23 11 14 -1 -7 -8 -14 -23 -16 -34 -2 -11 -8 -20 -13 -20 -18 -1 -75 -30
-75 -38 0 -5 28 -8 63 -7 112 3 148 0 142 -10 -3 -5 -12 -7 -20 -3 -8 3 -15 0
-15 -7 0 -7 -8 -20 -19 -29 -27 -24 -71 -92 -71 -110 1 -12 5 -10 21 8 l19 24
110 -18 109 -19 -29 -24 c-17 -14 -30 -31 -30 -38 0 -8 -4 -14 -10 -14 -5 0
-10 -5 -10 -11 0 -6 -6 -16 -12 -23 -7 -7 -24 -27 -37 -44 -24 -33 -51 -42
-51 -19 0 13 26 56 44 72 6 6 19 22 28 37 16 24 16 27 1 32 -19 8 -105 -3 -99
-13 2 -3 -12 -7 -32 -8 -21 0 -52 -4 -69 -8 -26 -6 -33 -4 -33 8 0 9 4 19 10
22 13 8 80 129 80 143 0 27 -26 9 -43 -30 -13 -32 -20 -39 -29 -30 -7 7 -31
12 -55 12 -39 0 -43 -2 -43 -25 0 -29 -8 -32 -26 -7 -10 14 -15 15 -25 5 -23
-23 5 -35 75 -31 36 1 66 0 66 -3 0 -4 -8 -16 -17 -27 -14 -17 -37 -23 -112
-31 -51 -6 -96 -13 -100 -16 -3 -4 70 -5 162 -3 159 3 167 2 147 -14 -11 -9
-46 -26 -77 -38 -49 -18 -118 -70 -93 -70 5 0 11 4 15 9 3 5 39 -1 83 -15 42
-14 111 -27 153 -30 l76 -5 51 53 c28 29 68 74 88 101 20 26 39 45 42 43 2 -3
-3 -12 -12 -21 -9 -9 -16 -20 -16 -25 0 -10 -54 -74 -102 -120 -36 -35 -36
-36 -20 -64 13 -22 14 -30 4 -33 -23 -8 -12 -23 17 -23 16 0 34 7 41 15 7 8
20 15 29 15 9 0 29 7 45 15 41 22 41 19 -3 -20 -21 -19 -45 -35 -53 -35 -8 0
-23 -7 -34 -15 -24 -19 -38 -19 -31 -1 10 26 -48 31 -72 7 l-21 -21 23 -1 c12
-1 4 -5 -18 -8 -22 -3 -41 -3 -43 2 -6 13 -22 7 -22 -8 0 -12 -4 -13 -17 -7
-10 5 -58 9 -108 7 -86 -2 -90 -3 -87 -23 3 -20 -1 -22 -39 -22 -32 0 -50 6
-68 24 -20 19 -42 27 -100 33 -44 5 -76 13 -79 21 -2 8 7 12 26 12 28 0 29 1
19 25 -13 26 -68 41 -118 33 -19 -3 -15 -6 21 -15 39 -9 41 -11 15 -12 -17 -1
-35 -5 -40 -10 -6 -5 -21 -11 -35 -13 -21 -4 -18 -6 15 -12 22 -5 57 -21 77
-37 22 -17 35 -23 32 -14 -3 8 -3 15 1 15 6 0 154 -124 240 -202 47 -42 135
-125 196 -184 37 -35 74 -64 82 -64 9 0 18 -4 22 -9 3 -5 20 -13 37 -17 18 -3
39 -10 48 -15 16 -9 63 -29 122 -53 36 -14 37 -14 29 7 -5 12 -20 43 -33 68
-113 212 -48 517 133 617 47 26 139 52 184 52 55 0 169 -22 178 -34 4 -7 10
-6 16 4 8 12 12 12 29 -3 10 -9 24 -17 30 -17 7 0 12 -9 12 -20 0 -11 6 -20
13 -21 6 0 21 -3 32 -5 11 -2 37 -7 58 -10 26 -4 37 -11 33 -20 -3 -8 0 -11 8
-8 7 3 26 0 42 -7 l29 -11 -45 -21 c-25 -12 -47 -23 -49 -24 -2 -1 -1 -10 3
-19 5 -13 9 -14 21 -4 8 7 12 16 9 21 -3 5 16 8 42 7 38 -2 48 -7 57 -25 6
-13 14 -23 19 -23 12 0 1 37 -23 76 -24 39 -24 43 -1 37 10 -2 23 -18 30 -35
11 -30 13 -31 56 -25 50 7 56 3 76 -61 13 -41 15 -43 44 -38 17 4 34 10 38 14
8 8 -13 82 -24 82 -3 0 -9 14 -13 30 -7 33 -22 37 -63 16 -42 -22 -86 -24 -90
-4 -2 10 6 19 20 23 13 4 45 18 72 31 28 13 60 24 72 24 24 0 52 -26 34 -32
-6 -2 -1 -24 15 -56 14 -28 25 -63 25 -77 0 -16 6 -25 15 -25 24 0 31 -31 10
-46 -22 -16 -28 -114 -7 -114 7 0 11 4 8 9 -8 13 23 36 34 25 5 -5 12 -22 16
-38 6 -26 5 -28 -12 -21 -23 10 -44 10 -65 1 -13 -6 -17 3 -23 55 -3 34 -8 64
-10 66 -2 3 -28 -3 -57 -11 -66 -20 -79 -20 -79 -1 0 8 -7 15 -15 15 -18 0
-19 -14 -4 -43 15 -28 28 -37 58 -37 22 0 23 -2 17 -46 l-6 -46 105 4 105 3 1
50 c1 28 3 41 6 30 2 -11 6 -31 9 -43 3 -15 10 -22 18 -19 8 3 19 0 26 -6 10
-9 12 -8 7 6 -5 13 -1 17 14 17 20 0 21 -4 14 -47 -9 -65 -26 -123 -37 -123
-4 0 -8 5 -8 10 0 22 -48 9 -73 -20 -28 -31 -34 -50 -17 -50 6 0 10 7 10 16 0
9 6 14 13 11 6 -2 12 -16 12 -30 -1 -16 5 -27 12 -27 40 0 -66 -109 -107 -111
-14 0 -43 -8 -65 -18 l-40 -18 29 -7 c22 -5 25 -10 17 -20 -6 -7 -9 -22 -5
-32 5 -15 4 -16 -4 -5 -12 16 -96 17 -138 1 -17 -7 -23 -7 -19 0 4 6 -12 10
-39 10 -36 0 -44 3 -40 15 4 8 15 15 25 15 11 0 19 7 19 16 0 20 -25 16 -120
-17 l-65 -23 50 -14 c28 -8 71 -13 98 -13 26 1 47 0 47 -3 0 -8 -63 -36 -82
-36 -10 0 -30 7 -43 16 -23 15 -34 15 -122 2 -27 -3 -11 -17 40 -33 28 -9 61
-20 72 -25 11 -5 70 -25 130 -45 61 -20 114 -41 119 -46 6 -5 20 -9 31 -9 12
0 25 -3 29 -7 4 -4 25 -13 47 -19 38 -11 41 -11 64 14 14 15 25 30 25 33 0 3
9 17 20 30 29 35 34 41 52 70 9 14 23 32 30 40 8 8 17 22 21 32 8 22 23 22 44
-3 10 -11 24 -20 32 -20 10 0 8 7 -9 25 -12 13 -27 22 -31 19 -23 -14 -4 20
49 88 31 42 64 86 72 98 8 12 20 28 25 34 6 6 21 28 35 48 14 21 28 38 31 38
4 0 12 13 18 28 13 31 16 23 -95 259 -19 39 -34 75 -34 79 0 4 -10 27 -21 51
-12 24 -19 46 -17 48 2 3 15 -20 29 -50 24 -55 47 -78 29 -29 -6 14 -10 28
-10 32 0 13 37 -53 43 -78 10 -38 22 -51 39 -45 13 5 12 14 -8 63 -13 31 -38
89 -57 127 -19 39 -38 81 -42 95 -4 14 -20 50 -35 80 -25 50 -80 163 -88 182
-2 5 1 8 7 8 6 0 19 -15 27 -33 13 -26 31 -40 78 -61 33 -15 74 -30 89 -33 15
-3 41 -22 58 -42 24 -28 29 -31 24 -13 -5 19 -3 22 19 22 13 0 31 -7 39 -15
14 -13 72 -129 108 -212 8 -18 20 -33 26 -33 17 0 19 -5 -26 85 -21 44 -41 94
-45 110 l-7 30 18 -30 c10 -16 27 -49 38 -72 11 -24 23 -43 28 -43 10 0 9 16
-2 38 -26 52 -41 95 -35 104 4 7 10 5 16 -6 5 -9 16 -16 24 -16 9 0 14 -6 11
-12 -6 -17 24 -68 39 -68 7 0 14 6 17 14 4 9 25 15 61 18 61 3 71 -11 18 -26
-18 -5 -32 -13 -32 -18 0 -5 4 -7 10 -3 5 3 25 6 45 7 27 1 34 5 30 16 -4 11
0 13 17 9 125 -30 152 -45 195 -101 33 -45 32 -59 -4 -70 -37 -12 -26 -25 15
-19 l37 5 37 -78 36 -79 -22 -12 c-11 -7 -30 -13 -41 -13 -19 -1 -19 -1 -2
-11 18 -11 105 6 162 31 11 4 65 20 120 35 55 15 108 29 119 32 12 3 16 1 12
-6 -4 -6 -15 -11 -24 -11 -9 -1 -28 -7 -42 -15 l-25 -14 24 -1 c22 0 22 -1
-10 -22 -61 -41 -172 -84 -189 -73 -6 4 -24 3 -42 0 -20 -5 -26 -10 -18 -15
21 -13 -8 -23 -62 -21 -26 1 -48 -3 -48 -7 0 -5 11 -7 25 -4 16 3 25 0 25 -8
0 -8 9 -10 27 -6 17 5 29 3 34 -6 13 -19 11 -28 -4 -22 -8 3 -20 -2 -27 -11
-7 -8 -18 -15 -25 -15 -7 0 -26 -7 -41 -15 -16 -8 -39 -15 -51 -15 -13 0 -23
-4 -23 -10 0 -5 -10 -10 -22 -11 -13 0 -17 -3 -11 -6 7 -2 45 5 84 17 52 16
74 19 82 11 8 -8 6 -11 -8 -11 -11 0 -29 -10 -40 -23 -11 -13 -29 -26 -40 -29
-45 -13 -201 -69 -216 -77 -20 -11 -89 -26 -106 -23 -7 2 -25 -4 -40 -12 l-28
-16 40 2 c22 1 107 23 189 50 82 26 150 48 152 48 2 0 1 -7 -2 -15 -7 -17 11
-21 22 -4 3 6 14 9 24 6 11 -3 26 6 41 24 13 16 30 29 37 29 7 0 20 4 30 9 33
18 141 53 151 50 13 -5 -60 -99 -77 -99 -7 0 -10 -4 -7 -10 9 -14 -81 -127
-115 -145 -16 -8 -34 -15 -40 -15 -7 0 -26 -6 -43 -14 -18 -7 -51 -21 -74 -30
-24 -9 -60 -23 -80 -31 -21 -8 -76 -27 -123 -44 -163 -57 -255 -91 -271 -100
-9 -5 -33 -13 -53 -16 -20 -4 -36 -11 -36 -15 0 -5 -18 -11 -40 -15 -22 -4
-40 -11 -40 -16 0 -5 -6 -9 -12 -9 -7 0 -76 -23 -152 -51 l-139 -50 -156 55
c-86 30 -214 76 -286 101 -128 46 -317 111 -445 155 -36 12 -74 25 -85 30 -32
15 -108 41 -135 47 -14 3 -29 9 -35 13 -5 4 -57 23 -115 43 -157 53 -161 56
-251 141 -46 43 -109 101 -139 129 -30 28 -120 112 -200 187 -126 119 -150
138 -187 143 -41 7 -95 31 -121 55 -9 8 -45 12 -102 12 -49 0 -91 4 -94 9 -4
5 -30 14 -58 21 -163 34 -346 189 -435 365 -59 119 -77 179 -94 319 -10 77
-10 120 0 204 7 58 16 113 21 123 7 12 0 39 -26 95 -19 44 -39 88 -44 99 -12
28 -49 114 -65 150 -8 17 -16 38 -19 49 -5 13 -12 17 -30 12 -14 -3 -26 -1
-28 4 -2 6 -30 15 -62 20 -266 43 -412 422 -270 701 28 56 126 159 151 159 23
0 91 46 101 68 6 15 24 50 41 77 16 28 40 69 52 93 12 23 26 42 30 42 4 0 11
10 15 23 4 12 10 24 14 27 3 3 19 25 34 50 16 25 25 37 22 27 -5 -17 -3 -16
21 2 37 30 40 19 10 -37z m939 -199 c76 -20 156 -37 176 -37 22 0 33 -3 25 -8
-9 -6 -8 -8 3 -8 8 0 26 -3 39 -7 18 -5 22 -3 16 7 -6 10 -3 11 16 6 13 -4 35
-9 49 -10 41 -5 42 -5 36 -21 -6 -17 29 -35 68 -35 13 0 42 -18 66 -40 51 -47
76 -42 29 6 -23 24 -45 35 -78 40 -25 4 -52 14 -60 22 -13 13 -8 14 40 8 30
-4 74 -14 99 -22 45 -14 64 -29 210 -168 42 -39 88 -81 103 -93 26 -20 26 -22
10 -32 -16 -9 -14 -10 11 -11 21 0 45 -16 95 -64 36 -35 87 -81 113 -102 26
-22 47 -45 47 -51 1 -7 5 -13 10 -13 9 0 89 -71 226 -202 38 -37 85 -79 103
-93 17 -15 32 -33 32 -41 0 -8 6 -14 13 -14 15 0 35 -17 182 -154 55 -52 113
-105 129 -118 22 -19 31 -37 36 -74 4 -27 11 -68 15 -91 6 -34 5 -43 -7 -43
-18 0 -38 20 -38 39 0 25 -58 135 -85 161 -14 14 -35 35 -47 48 -21 21 -48 30
-48 15 1 -13 83 -98 92 -95 5 1 8 -3 7 -10 -4 -22 13 -68 22 -62 5 3 9 -4 9
-16 0 -12 4 -19 9 -16 5 4 7 -3 4 -14 -3 -11 0 -20 5 -20 15 0 62 -70 62 -92
0 -10 12 -42 26 -71 14 -28 38 -83 54 -122 15 -38 46 -108 68 -155 53 -115
153 -348 163 -383 7 -23 5 -28 -6 -23 -19 7 -19 -7 0 -44 20 -38 36 -80 30
-80 -5 0 -55 107 -55 119 0 6 -4 11 -9 11 -5 0 -12 14 -16 30 -4 17 -11 30
-16 30 -5 0 -9 5 -9 11 0 11 -23 63 -80 184 -21 44 -53 112 -70 150 -59 128
-78 169 -129 278 -28 60 -51 112 -51 115 0 4 -12 30 -25 57 -14 28 -25 64 -25
80 0 24 -2 27 -11 15 -9 -12 -10 -11 -6 8 3 12 1 20 -3 17 -9 -6 -96 69 -239
205 -108 102 -275 256 -284 262 -8 5 -8 11 -2 17 7 7 29 -7 65 -42 97 -93 154
-142 144 -126 -10 18 -163 164 -195 187 -16 11 -19 11 -19 -2 0 -20 -19 -21
-26 -1 -4 8 -12 15 -19 15 -9 0 -12 10 -9 30 4 24 2 29 -10 24 -9 -3 -16 -11
-16 -18 0 -6 -9 -20 -21 -30 -21 -17 -21 -17 -14 22 6 38 5 41 -40 78 -26 22
-70 62 -99 89 -47 45 -174 162 -298 275 -32 29 -48 52 -49 69 -1 17 -3 20 -6
8 -4 -16 -7 -15 -32 6 -15 12 -45 28 -67 34 -21 7 -61 18 -89 26 -131 38 -203
60 -240 72 -22 7 -93 30 -158 50 -94 30 -117 40 -112 53 3 8 0 19 -7 24 -28
17 33 7 168 -29z m554 -793 c19 -7 67 -27 105 -46 50 -23 78 -31 98 -27 30 6
80 -14 71 -29 -3 -4 2 -8 10 -8 8 0 21 -10 27 -22 9 -18 8 -24 -6 -34 -20 -15
-22 -7 41 -124 13 -25 24 -57 24 -72 0 -16 4 -28 9 -28 5 0 13 -9 16 -20 3
-11 14 -20 24 -20 42 0 66 -58 43 -104 -13 -27 -15 -28 -24 -12 -8 13 -7 21 3
27 21 12 -9 61 -33 53 -13 -4 -18 0 -18 13 -1 19 -22 53 -34 53 -3 0 -7 -17
-7 -37 -1 -21 -4 -29 -6 -19 -6 22 -58 121 -73 139 -6 7 -26 33 -46 60 -35 47
-36 61 -2 30 29 -26 30 -10 2 30 -13 20 -20 37 -14 37 16 0 12 25 -8 43 -10
10 -32 19 -48 20 -16 2 -40 10 -53 16 -23 13 -23 12 -17 -14 l7 -27 -28 26
c-15 15 -63 43 -105 64 -80 38 -90 48 -60 54 17 4 39 0 102 -22z m3620 -808
c0 -5 25 -10 56 -11 33 -1 70 -10 91 -22 26 -15 38 -17 43 -9 5 9 9 9 14 1 4
-6 2 -11 -3 -11 -6 0 -10 -4 -8 -8 2 -9 -34 -61 -60 -88 -19 -18 -18 -20 36
-75 52 -53 66 -60 58 -30 -3 14 0 17 14 14 15 -4 18 -1 13 11 -3 9 -11 16 -17
16 -6 0 -7 3 -4 6 4 4 13 2 20 -5 20 -16 41 10 33 41 -3 13 -3 17 0 11 9 -21
37 -16 29 4 -5 15 -3 14 13 -2 19 -20 19 -20 -2 -48 -11 -16 -26 -37 -31 -46
-6 -10 -18 -25 -27 -34 -9 -9 -18 -22 -20 -29 -6 -17 -298 279 -298 301 0 8
16 16 43 20 4 0 7 -3 7 -7z m365 -274 c15 -18 58 -65 95 -104 69 -70 69 -70
52 -96 -21 -31 -48 -58 -59 -58 -4 0 -53 45 -107 99 l-99 99 38 46 c20 25 41
46 45 46 5 0 20 -15 35 -32z m-3581 -9 c-3 -5 -13 -9 -22 -9 -14 0 -14 -2 -3
-9 11 -7 3 -12 -30 -21 -48 -12 -69 -32 -69 -64 0 -12 -7 -34 -15 -50 -8 -15
-15 -33 -15 -40 0 -6 -7 -20 -15 -30 -26 -35 -34 -5 -14 54 10 30 19 69 21 85
l3 30 -82 -4 c-82 -3 -83 -3 -83 21 0 13 4 28 10 34 12 12 322 15 314 3z
m3230 -45 c23 -9 20 -24 -4 -24 -11 0 -20 -5 -20 -11 0 -6 9 -9 19 -6 14 3 20
-2 24 -23 6 -27 -1 -70 -12 -80 -3 -3 -11 -14 -17 -25 -19 -35 -72 -63 -133
-70 -52 -6 -67 -3 -113 18 -45 21 -49 25 -26 26 33 1 88 54 88 86 0 12 -7 36
-15 51 -15 29 -15 29 18 32 17 1 41 7 52 12 18 8 39 12 107 18 9 1 23 -1 32
-4z m566 -136 c0 6 5 12 11 12 5 0 7 -5 3 -12 -5 -7 -2 -9 8 -6 8 4 21 2 29
-3 10 -6 8 -9 -10 -9 l-24 0 22 -24 c13 -14 20 -30 16 -37 -5 -7 22 -40 74
-89 80 -76 81 -77 61 -95 -11 -10 -20 -22 -20 -27 0 -4 -8 -16 -19 -27 -18
-18 -21 -16 -135 99 -83 84 -115 122 -110 134 3 9 10 16 15 16 5 0 9 5 9 11 0
6 12 24 27 40 19 20 29 25 35 16 6 -9 8 -9 8 1z m-308 -277 c18 -2 78 -65 78
-82 0 -10 4 -19 8 -19 5 0 14 -24 21 -54 11 -49 10 -59 -8 -98 -11 -24 -28
-51 -38 -60 -40 -36 -173 -50 -240 -26 -38 14 -43 28 -10 28 53 0 91 84 62
139 -18 36 -68 65 -95 56 -29 -9 -25 -1 25 49 49 48 112 76 160 71 17 -2 33
-4 37 -4z m655 -77 c18 2 30 -1 28 -5 -3 -4 -2 -14 1 -23 5 -14 9 -14 22 -4
13 11 14 10 4 -8 -10 -18 -8 -23 13 -34 13 -7 22 -17 18 -23 -3 -5 4 -4 16 2
17 10 20 9 15 -4 -4 -8 -10 -15 -15 -15 -17 0 -4 -23 39 -67 23 -25 42 -47 42
-49 0 -2 -10 -24 -22 -50 -23 -45 -23 -46 -3 -60 54 -38 65 -48 65 -56 0 -5
-6 -3 -14 4 -7 7 -24 20 -37 28 -13 8 -103 94 -200 191 l-177 176 41 42 42 41
45 -44 c36 -35 51 -43 77 -42z m-1110 -984 c-26 -33 -47 -64 -47 -69 0 -5 -4
-11 -9 -13 -5 -1 -37 -39 -72 -83 -34 -44 -66 -81 -71 -83 -15 -6 -8 -21 40
-85 26 -36 54 -75 62 -87 8 -12 22 -30 30 -40 8 -10 22 -28 30 -40 8 -12 20
-28 25 -34 6 -6 37 -51 70 -101 33 -49 92 -121 131 -160 172 -169 233 -224
239 -215 3 6 13 10 21 10 8 0 24 9 36 20 12 11 28 20 35 20 18 0 16 -35 -2
-50 -21 -17 -19 -37 6 -51 17 -9 25 -7 43 10 12 12 28 21 34 21 17 0 15 -35
-3 -50 -20 -17 -19 -33 5 -55 20 -18 21 -18 41 3 11 12 26 22 35 22 12 0 12
-5 -1 -37 l-16 -37 39 -38 38 -39 24 21 c12 11 29 20 37 20 18 0 17 -36 -2
-44 -22 -8 -18 -44 7 -57 18 -10 24 -8 37 8 9 11 26 22 38 25 19 5 21 3 13
-17 -5 -13 -15 -33 -22 -44 -11 -18 -10 -24 9 -42 l21 -21 18 21 c20 23 54 28
54 8 0 -7 -8 -23 -17 -37 -31 -44 -26 -69 21 -114 258 -243 214 -209 459 -356
114 -69 203 -126 198 -128 -9 -3 -35 10 -126 65 -11 7 -27 15 -35 19 -8 4 -43
25 -78 46 -34 21 -64 38 -67 38 -3 0 -29 16 -59 35 -30 19 -57 35 -60 35 -3 0
-27 21 -54 48 -75 73 -335 318 -388 365 -25 23 -70 64 -98 92 -29 27 -113 106
-187 175 -125 117 -185 173 -300 281 -44 42 -153 181 -178 228 -7 12 -16 19
-21 16 -6 -3 -7 1 -4 9 4 9 -1 18 -10 22 -9 3 -16 10 -16 16 0 8 -48 77 -80
115 -5 7 -10 17 -10 22 0 6 -6 14 -12 18 -15 9 -36 41 -44 66 -4 9 -10 17 -15
17 -23 0 -5 48 37 99 25 31 50 63 57 71 120 153 151 189 156 184 2 -2 -17 -31
-42 -64z m415 -419 c1 -5 19 -20 40 -33 l36 -25 -21 -25 c-12 -14 -44 -54 -72
-88 -27 -35 -63 -76 -78 -93 l-28 -31 -45 45 c-37 36 -46 41 -54 29 -8 -12
-10 -11 -10 6 0 23 26 51 32 36 1 -5 13 -13 26 -16 17 -6 22 -3 22 11 0 10 5
25 10 33 8 12 10 10 8 -9 -2 -13 3 -26 10 -28 7 -3 12 4 12 18 0 12 3 20 6 16
4 -3 21 10 38 30 17 20 39 44 48 54 14 15 15 19 2 30 -8 6 -14 22 -14 36 0 16
-4 22 -12 17 -7 -4 -8 -3 -4 4 8 13 41 1 48 -17z m492 -150 c37 -37 37 -38 11
-33 -16 3 -24 10 -21 17 5 14 -31 28 -38 16 -3 -4 2 -20 10 -35 20 -39 18 -60
-3 -51 -52 21 -72 13 -38 -15 8 -7 15 -19 15 -28 0 -11 -8 -13 -35 -9 -26 4
-35 2 -35 -9 0 -8 5 -14 10 -14 6 0 10 -9 10 -20 0 -12 -7 -20 -16 -20 -22 0
-47 27 -38 42 4 8 3 9 -2 5 -19 -18 -3 -77 20 -77 3 0 15 -9 26 -20 11 -11 16
-20 11 -20 -5 0 -17 7 -25 16 -9 8 -16 11 -16 5 0 -15 -23 -14 -55 3 -17 9
-22 16 -13 19 7 3 8 6 2 6 -6 1 -22 -15 -35 -34 -18 -25 -31 -35 -51 -35 -20
0 -26 -4 -22 -15 4 -8 12 -15 19 -15 6 0 32 -21 57 -47 24 -27 53 -55 64 -63
11 -8 34 -27 52 -42 32 -26 59 -38 48 -20 -10 17 12 31 59 37 46 6 52 5 75
-21 25 -26 25 -27 3 -22 -12 3 -22 3 -21 -1 2 -19 -4 -21 -18 -6 -9 8 -13 22
-10 30 9 25 -7 17 -41 -20 l-32 -35 24 -26 c14 -15 25 -29 25 -31 0 -10 -42
20 -53 38 -12 20 -84 59 -109 59 -23 0 -56 29 -60 52 -2 17 -13 25 -40 31 -33
8 -38 13 -38 38 0 28 -1 29 -51 29 l-50 0 28 50 c25 45 29 48 45 34 22 -21 48
-11 76 28 12 18 38 51 57 73 31 36 50 95 25 80 -5 -3 -10 -1 -10 5 0 6 10 8
24 4 19 -4 33 5 76 50 29 31 56 56 60 56 3 0 23 -17 44 -39z m170 -386 c3 -8
12 -15 21 -15 8 0 15 -7 15 -15 0 -8 3 -15 8 -15 4 0 18 -9 30 -18 l24 -18
-45 -49 c-39 -41 -48 -47 -61 -36 -13 11 -17 11 -22 -3 -3 -9 -12 -16 -20 -16
-18 0 -18 -36 0 -47 7 -4 34 -27 60 -50 43 -38 46 -43 34 -62 -15 -24 -38 -28
-38 -6 0 8 -6 15 -14 15 -7 0 -30 18 -50 40 -31 34 -56 50 -56 36 0 -2 -3 -12
-7 -22 -4 -11 -2 -15 4 -11 6 4 29 -11 52 -32 36 -33 39 -40 26 -51 -9 -7 -15
-8 -15 -2 0 5 -17 14 -37 19 -21 5 -39 14 -39 21 -1 7 -2 14 -3 17 0 3 -1 8 0
12 0 3 -6 10 -15 15 -13 8 -12 12 7 34 22 25 41 64 31 64 -9 0 -64 -60 -64
-70 0 -6 -7 -10 -15 -10 -8 0 -15 7 -15 15 0 8 5 15 10 15 6 0 10 9 10 20 0
13 5 18 15 14 10 -4 18 3 25 20 5 15 16 29 24 32 17 6 40 59 32 72 -3 5 4 18
14 30 11 12 20 24 20 26 0 9 34 46 41 46 4 0 9 -7 13 -15z m361 -415 c10 -12
34 -30 52 -41 26 -16 31 -24 24 -37 -9 -17 -104 -126 -162 -188 -32 -34 -37
-49 -14 -40 18 6 20 -5 3 -22 -15 -15 -38 3 -38 28 0 22 -69 82 -83 73 -6 -4
-8 1 -4 11 4 10 7 21 7 26 0 5 14 1 31 -7 23 -12 33 -13 39 -4 4 7 13 11 20 9
7 -2 18 6 24 17 6 11 30 40 53 65 27 29 41 50 37 60 -4 8 -6 25 -6 37 1 13 -5
23 -16 26 -14 4 -14 5 -1 6 9 0 24 -8 34 -19z"/>
<path d="M4081 9843 c-11 -13 -9 -20 20 -49 18 -19 39 -34 46 -34 20 0 15 -20
-4 -20 -15 -1 -14 -3 4 -13 27 -15 125 -107 145 -136 9 -13 49 -33 99 -50 46
-16 93 -32 104 -36 16 -6 15 -3 -5 14 -14 11 -29 21 -35 21 -5 0 -41 30 -80
66 -38 37 -94 80 -123 97 -30 16 -49 33 -43 36 16 10 -5 35 -32 36 -33 2 -76
33 -59 44 10 6 8 11 -5 23 -16 14 -20 14 -32 1z"/>
<path d="M4637 9734 c-3 -3 11 -21 31 -41 l37 -35 -30 7 c-27 6 -26 3 15 -23
25 -16 73 -57 106 -90 50 -50 68 -62 94 -62 17 0 40 -5 51 -10 37 -21 17 6
-52 65 -38 33 -89 70 -114 83 -25 13 -45 26 -45 30 0 11 -87 82 -93 76z"/>
<path d="M4320 9705 c7 -8 18 -15 24 -15 6 0 19 -8 27 -17 9 -10 29 -30 45
-44 16 -14 39 -38 50 -53 13 -18 34 -31 60 -36 21 -4 53 -11 69 -15 l30 -7
-40 39 c-61 60 -134 113 -193 139 -65 28 -91 32 -72 9z"/>
<path d="M3272 9701 c-10 -6 -9 -10 7 -14 28 -7 37 -33 24 -68 -8 -21 -8 -31
2 -39 7 -6 11 -19 8 -29 -3 -12 13 -32 53 -67 31 -27 64 -56 73 -65 25 -25 80
-54 87 -46 4 4 -7 20 -24 35 -32 28 -46 56 -17 32 9 -7 18 -11 20 -8 8 7 -85
98 -100 98 -7 0 -16 6 -19 13 -3 6 -3 1 0 -13 4 -22 1 -21 -31 14 -40 45 -40
44 -20 70 15 19 15 19 38 -2 13 -12 26 -22 29 -22 4 0 -21 27 -54 60 -34 33
-62 60 -62 60 -1 0 -7 -4 -14 -9z"/>
<path d="M4537 9653 c26 -20 71 -60 98 -89 41 -42 64 -57 124 -78 87 -31 106
-33 69 -8 -15 10 -60 47 -99 83 -74 67 -177 128 -217 129 -20 0 -16 -6 25 -37z"/>
<path d="M4850 9630 c0 -5 12 -17 28 -26 15 -10 54 -45 87 -78 50 -51 72 -66
130 -85 39 -13 75 -27 80 -31 14 -9 45 -20 45 -16 0 3 -23 19 -52 36 -28 18
-64 44 -79 58 -81 79 -105 96 -191 132 -27 10 -48 15 -48 10z"/>
<path d="M5425 9600 c-3 -5 1 -10 9 -10 9 0 16 -4 16 -10 0 -5 -5 -10 -11 -10
-5 0 -7 -4 -4 -10 3 -5 13 -10 21 -10 18 0 39 -18 128 -106 60 -60 82 -75 139
-94 37 -13 70 -20 74 -16 3 3 1 6 -5 6 -10 0 -29 13 -66 45 -85 76 -109 93
-122 88 -15 -6 -73 43 -74 63 0 5 -15 24 -33 42 -33 32 -61 41 -72 22z"/>
<path d="M6805 8315 c-20 -30 -41 -55 -46 -55 -13 0 -11 -48 2 -56 8 -4 7 -9
-2 -15 -8 -5 1 -6 23 -3 33 6 37 4 40 -17 2 -16 15 -30 41 -42 20 -9 37 -22
37 -28 0 -17 23 -35 53 -43 17 -4 27 -13 27 -25 0 -21 60 -71 85 -71 8 0 20
-11 25 -24 5 -13 13 -27 19 -30 6 -4 9 -12 7 -19 -1 -7 -1 -9 1 -4 9 14 44 7
50 -10 10 -29 35 -53 55 -53 10 0 18 -6 18 -13 0 -19 33 -47 54 -47 22 0 31
-26 16 -45 -10 -12 -10 -15 1 -16 8 -1 27 -3 43 -5 16 -2 37 1 46 6 9 5 21 6
26 2 5 -5 83 -6 173 -2 140 4 165 8 175 22 14 24 1 34 -19 14 -13 -13 -41 -16
-148 -17 -73 0 -144 -2 -159 -4 -16 -2 -28 -2 -28 1 0 2 13 25 30 51 l29 48
-27 29 c-26 27 -26 28 -4 22 12 -4 22 -3 22 3 0 10 -5 16 -71 76 -87 79 -85
77 -100 62 -22 -21 -75 -3 -81 27 -4 21 -1 25 21 28 25 3 24 4 -19 36 -25 19
-52 31 -62 29 -13 -4 -18 1 -18 18 0 16 -17 38 -52 69 -29 25 -77 65 -106 90
-65 57 -109 65 -64 12 17 -20 16 -20 -3 -6 -11 8 -22 17 -25 20 -43 43 -44 43
-85 -15z"/>
<path d="M6070 8258 l-20 -33 50 -44 c43 -37 49 -46 38 -59 -11 -13 -10 -15 6
-9 10 4 25 2 32 -4 16 -13 50 -6 79 16 19 15 17 18 -60 90 -44 41 -86 74 -93
75 -7 0 -21 -15 -32 -32z"/>
<path d="M6492 8257 c-12 -6 -22 -16 -22 -24 0 -7 -4 -13 -8 -13 -5 0 -18 -8
-30 -18 -20 -18 -20 -18 -1 -31 19 -11 46 -67 41 -83 -4 -13 53 -9 73 6 18 13
18 15 -8 59 -33 56 -35 76 -4 45 12 -13 65 -59 117 -103 52 -44 100 -84 106
-90 6 -5 59 -55 118 -109 59 -55 119 -108 134 -119 15 -11 41 -33 57 -48 26
-24 32 -26 48 -14 17 12 13 18 -50 72 -37 32 -79 68 -93 80 -14 12 -36 31 -50
43 -14 12 -54 47 -89 78 -62 55 -77 68 -131 115 -14 11 -61 53 -105 92 -70 63
-83 71 -103 62z"/>
<path d="M6656 8208 c9 -14 28 -31 144 -129 42 -35 93 -81 115 -101 22 -20 76
-67 120 -105 44 -37 88 -76 99 -85 11 -10 23 -18 28 -18 22 0 0 25 -91 103
-54 47 -105 92 -112 99 -8 7 -61 53 -118 103 -58 49 -118 102 -133 117 -29 28
-66 39 -52 16z"/>
<path d="M5385 8123 c28 -26 74 -68 102 -93 139 -121 182 -163 177 -171 -3 -5
3 -9 13 -9 10 0 26 -8 34 -17 9 -10 52 -49 95 -88 43 -38 85 -77 94 -85 9 -8
47 -42 85 -75 38 -33 81 -71 95 -85 27 -25 112 -101 205 -182 27 -24 64 -57
82 -75 18 -18 33 -28 33 -22 0 6 -10 19 -22 29 -21 17 -21 19 -5 25 29 12 19
31 -45 87 -35 29 -72 62 -83 73 -97 94 -100 97 -129 84 -25 -12 -30 -10 -74
32 -26 25 -83 76 -127 114 -44 39 -93 82 -110 97 -16 15 -43 39 -60 54 -16 14
-50 45 -75 68 -25 22 -65 59 -90 80 -25 22 -85 76 -134 120 -96 88 -142 118
-61 39z"/>
<path d="M6393 8022 c-131 -116 -163 -141 -179 -142 -6 0 -27 15 -46 34 -19
18 -51 48 -71 66 l-37 32 -36 -17 c-29 -14 -38 -14 -51 -3 -14 11 -15 11 -6
-7 11 -20 136 -137 154 -143 17 -7 9 -24 -23 -53 -26 -22 -35 -25 -48 -16 -32
25 -185 162 -188 170 -5 11 -26 9 -39 -4 -8 -8 14 -33 80 -94 51 -45 128 -117
172 -159 54 -52 87 -76 100 -74 11 2 29 -5 39 -14 11 -10 28 -18 39 -18 14 0
17 -5 12 -20 -4 -12 -2 -27 5 -35 15 -18 101 -18 146 1 19 8 40 11 47 7 7 -4
49 -40 94 -81 57 -52 80 -79 76 -90 -5 -11 -2 -14 9 -10 9 4 35 -10 64 -33 27
-22 58 -44 69 -50 18 -9 19 -9 3 4 -10 8 -18 17 -18 21 0 13 111 5 145 -11 42
-20 53 -13 28 20 -12 16 -35 29 -69 36 -28 7 -61 19 -73 27 l-22 16 20 15 c26
18 27 35 3 57 -18 15 -20 15 -42 -4 -30 -26 -33 -25 -67 8 -15 15 -54 49 -85
76 -32 27 -58 52 -58 57 0 5 18 21 40 35 22 15 37 31 34 36 -4 6 1 8 12 4 11
-3 26 -1 34 5 12 8 10 9 -7 4 -40 -11 -25 10 41 58 l64 47 -10 40 c-8 31 -27
55 -82 104 -116 105 -118 106 -151 106 -18 0 -38 7 -45 15 -18 22 -31 19 -77
-23z"/>
<path d="M10480 7822 c0 -4 5 -13 10 -18 8 -8 6 -15 -5 -24 -12 -10 -21 -10
-45 0 -24 10 -39 10 -75 0 -40 -11 -48 -11 -63 4 -27 24 -50 21 -27 -4 10 -11
30 -20 44 -20 15 0 43 -11 63 -25 l37 -25 35 21 c20 12 36 16 36 11 0 -6 16
-14 36 -19 21 -5 44 -19 53 -33 15 -23 15 -24 -4 -15 -22 9 -41 9 -98 -1 -24
-4 -43 -2 -52 6 -9 7 -18 10 -21 7 -12 -12 7 -25 43 -31 21 -3 54 -19 73 -36
l34 -29 29 26 c32 31 36 30 115 -36 46 -38 52 -51 25 -51 -28 0 -102 -29 -77
-30 12 0 37 -13 55 -30 19 -16 37 -30 40 -30 3 0 18 11 32 24 23 21 25 29 17
51 -11 29 -70 87 -130 128 -23 15 -40 33 -37 40 2 7 -3 17 -12 24 -9 6 -14 14
-11 17 4 3 19 -7 35 -22 16 -15 47 -42 70 -60 22 -19 59 -50 82 -69 24 -19 40
-39 37 -45 -9 -15 17 -58 35 -58 11 0 12 -3 4 -11 -6 -6 -9 -17 -6 -25 3 -8
-5 -16 -21 -20 -32 -8 -33 -24 -3 -52 42 -40 85 -19 85 40 0 47 7 58 37 58 21
0 23 3 16 22 -4 12 -14 24 -21 26 -7 3 -10 0 -7 -5 3 -5 -3 -14 -13 -21 -14
-8 -21 -8 -26 -1 -4 6 -2 14 4 18 12 7 5 51 -8 51 -5 0 -11 -6 -14 -12 -3 -9
-8 -8 -16 5 -6 9 -24 24 -41 32 -16 9 -27 20 -24 25 4 6 0 10 -8 10 -13 0 -47
25 -93 70 -12 11 -24 20 -28 20 -11 0 -39 30 -29 31 4 0 -3 5 -17 11 -14 6
-36 10 -48 9 -24 -3 -60 34 -54 53 4 11 -17 26 -35 26 -7 0 -13 -4 -13 -8z"/>
<path d="M6877 7780 c-14 -11 -28 -20 -31 -20 -7 0 -79 -78 -84 -91 -2 -4 14
-19 36 -34 38 -25 47 -25 97 -5 11 4 35 13 53 20 45 17 43 49 -5 86 -21 15
-40 29 -42 30 -2 2 2 10 9 19 18 22 -3 19 -33 -5z"/>
<path d="M9501 7724 c-33 -34 -55 -42 -66 -24 -3 6 -19 10 -35 10 -24 0 -28
-3 -23 -17 12 -34 24 -44 40 -32 14 12 28 1 54 -43 12 -22 32 -23 49 -3 7 9
33 25 57 36 59 27 58 32 -18 89 l-26 19 -32 -35z"/>
<path d="M9270 7571 c0 -4 11 -17 25 -27 19 -14 24 -25 20 -42 -8 -34 17 -37
61 -7 l39 26 18 -22 c18 -22 18 -23 -10 -37 -42 -22 -63 -43 -63 -64 0 -29 26
-32 63 -9 19 12 50 21 68 21 19 0 40 4 48 9 16 11 19 7 -52 92 -41 50 -92 69
-127 46 -15 -9 -23 -8 -38 6 -20 18 -52 23 -52 8z"/>
<path d="M10165 7489 c-16 -4 -55 -7 -85 -9 -37 -1 -49 -4 -36 -9 14 -5 16
-10 8 -15 -24 -15 -2 -23 48 -18 34 3 55 0 67 -9 13 -11 17 -11 20 -1 3 6 9
12 15 12 6 0 5 -7 -3 -16 -11 -13 -30 -15 -106 -12 -72 3 -93 1 -93 -9 0 -7
-9 -13 -19 -13 -22 0 -39 -19 -19 -21 7 -1 -7 -5 -32 -10 -28 -5 -48 -5 -54 1
-7 7 -1 10 16 10 24 0 44 21 31 33 -5 5 -91 0 -130 -9 -20 -4 -23 -11 -23 -48
0 -27 6 -48 15 -56 8 -7 15 -18 15 -25 0 -25 40 -24 56 1 29 43 118 30 238
-36 31 -16 62 -30 69 -30 6 1 30 19 52 40 35 35 39 42 28 60 -7 11 -13 46 -13
79 0 42 -4 60 -14 64 -8 3 -16 16 -18 29 -3 20 -7 23 -33 17z"/>
<path d="M9687 7374 c-32 -37 -87 -69 -87 -51 0 19 -18 -6 -25 -35 -5 -21 -3
-28 7 -28 15 0 78 -65 78 -81 0 -5 -7 -9 -15 -9 -8 0 -15 -4 -15 -9 0 -10 64
-22 68 -12 1 3 15 26 31 50 20 30 27 50 22 60 -5 9 -11 41 -15 71 -9 76 -16
82 -49 44z"/>
<path d="M8210 7343 c-19 -3 -40 -9 -45 -13 -6 -5 -17 -5 -25 0 -14 9 -86 7
-279 -6 -41 -2 -85 -7 -97 -10 -26 -7 -58 -49 -49 -64 3 -6 -1 -10 -10 -10
-15 0 -14 4 4 34 l21 34 -111 -4 c-116 -3 -141 -13 -112 -42 13 -13 16 -13 24
-1 8 11 9 10 7 -6 -3 -16 -11 -19 -55 -20 -46 0 -50 2 -42 18 5 9 14 17 19 17
6 0 10 5 10 10 0 18 -18 10 -52 -22 -18 -18 -38 -34 -43 -36 -33 -8 -50 -17
-97 -48 -29 -19 -61 -40 -72 -47 -10 -7 -29 -22 -41 -34 -13 -12 -26 -19 -29
-16 -3 4 -6 2 -6 -4 0 -5 -6 -10 -13 -10 -6 0 -31 -12 -54 -26 -24 -15 -47
-27 -53 -27 -5 0 -10 -6 -10 -12 0 -7 -17 -21 -38 -30 -20 -10 -50 -25 -67
-35 -16 -10 -74 -45 -128 -77 -89 -54 -119 -76 -102 -76 4 0 59 7 123 15 64 8
144 17 177 20 33 2 116 12 185 20 133 16 303 34 620 65 107 11 249 26 315 35
65 8 120 15 121 15 1 0 5 12 9 28 7 31 79 239 100 292 32 80 32 80 -22 78 -26
0 -64 -3 -83 -5z m-460 -117 c0 -8 -9 -17 -19 -21 -24 -7 -58 -58 -43 -63 13
-4 -17 -59 -52 -94 -13 -12 -31 -36 -41 -51 -26 -40 -31 -25 -7 18 25 42 20
45 -15 8 -14 -16 -21 -21 -15 -13 6 9 16 29 22 45 l11 30 -25 -30 c-48 -57
-71 -75 -94 -75 -19 0 -23 4 -17 18 5 14 4 15 -7 4 -11 -11 -10 -16 5 -26 21
-16 22 -26 3 -26 -23 0 -27 41 -7 66 10 13 22 20 26 16 5 -4 5 -1 1 6 -4 7 5
28 23 51 17 21 31 43 31 48 0 16 40 53 58 53 29 0 43 -33 26 -65 -18 -35 -17
-45 2 -20 13 17 16 18 25 5 8 -11 9 -10 4 8 -5 16 -1 30 10 43 15 15 15 21 5
34 -14 17 -8 19 43 15 19 -1 27 3 27 14 0 9 5 16 10 16 6 0 10 -6 10 -14z"/>
<path d="M6574 7318 c-7 -11 34 -53 159 -161 49 -43 55 -51 44 -68 -10 -16 -5
-25 43 -68 53 -48 82 -61 94 -42 4 5 -21 34 -54 63 -46 42 -57 57 -48 66 10
10 3 22 -32 55 -67 63 -187 167 -193 167 -3 0 -9 -5 -13 -12z"/>
<path d="M10178 7182 c-7 -10 -25 -26 -39 -35 -25 -16 -27 -16 -52 4 -15 11
-27 16 -27 10 0 -6 -7 -8 -15 -5 -11 5 -14 2 -8 -12 19 -55 110 -135 158 -140
l26 -3 -23 20 -23 20 25 -5 c14 -3 19 -3 13 0 -22 10 -14 28 19 44 45 21 48
60 7 94 -36 31 -44 32 -61 8z"/>
<path d="M9410 7085 c-37 -38 -51 -42 -69 -21 -6 8 -24 16 -40 18 -25 4 -28 1
-27 -23 1 -15 4 -25 9 -22 4 2 7 -2 7 -10 0 -17 84 -95 118 -109 15 -6 38 -12
52 -14 23 -3 24 -2 5 8 -26 15 -49 38 -38 38 5 0 19 -7 31 -16 12 -8 22 -11
22 -5 0 5 -4 13 -10 16 -17 10 -11 35 8 35 25 0 62 41 62 68 0 22 -56 72 -81
72 -9 0 -30 -16 -49 -35z"/>
<path d="M8225 6680 c-5 -8 66 -77 149 -145 27 -22 71 -62 98 -88 51 -49 82
-56 53 -10 -10 15 -12 22 -4 18 8 -5 10 -4 5 3 -4 7 -14 12 -22 12 -8 0 -20
11 -26 25 -7 15 -17 24 -25 21 -9 -4 -11 -1 -7 6 5 7 2 9 -8 5 -10 -3 -15 0
-14 11 0 10 -6 17 -15 16 -9 -1 -16 6 -15 15 1 10 -6 15 -17 15 -10 -1 -16 0
-13 3 8 8 -55 63 -96 83 -21 10 -40 15 -43 10z"/>
<path d="M10170 5194 c0 -12 57 -66 125 -119 73 -57 92 -79 130 -153 19 -37
49 -78 66 -92 81 -64 131 -124 170 -205 33 -70 34 -189 2 -233 l-23 -31 33 -7
c17 -3 43 -14 56 -22 l24 -16 -26 41 c-20 31 -23 43 -14 52 8 8 12 47 12 104
0 96 -13 143 -59 212 -19 28 -117 129 -197 201 -19 18 -63 63 -99 100 -36 38
-77 77 -91 86 -14 9 -33 23 -41 30 -53 49 -68 60 -68 52z"/>
<path d="M10733 5176 c7 -8 28 -43 46 -79 19 -38 42 -70 58 -78 33 -17 143
-137 143 -155 0 -8 4 -14 8 -14 5 0 19 -32 31 -70 27 -81 24 -133 -8 -179 -26
-37 -26 -41 2 -41 12 0 33 -7 45 -16 27 -19 28 -7 2 26 -24 30 -25 40 -5 40 8
0 15 -7 15 -15 0 -8 4 -15 9 -15 4 0 19 -10 32 -22 22 -21 137 -118 148 -125
3 -2 -4 -9 -14 -17 -18 -13 -17 -14 5 -32 13 -11 46 -41 74 -67 27 -26 55 -46
63 -43 14 6 19 56 5 56 -4 0 -30 20 -57 45 -28 25 -54 45 -58 45 -13 0 4 43
22 57 22 17 42 16 35 -2 -4 -10 0 -15 14 -15 25 0 48 27 44 52 -2 10 2 18 7
18 6 0 11 10 11 23 0 13 5 28 10 33 7 7 1 19 -20 37 -34 31 -45 33 -54 11 -4
-10 -14 -14 -26 -11 -11 3 -18 1 -15 -3 3 -5 -4 -14 -15 -20 -11 -6 -20 -15
-20 -20 0 -5 -13 -23 -28 -40 l-29 -31 -59 49 c-32 27 -66 51 -74 54 -11 3
-14 22 -11 90 1 48 -2 88 -7 92 -5 3 -13 22 -16 41 -4 19 -11 35 -16 35 -6 0
-10 6 -10 13 0 27 -113 147 -195 205 -6 4 -27 28 -48 55 -21 26 -43 47 -48 47
-6 0 -4 -6 4 -14z"/>
<path d="M10480 5172 c0 -5 21 -27 46 -48 30 -25 56 -61 75 -101 21 -45 44
-74 82 -105 54 -43 127 -128 127 -146 0 -6 4 -12 10 -14 16 -5 50 -115 50
-163 0 -45 -22 -102 -44 -117 -15 -10 12 -28 31 -21 7 3 20 0 28 -7 22 -19 29
-5 11 22 -13 21 -13 28 1 72 20 59 9 147 -28 223 -41 86 -59 107 -168 201 -71
61 -121 113 -121 127 0 8 -60 63 -82 76 -10 5 -18 6 -18 1z"/>
<path d="M10640 5155 c0 -3 10 -22 23 -43 13 -20 29 -52 37 -70 7 -18 33 -50
59 -70 125 -101 181 -194 189 -309 4 -61 1 -78 -17 -108 -25 -43 -26 -46 -6
-39 8 3 24 -1 37 -10 35 -25 42 -19 18 14 -19 26 -20 33 -8 47 8 11 13 44 13
98 0 134 -50 214 -236 380 -25 22 -59 57 -77 78 -18 21 -32 35 -32 32z"/>
<path d="M9960 5106 c0 -8 81 -86 89 -86 22 0 159 -148 183 -196 15 -32 58
-84 110 -135 94 -92 128 -149 152 -251 16 -68 9 -124 -21 -159 -17 -21 -17
-40 2 -33 8 3 30 -4 49 -15 34 -21 34 -21 29 -1 -3 11 -9 20 -13 20 -18 0 -20
40 -5 81 17 49 20 149 5 149 -5 0 -10 10 -10 21 0 20 -32 95 -55 129 -5 8 -64
67 -130 132 -66 64 -124 122 -130 128 -45 49 -132 130 -140 130 -6 0 -31 20
-55 45 -39 39 -60 54 -60 41z"/>
<path d="M10463 5063 c8 -10 31 -50 51 -89 19 -39 47 -79 62 -88 67 -44 174
-179 174 -219 0 -9 5 -17 11 -19 5 -2 13 -38 16 -80 5 -68 3 -80 -17 -113 -19
-31 -20 -39 -9 -46 8 -5 19 -7 24 -5 6 2 19 -2 30 -10 32 -24 37 -15 11 19
-25 33 -25 35 -10 66 21 41 15 171 -10 216 -9 17 -16 36 -16 43 0 6 -3 12 -8
12 -4 0 -16 15 -26 34 -10 19 -52 65 -94 103 -88 78 -182 174 -182 185 0 5 -5
8 -12 8 -7 0 -5 -7 5 -17z"/>
<path d="M10267 4982 c7 -4 30 -42 52 -85 28 -54 62 -99 118 -155 92 -93 93
-94 120 -152 51 -109 55 -195 13 -252 -25 -34 -24 -37 19 -43 18 -2 39 -9 47
-16 21 -17 17 -2 -7 33 -16 21 -18 32 -10 37 18 12 25 132 11 192 -12 51 -41
117 -65 148 -18 24 -129 135 -175 176 -25 22 -60 59 -79 83 -18 23 -39 42 -45
42 -7 0 -7 -3 1 -8z"/>
<path d="M10060 4890 c0 -6 4 -10 10 -10 5 0 28 -38 50 -84 30 -65 52 -95 93
-131 171 -147 239 -343 156 -449 l-20 -26 29 0 c16 0 35 -7 42 -15 7 -8 19
-15 27 -15 12 0 10 7 -7 35 -18 29 -19 37 -8 57 18 34 15 164 -5 224 -20 59
-89 160 -136 201 -88 75 -161 146 -182 178 -24 35 -49 53 -49 35z"/>
<path d="M9963 4833 c21 -24 67 -113 67 -129 0 -8 42 -56 94 -109 125 -125
167 -207 169 -323 0 -66 -3 -85 -22 -116 l-23 -37 26 7 c18 4 33 0 52 -15 36
-28 41 -20 15 23 -21 33 -21 37 -7 65 9 17 16 55 16 90 0 60 -27 171 -42 171
-4 0 -8 6 -8 13 0 8 -9 24 -20 37 -11 13 -20 27 -20 32 0 10 -172 178 -182
178 -4 0 -31 29 -59 65 -28 36 -56 65 -61 65 -6 0 -4 -8 5 -17z"/>
<path d="M9850 4793 c0 -6 4 -14 8 -17 11 -7 72 -130 72 -145 0 -11 35 -49 96
-102 51 -45 85 -89 121 -158 30 -55 36 -79 41 -148 4 -78 3 -85 -23 -124 l-27
-42 26 7 c19 5 34 1 53 -14 40 -31 46 -24 18 20 -20 32 -23 42 -11 46 22 8 15
217 -9 264 -42 82 -99 159 -157 210 -85 76 -137 128 -175 175 -18 22 -33 35
-33 28z"/>
<path d="M11526 4438 c5 -7 26 -29 47 -48 36 -32 137 -214 137 -247 0 -6 3
-13 8 -15 4 -1 44 -75 88 -162 58 -114 88 -162 104 -168 18 -7 21 -6 12 4 -5
7 -60 112 -122 233 -164 321 -170 331 -224 375 -50 42 -62 48 -50 28z"/>
<path d="M9134 4318 c9 -12 16 -30 16 -39 0 -9 15 -30 33 -47 165 -154 186
-172 208 -172 27 0 24 12 -14 46 -45 40 -52 54 -25 46 20 -5 21 -4 7 12 -7 9
-23 26 -34 37 -19 19 -19 21 -2 33 21 16 23 38 2 30 -8 -4 -15 -12 -15 -20 0
-20 -17 -17 -29 4 -6 9 -11 13 -11 8 0 -5 -9 1 -20 14 -21 24 -27 12 -10 -21
18 -32 -6 -21 -39 19 -53 64 -61 72 -72 72 -5 0 -3 -10 5 -22z"/>
<path d="M9397 4193 c-12 -11 -8 -21 12 -26 23 -6 42 -64 29 -89 -6 -12 -2
-23 13 -37 13 -12 19 -26 15 -36 -6 -17 95 -125 182 -193 23 -19 42 -39 42
-46 0 -9 9 -12 25 -8 34 6 31 19 -10 54 -30 26 -33 33 -24 51 10 17 9 19 -5
14 -11 -4 -15 -3 -11 4 9 13 -25 50 -38 42 -6 -4 -7 -1 -2 7 6 10 4 12 -7 7
-10 -3 -15 0 -14 11 1 10 -6 16 -16 16 -10 -1 -18 3 -18 9 0 6 -3 8 -6 5 -3
-4 0 -16 6 -28 11 -20 10 -21 -9 -11 -11 6 -33 28 -48 49 -15 20 -36 46 -48
57 -18 17 -19 24 -10 53 6 18 15 29 21 25 5 -4 -9 11 -31 35 -44 47 -40 44
-48 35z"/>
<path d="M8861 3936 c-1 -21 3 -27 13 -23 14 6 47 -21 92 -73 12 -14 28 -29
38 -35 15 -9 15 -14 -4 -63 l-20 -53 26 17 c25 17 26 16 67 -23 23 -23 70 -68
105 -102 38 -37 60 -65 56 -72 -5 -8 -1 -10 13 -7 12 3 27 -1 36 -11 8 -9 42
-42 75 -75 60 -58 62 -58 92 -46 29 12 33 11 59 -16 15 -16 37 -36 49 -44 12
-8 22 -23 22 -33 0 -12 5 -17 14 -14 8 3 21 -2 30 -12 15 -17 15 -19 -6 -33
l-23 -16 28 -27 c15 -15 27 -34 27 -42 0 -8 4 -12 8 -9 11 6 52 -21 52 -35 0
-5 -7 -9 -15 -9 -8 0 -15 -4 -15 -10 0 -13 3 -13 50 6 22 9 53 14 69 12 18 -3
29 0 28 6 -1 6 13 15 31 20 17 6 32 14 32 18 0 9 -56 64 -141 138 -35 30 -87
78 -115 105 -29 28 -65 61 -82 75 -16 14 -57 50 -90 80 -32 30 -101 93 -152
140 -52 47 -113 104 -137 128 -24 23 -47 42 -51 42 -4 0 -13 9 -20 20 -7 11
-20 20 -29 20 -9 0 -14 3 -10 6 3 3 -7 17 -23 31 -24 19 -33 22 -49 13 -12 -6
-18 -16 -15 -25 5 -12 0 -12 -28 -3 -57 19 -77 30 -81 47 -3 9 -5 3 -6 -13z
m246 -187 c-5 -40 7 -63 16 -30 6 24 47 18 47 -6 0 -13 -2 -13 -17 -2 -14 12
-16 12 -11 -1 2 -8 11 -15 19 -15 8 0 20 -4 27 -8 6 -5 18 -5 25 -2 6 4 -1 -5
-18 -20 l-30 -26 37 7 c30 5 39 3 44 -10 3 -9 14 -16 25 -16 23 0 39 -29 39
-69 0 -17 5 -31 10 -31 6 0 9 4 8 9 -2 5 2 9 7 9 6 1 9 -6 7 -14 -2 -8 4 -14
13 -14 9 0 25 -5 36 -11 20 -10 20 -11 2 -24 -14 -11 -16 -16 -5 -26 10 -11
12 -10 12 5 0 13 5 16 22 10 13 -4 28 -14 34 -22 6 -8 16 -12 22 -8 7 4 12 1
12 -8 0 -9 -6 -16 -14 -16 -7 0 -19 -7 -26 -15 -18 -22 -22 -20 -76 33 -27 26
-99 92 -159 147 -60 55 -125 115 -144 133 l-34 32 28 30 c35 36 49 29 42 -21z"/>
<path d="M10480 3918 c-14 -11 -19 -19 -11 -16 8 2 35 -16 60 -40 25 -24 61
-57 79 -75 27 -25 37 -29 50 -20 36 22 26 45 -44 110 -38 34 -78 63 -89 63
-11 -1 -31 -10 -45 -22z"/>
<path d="M2766 7453 c-4 -4 -23 -8 -43 -10 -44 -3 -50 -8 -32 -30 13 -16 12
-17 -3 -4 -15 11 -23 11 -48 1 -35 -14 -35 -16 -14 -37 15 -15 19 -15 48 0 95
48 156 45 264 -11 39 -19 107 -90 124 -127 6 -14 14 -25 18 -25 4 0 11 -17 15
-37 4 -21 10 -40 14 -43 5 -3 11 -32 14 -65 4 -39 3 -54 -3 -45 -5 8 -10 32
-10 52 0 20 -4 40 -10 43 -5 3 -10 13 -10 22 0 21 -41 103 -52 103 -4 0 -8 7
-8 15 0 21 -98 91 -145 104 -22 6 -53 11 -70 11 -36 0 -120 -39 -155 -72 -27
-24 -69 -85 -52 -74 5 3 15 -1 22 -9 10 -12 8 -23 -9 -58 -12 -24 -21 -51 -21
-60 0 -23 -30 -22 -30 1 -1 9 -7 2 -15 -17 -16 -37 -20 -117 -6 -125 5 -3 11
-15 14 -26 3 -11 1 -18 -4 -14 -5 3 -9 -2 -9 -11 0 -9 4 -14 9 -11 5 4 7 -3 4
-14 -7 -25 39 -104 86 -149 81 -77 192 -96 286 -50 57 27 140 123 151 173 3
17 10 36 15 41 4 6 9 33 12 60 l3 50 2 -57 c1 -31 -2 -59 -7 -62 -4 -3 -11
-19 -15 -36 -8 -45 -62 -120 -109 -156 -58 -43 -108 -57 -181 -52 -79 7 -136
36 -189 96 -7 8 -24 26 -39 42 -15 15 -24 30 -22 33 3 2 -4 21 -15 41 -12 20
-20 40 -19 44 5 20 -15 71 -30 75 -15 4 -15 5 1 6 19 1 20 3 8 54 -6 23 -5 39
1 43 5 3 8 20 7 38 -1 17 6 48 15 68 20 46 20 45 -4 51 -16 4 -24 -2 -35 -30
-8 -19 -13 -39 -10 -43 3 -5 1 -11 -5 -15 -15 -9 -13 -75 3 -75 8 0 8 -3 -2
-9 -18 -11 -8 -161 11 -176 7 -5 14 -23 15 -40 1 -16 11 -37 21 -45 10 -9 17
-20 15 -26 -5 -15 79 -108 120 -133 120 -74 257 -64 362 28 52 45 87 101 115
184 20 58 22 81 18 174 -2 60 -9 117 -15 128 -16 28 -43 92 -43 99 0 26 -91
125 -145 158 -54 33 -162 58 -179 41z"/>
<path d="M3985 6813 c-13 -11 -65 -80 -65 -87 0 -3 27 -6 60 -6 60 0 75 -10
43 -29 -22 -12 -15 -19 25 -27 25 -5 32 -3 32 9 0 8 -7 17 -15 21 -24 9 -18
19 35 56 56 39 63 60 23 60 -16 0 -50 3 -78 6 -27 3 -55 1 -60 -3z"/>
<path d="M4219 6723 c-22 -20 -36 -40 -32 -44 5 -5 37 -26 72 -47 l64 -39 46
24 c25 14 50 28 55 33 8 8 -107 89 -147 103 -12 5 -30 -5 -58 -30z"/>
<path d="M2958 6582 c-42 -19 -45 -24 -23 -46 8 -8 15 -18 15 -22 0 -8 6 -22
74 -165 20 -42 36 -82 36 -88 0 -21 18 -2 41 45 13 25 47 74 76 110 48 57 52
66 39 79 -8 8 -29 15 -47 15 -26 0 -30 3 -21 12 20 20 14 26 -33 34 -25 3 -45
10 -45 15 0 5 6 9 13 9 8 0 7 4 -3 10 -23 15 -81 11 -122 -8z"/>
<path d="M3594 6575 c9 -13 16 -31 16 -38 0 -8 14 -17 33 -20 17 -4 43 -9 56
-13 23 -7 24 -6 18 32 -6 36 -5 37 8 20 8 -11 15 -28 15 -37 0 -18 68 -59 96
-59 12 0 15 6 10 25 -5 20 -3 23 10 18 11 -4 14 -14 10 -33 -4 -24 1 -32 39
-59 24 -17 46 -31 49 -31 4 0 11 10 17 23 8 18 9 16 4 -13 -4 -30 1 -41 35
-79 39 -43 41 -44 56 -25 14 18 15 17 8 -14 -4 -25 0 -47 18 -83 20 -44 26
-49 48 -44 24 6 24 6 7 -13 -17 -19 -17 -22 0 -81 11 -36 24 -61 32 -61 10 0
11 -3 2 -13 -7 -9 -8 -37 -4 -80 5 -57 9 -67 27 -70 l21 -4 -21 -2 c-19 -1
-22 -9 -28 -68 -8 -78 -44 -212 -63 -231 -20 -21 -16 -34 6 -22 11 5 28 10 39
10 25 0 34 23 22 55 -8 20 -6 25 6 25 14 0 23 14 28 42 1 7 6 20 11 28 5 8 9
85 9 170 -1 140 -4 163 -28 234 -14 43 -26 87 -26 97 0 11 -4 19 -9 19 -4 0
-19 23 -32 50 -13 28 -27 50 -31 50 -5 0 -8 7 -8 16 0 14 -40 64 -82 103 -10
8 -18 21 -18 29 0 7 -8 16 -17 19 -35 14 -103 65 -98 73 3 5 -14 14 -37 20
-53 14 -105 37 -113 51 -5 7 -11 6 -20 -1 -8 -7 -18 -10 -22 -7 -4 3 -32 8
-62 11 l-53 6 16 -25z"/>
<path d="M4453 6583 c-18 -9 -33 -22 -33 -29 0 -6 -6 -14 -14 -17 -10 -4 -3
-17 26 -49 22 -24 52 -61 66 -83 13 -22 26 -41 26 -42 3 -3 107 35 113 41 3 3
-14 31 -37 63 -23 32 -54 75 -69 95 -29 42 -33 43 -78 21z"/>
<path d="M3529 6427 c-44 -13 -86 -38 -180 -108 -58 -42 -95 -117 -139 -278
-26 -96 -29 -119 -20 -146 15 -44 10 -142 -7 -157 -15 -12 -3 -37 42 -82 27
-27 32 -52 13 -59 -23 -8 42 -116 112 -186 75 -75 161 -122 258 -141 80 -16
172 -8 190 17 8 12 26 18 53 19 51 0 69 17 45 43 -23 26 -2 39 25 15 19 -17
21 -16 80 47 63 66 103 140 135 244 35 119 20 345 -31 442 -8 15 -15 34 -15
41 0 6 -4 12 -10 12 -5 0 -10 6 -10 13 0 8 -9 24 -20 37 -11 13 -20 27 -20 31
0 20 -136 139 -193 170 -57 31 -70 34 -162 36 -59 2 -118 -2 -146 -10z m184
-47 c20 -11 44 -20 52 -20 26 0 75 -30 75 -45 0 -20 -19 -19 -57 4 -22 14 -33
16 -36 8 -3 -9 -9 -8 -23 3 -28 23 -73 44 -80 38 -3 -3 0 -54 6 -113 11 -103
8 -158 -5 -79 -3 22 -10 58 -16 81 -5 23 -9 56 -9 72 0 29 -3 31 -34 31 -36 0
-52 12 -41 30 11 19 127 12 168 -10z m224 -115 c37 -39 66 -79 72 -100 5 -19
16 -42 25 -51 9 -8 16 -24 16 -34 0 -11 11 -45 25 -76 19 -42 25 -72 24 -118
-1 -33 -3 -52 -6 -41 -2 11 -6 30 -9 43 -3 16 -10 22 -22 18 -9 -2 -55 -8
-102 -11 -63 -5 -82 -4 -74 4 6 6 35 14 65 17 116 11 119 12 119 44 0 17 -7
33 -17 38 -10 6 -16 22 -15 43 0 22 -6 40 -19 52 -11 10 -22 31 -25 46 -3 16
-16 40 -27 55 l-22 27 -65 -87 c-36 -48 -68 -92 -72 -98 -4 -6 -10 -8 -13 -5
-7 7 21 69 70 158 19 35 35 67 35 71 0 4 -11 13 -25 20 -26 14 -35 50 -13 50
7 0 40 -29 75 -65z m-378 -235 c6 0 24 6 39 14 24 12 32 11 67 -4 64 -28 114
-88 117 -139 3 -70 -4 -126 -18 -142 -8 -8 -14 -20 -14 -26 0 -17 -55 -35
-111 -37 l-51 -2 -50 -85 c-60 -101 -54 -95 -73 -79 -18 15 -12 29 57 122 l49
66 -31 33 c-16 19 -30 39 -30 46 0 7 -5 23 -11 36 -10 22 -15 24 -43 17 -17
-5 -60 -12 -96 -15 -58 -6 -63 -5 -50 8 10 10 39 16 85 18 90 4 95 6 95 39 0
26 26 88 42 100 11 8 -1 21 -75 79 -74 58 -90 80 -80 107 5 15 21 2 88 -69 45
-48 87 -87 94 -87z m-271 -329 c2 -13 12 -25 21 -28 10 -2 30 -27 45 -54 22
-42 24 -50 11 -55 -21 -8 -19 -24 4 -24 10 0 24 -7 31 -15 27 -33 93 -78 117
-81 14 -1 35 -11 47 -22 41 -37 132 -52 215 -36 23 5 31 12 31 28 1 15 14 28
45 43 25 12 45 18 45 13 0 -19 31 -10 38 11 7 18 10 19 20 6 10 -12 5 -20 -29
-48 -57 -47 -113 -69 -192 -78 -72 -8 -158 4 -213 30 -54 24 -140 92 -165 129
-13 19 -27 37 -30 40 -4 3 -17 25 -30 50 -13 25 -26 47 -29 50 -15 11 -31 51
-25 61 12 18 40 5 43 -20z"/>
<path d="M3580 6014 c-57 -36 -78 -94 -66 -178 5 -34 17 -54 48 -85 35 -35 46
-41 83 -41 85 0 140 90 116 193 -24 104 -109 156 -181 111z m152 -111 c36 -32
12 -125 -36 -137 -59 -15 -115 35 -116 102 0 48 14 49 24 1 7 -36 30 -35 34 3
5 42 61 61 94 31z"/>
<path d="M4705 6339 c-97 -32 -154 -49 -187 -54 -34 -7 -39 -5 -48 19 -10 28
-17 31 -38 17 -12 -7 -11 -13 1 -38 19 -36 55 -53 110 -53 42 0 43 -1 60 -47
9 -27 17 -58 17 -70 0 -35 11 -53 32 -53 40 0 108 23 108 36 0 8 -4 14 -9 14
-5 0 -12 21 -16 48 -4 26 -10 52 -14 57 -7 10 -31 86 -31 99 0 3 10 6 23 6 13
0 32 7 43 15 19 14 19 14 -1 14 -11 0 -33 -5 -50 -10z"/>
<path d="M4401 6111 c-11 -7 -9 -10 9 -13 23 -3 25 -7 43 -80 8 -29 10 -27
-85 -43 -30 -5 -38 -3 -38 10 0 21 -16 19 -40 -5 -11 -11 -17 -26 -13 -35 4
-13 16 -15 62 -10 31 4 66 13 78 21 36 22 43 17 43 -31 0 -38 3 -45 20 -45 26
0 26 33 3 153 -16 83 -18 87 -42 87 -14 0 -32 -4 -40 -9z"/>
<path d="M3361 5304 c-25 -32 -23 -36 36 -71 l46 -27 20 25 c17 20 19 20 13 4
-14 -36 -11 -39 44 -58 38 -13 56 -15 58 -7 3 7 11 5 23 -6 18 -16 29 -17 119
-7 112 13 120 16 120 46 0 43 -15 53 -62 40 -57 -14 -160 -11 -225 9 -29 8
-53 13 -53 11 0 -2 -10 6 -22 17 -13 11 -33 23 -45 26 -13 4 -23 10 -23 15 0
18 -29 8 -49 -17z"/>
<path d="M5006 5205 c-9 -9 -17 -11 -21 -5 -11 17 -65 -17 -59 -38 5 -14 4
-15 -5 -2 -9 12 -14 13 -28 2 -10 -7 -26 -15 -35 -18 -10 -4 -18 -10 -18 -15
0 -4 8 -13 18 -19 14 -8 12 -9 -10 -4 -20 4 -28 2 -28 -8 0 -7 -10 -19 -21
-27 -18 -10 -19 -15 -8 -22 8 -5 9 -9 2 -9 -6 0 -21 -16 -33 -37 -17 -29 -18
-38 -8 -44 9 -6 10 -9 1 -9 -13 0 -36 -68 -27 -82 3 -4 14 -8 24 -8 14 0 22
11 31 43 6 23 18 55 26 70 8 15 12 35 9 43 -3 7 0 14 7 14 7 0 23 16 36 35 13
19 27 35 30 35 4 0 16 8 27 19 11 10 37 24 57 30 22 8 37 19 38 29 0 11 2 12
6 5 5 -13 55 -18 65 -7 3 3 4 14 1 25 -6 23 -54 26 -77 4z"/>
<path d="M4266 5179 c2 -4 -37 -15 -86 -25 -51 -10 -90 -23 -90 -30 0 -6 33
-26 73 -43 62 -27 83 -32 137 -29 40 2 65 8 68 16 2 8 -11 12 -47 12 -69 0
-67 20 4 50 60 25 67 35 33 46 -29 10 -98 12 -92 3z"/>
<path d="M5260 5143 c0 -10 12 -28 27 -40 21 -19 29 -21 41 -10 13 10 15 9 9
-6 -8 -21 29 -81 44 -72 5 4 9 -4 9 -17 0 -13 9 -34 20 -48 11 -14 20 -32 20
-41 0 -9 6 -32 13 -50 9 -21 11 -44 6 -59 -6 -22 -7 -20 -8 13 -1 55 -52 159
-106 216 -53 57 -107 86 -185 101 -48 9 -64 8 -124 -12 -58 -19 -76 -31 -120
-80 -43 -47 -55 -69 -70 -128 -19 -70 -18 -175 0 -239 5 -17 4 -22 -4 -17 -7
4 -12 1 -12 -8 0 -9 5 -16 10 -16 6 0 10 -8 10 -18 0 -26 67 -113 114 -149 55
-42 118 -63 192 -63 160 0 268 113 299 314 10 61 14 37 5 -29 -15 -116 -64
-197 -155 -259 -57 -39 -60 -40 -149 -41 -81 0 -97 3 -146 29 -64 33 -120 84
-146 132 -13 24 -26 34 -44 35 -17 1 -19 3 -7 6 20 5 21 16 5 46 -21 37 -40
120 -38 170 1 45 0 47 -26 47 l-26 0 6 -87 c4 -48 12 -93 19 -101 7 -9 11 -16
9 -16 -9 -3 12 -63 26 -73 9 -7 13 -13 9 -13 -12 0 13 -41 54 -90 32 -38 116
-103 138 -106 3 0 23 -8 43 -17 24 -11 64 -17 110 -17 145 0 250 68 319 208
82 163 52 380 -73 528 -37 44 -97 94 -113 94 -3 0 -5 -8 -5 -17z"/>
<path d="M6255 4922 c-5 -5 3 -28 40 -107 59 -128 62 -140 37 -174 -27 -37
-28 -47 -2 -54 13 -3 20 0 20 9 0 8 -5 14 -10 14 -6 0 2 13 17 30 21 23 29 27
40 18 10 -8 17 -8 24 -1 8 8 1 29 -20 72 -17 35 -27 69 -24 78 4 10 2 14 -4
10 -7 -4 -14 5 -18 22 -3 16 -13 35 -21 42 -8 6 -14 20 -14 30 0 14 -7 18 -31
16 -17 -1 -32 -4 -34 -5z"/>
<path d="M5789 4680 c-12 -33 -26 -39 -35 -15 -4 10 -10 12 -18 6 -6 -5 -20
-11 -31 -14 -12 -3 -4 -5 18 -6 43 -1 48 -13 12 -29 -14 -6 -25 -16 -25 -22 0
-5 -6 -10 -14 -10 -15 0 -46 -37 -46 -54 0 -5 9 -1 19 8 15 13 34 17 73 15
110 -5 158 0 158 17 0 12 -9 15 -37 12 -35 -2 -38 -1 -37 22 0 14 4 42 8 63 8
34 6 37 -13 37 -15 0 -25 -9 -32 -30z"/>
</g>
</svg>
